<svg width="30" height="31" viewBox="0 0 30 31" fill="none" xmlns="http://www.w3.org/2000/svg">
<path d="M11.875 24.1754C12.9105 24.1754 13.75 25.0148 13.75 26.0504C13.75 27.0859 12.9105 27.9254 11.875 27.9254C10.8395 27.9254 10 27.0859 10 26.0504C10 25.0148 10.8395 24.1754 11.875 24.1754ZM23.125 24.1754C24.1605 24.1754 25 25.0148 25 26.0504C25 27.0859 24.1605 27.9254 23.125 27.9254C22.0895 27.9254 21.25 27.0859 21.25 26.0504C21.25 25.0148 22.0895 24.1754 23.125 24.1754ZM5.9375 1.98786C7.83598 1.98786 9.375 3.52688 9.375 5.42536H22.5C25.2614 5.42536 27.5 7.66394 27.5 10.4254V16.6754C27.5 19.4368 25.2614 21.6754 22.5 21.6754H12.5C9.73858 21.6754 7.5 19.4368 7.5 16.6754V5.42536C7.5 4.56242 6.80045 3.86286 5.9375 3.86286H3.4375C2.91973 3.86286 2.5 3.44313 2.5 2.92536C2.5 2.40759 2.91973 1.98786 3.4375 1.98786H5.9375ZM13.75 15.1129C13.2322 15.1129 12.8125 15.5326 12.8125 16.0504C12.8125 16.5681 13.2322 16.9879 13.75 16.9879H21.25C21.7678 16.9879 22.1875 16.5681 22.1875 16.0504C22.1875 15.5326 21.7678 15.1129 21.25 15.1129H13.75ZM13.75 10.1129C13.2322 10.1129 12.8125 10.5326 12.8125 11.0504C12.8125 11.5681 13.2322 11.9879 13.75 11.9879H21.25C21.7678 11.9879 22.1875 11.5681 22.1875 11.0504C22.1875 10.5326 21.7678 10.1129 21.25 10.1129H13.75Z" fill="#E41C34"/>
</svg>
