<svg width="38" height="34" viewBox="0 0 38 34" fill="none" xmlns="http://www.w3.org/2000/svg">
<path fill-rule="evenodd" clip-rule="evenodd" d="M17.167 0.5H20.8337C29.9464 0.5 37.3337 7.8873 37.3337 17C37.3337 26.1127 29.9464 33.5 20.8337 33.5H8.00033C3.95024 33.5 0.666992 30.2168 0.666992 26.1667V17C0.666992 7.8873 8.05429 0.5 17.167 0.5ZM19.0003 18.8333C20.0128 18.8333 20.8337 18.0125 20.8337 17C20.8337 15.9875 20.0128 15.1667 19.0003 15.1667C17.9878 15.1667 17.167 15.9875 17.167 17C17.167 18.0125 17.9878 18.8333 19.0003 18.8333ZM28.167 17C28.167 18.0125 27.3462 18.8333 26.3337 18.8333C25.3211 18.8333 24.5003 18.0125 24.5003 17C24.5003 15.9875 25.3211 15.1667 26.3337 15.1667C27.3462 15.1667 28.167 15.9875 28.167 17ZM11.667 18.8333C12.6795 18.8333 13.5003 18.0125 13.5003 17C13.5003 15.9875 12.6795 15.1667 11.667 15.1667C10.6545 15.1667 9.83366 15.9875 9.83366 17C9.83366 18.0125 10.6545 18.8333 11.667 18.8333Z" fill="#E41C34"/>
</svg>
