<svg width="1440" height="394" viewBox="0 0 1440 394" fill="none" xmlns="http://www.w3.org/2000/svg">
<g opacity="0.1" clip-path="url(#clip0_11_410)">
<path d="M757.901 142.945C852.855 166.991 934.569 205.452 989.923 248.177C1017.6 269.54 1038.67 291.954 1051.51 314.145C1064.36 336.333 1068.96 358.27 1063.79 378.715C1058.61 399.161 1044.12 416.26 1022.26 429.662C1000.4 443.065 971.205 452.75 936.696 458.365C867.679 469.596 777.509 464.53 682.554 440.484C587.6 416.438 505.887 377.977 450.533 335.253C422.856 313.89 401.788 291.476 388.943 269.285C376.1 247.096 371.493 225.161 376.671 204.715C381.848 184.269 396.34 167.169 418.196 153.768C440.055 140.365 469.251 130.679 503.76 125.064C572.777 113.834 662.947 118.9 757.901 142.945Z" stroke="white"/>
<path d="M775.02 75.3433C913.005 110.286 1031.76 166.179 1112.21 228.279C1152.44 259.329 1183.08 291.915 1201.76 324.191C1220.44 356.464 1227.15 388.396 1219.61 418.176C1212.07 447.955 1190.97 472.842 1159.18 492.335C1127.39 511.829 1084.94 525.908 1034.78 534.07C934.464 550.392 803.42 543.028 665.435 508.086C527.45 473.144 408.696 417.25 328.241 355.151C288.013 324.101 257.38 291.514 238.698 259.238C220.017 226.965 213.302 195.033 220.843 165.254C228.385 135.474 249.488 110.587 281.277 91.0946C313.069 71.6005 355.52 57.5214 405.678 49.3599C505.992 33.0372 637.035 40.401 775.02 75.3433Z" stroke="white"/>
<path d="M795.851 -6.91525C986.196 41.2865 1150.02 118.391 1261.02 204.066C1316.52 246.903 1358.79 291.869 1384.58 336.416C1410.36 380.96 1419.64 425.055 1409.22 466.192C1398.81 507.329 1369.66 541.692 1325.78 568.596C1281.9 595.502 1223.32 614.928 1154.12 626.188C1015.73 648.708 834.95 638.547 644.605 590.345C454.26 542.144 290.434 465.039 179.435 379.364C123.935 336.526 81.6624 291.561 55.8777 247.014C30.0947 202.47 20.8133 158.375 31.2306 117.238C41.648 76.1004 70.7976 41.7373 114.674 14.8333C158.553 -12.0724 217.132 -31.4987 286.331 -42.7586C424.728 -65.278 605.506 -55.117 795.851 -6.91525Z" stroke="white"/>
</g>
<defs>
<clipPath id="clip0_11_410">
<rect width="1440" height="394" fill="white"/>
</clipPath>
</defs>
</svg>
