<svg width="335" height="217" viewBox="0 0 335 217" fill="none" xmlns="http://www.w3.org/2000/svg">
<path d="M123.659 26.557C124.817 27.1532 125.396 28.0133 125.396 29.1337C125.396 29.8703 125.211 30.3945 124.845 30.7098C124.478 31.025 123.95 31.2443 123.268 31.3676C122.583 31.491 121.733 31.5595 120.719 31.5766C119.702 31.5938 118.564 31.6383 117.3 31.7068C116.878 31.5664 115.336 31.4259 112.671 31.2854C112.284 31.3197 111.917 31.3471 111.567 31.3642C111.218 31.3813 110.882 31.3916 110.567 31.3916C108.672 31.3916 107.377 31.1107 106.675 30.5487C106.5 29.1474 106.366 27.8488 106.281 26.6564C106.192 25.464 106.15 24.3779 106.15 23.3945C106.15 21.8527 106.212 20.5096 106.335 19.372C106.459 18.2345 106.52 17.2066 106.52 16.2952C106.52 15.1747 106.469 14.2976 106.363 13.6672L106.678 8.1439C106.819 6.81106 106.983 5.67352 107.178 4.72442C107.37 3.77875 107.607 3.05921 107.888 2.56924C108.097 2.28828 109.148 1.93879 111.043 1.51735L114.408 0.780701C114.617 0.746437 115.055 0.695035 115.724 0.623082C116.388 0.554555 117.08 0.482607 117.8 0.41408C118.519 0.345553 119.157 0.290724 119.719 0.256461C120.281 0.222197 120.541 0.205078 120.507 0.205078H120.716C121.1 0.205078 121.497 0.468902 121.898 0.993132C122.299 1.52079 122.504 2.1341 122.504 2.83308C122.504 3.18256 122.494 3.49779 122.477 3.77875C122.46 4.05971 122.347 4.29613 122.134 4.488C121.925 4.67988 121.572 4.83063 121.082 4.93342C120.592 5.03964 119.873 5.10816 118.927 5.14242C117.385 5.21438 116.333 5.37199 115.772 5.61526H115.508C114.596 5.61526 113.455 5.82428 112.088 6.24572C111.948 6.42046 111.842 6.72883 111.773 7.1674C111.701 7.60597 111.65 8.06167 111.615 8.53451C111.581 9.00734 111.554 9.41164 111.537 9.744C111.519 10.0764 111.509 10.1894 111.509 10.0866C111.475 10.2614 111.448 10.4361 111.43 10.6109C111.413 10.7856 111.403 11.0152 111.403 11.2961C111.403 11.5428 111.41 11.8135 111.43 12.1116C111.448 12.4097 111.475 12.7352 111.509 13.0847C112.595 12.9785 113.483 12.8654 114.165 12.742C114.85 12.6187 115.381 12.557 115.768 12.557C116.505 12.557 117.224 12.5399 117.923 12.5056C118.626 12.4714 119.246 12.5159 119.791 12.6358C120.332 12.7592 120.764 13.0025 121.079 13.3725C121.394 13.7425 121.552 14.3285 121.552 15.1336C121.552 16.045 121.264 16.6412 120.685 16.9222C120.106 17.2031 119.099 17.3608 117.659 17.395C115.977 17.467 114.96 17.5355 114.61 17.604C114.401 17.604 114.182 17.5972 113.952 17.5766C113.723 17.5595 113.469 17.5492 113.188 17.5492C113.013 17.5492 112.811 17.5424 112.585 17.5218C112.356 17.5047 112.14 17.5047 111.927 17.5218C111.718 17.5389 111.533 17.6109 111.376 17.7308C111.218 17.8541 111.139 18.0734 111.139 18.3887C111.139 18.5977 111.146 18.8718 111.167 19.2041C111.184 19.5365 111.194 19.8448 111.194 20.1258C111.194 20.5472 111.184 20.9687 111.167 21.3867C111.149 21.8082 111.132 22.2536 111.115 22.7264C111.098 23.1992 111.081 23.7337 111.064 24.3299C111.047 24.9261 111.036 25.6285 111.036 26.4337C111.245 26.468 111.66 26.5057 112.273 26.5399C112.887 26.5742 113.534 26.6119 114.219 26.6461C114.905 26.6804 115.559 26.7249 116.193 26.7763C116.823 26.8277 117.245 26.8723 117.454 26.9065C117.488 26.9065 117.735 26.8894 118.191 26.8551C118.646 26.8209 119.311 26.7695 120.188 26.6975C121.381 26.5913 122.326 26.5399 123.029 26.5399H123.659V26.557Z" fill="#181818"/>
<path d="M151.847 28.3422C151.847 28.9726 151.566 29.5619 151.004 30.1033C150.442 30.6481 149.88 30.9188 149.322 30.9188C149.041 30.9188 148.815 30.8297 148.637 30.655C148.602 30.655 148.445 30.4802 148.164 30.1273C147.883 29.7778 147.55 29.3392 147.163 28.8116C146.776 28.2874 146.355 27.7254 145.902 27.1292C145.447 26.5331 145.025 25.9712 144.641 25.4469C144.254 24.9227 143.949 24.491 143.72 24.1586C143.49 23.8263 143.394 23.6755 143.432 23.7132C143.36 23.5042 143.185 23.1684 142.904 22.7127C142.623 22.257 142.318 21.7739 141.983 21.2668C141.65 20.7597 141.342 20.2868 141.061 19.8483C140.78 19.4097 140.622 19.139 140.588 19.0328C140.516 19.0328 140.324 19.0602 140.009 19.1116C139.694 19.163 139.344 19.2178 138.957 19.2692C138.57 19.3206 138.176 19.3754 137.775 19.4268C137.371 19.4782 137.066 19.5056 136.853 19.5056H136.59C136.483 20.5918 136.398 21.4861 136.326 22.1885C136.254 22.8909 136.219 23.4151 136.219 23.7646V25.3955C136.219 27.2903 136.062 29.3392 135.747 31.5492C135.325 32.1797 134.712 32.4949 133.907 32.4949C133.204 32.4949 132.601 32.3099 132.094 31.9433C131.587 31.5767 131.33 30.9359 131.33 30.0245C131.33 29.7435 131.337 29.4009 131.358 29C131.375 28.5992 131.392 28.1846 131.409 27.7631C131.426 27.3417 131.443 26.9648 131.46 26.6324C131.477 26.3001 131.488 26.0808 131.488 25.9746V25.7108L131.858 17.7685C131.892 17.3128 131.902 16.7509 131.885 16.0862C131.868 15.4214 131.892 14.6505 131.964 13.7734L132.385 10.6177C132.594 9.53156 132.701 8.60302 132.701 7.8321C132.701 7.58883 132.69 7.349 132.673 7.12286C132.656 6.89672 132.629 6.6603 132.594 6.41361L132.752 4.57366C132.786 3.73078 132.944 3.04893 133.225 2.52127C133.506 1.99704 134.171 1.73322 135.222 1.73322C135.959 1.73322 136.696 1.85657 137.432 2.09984C138.135 2.03131 138.755 1.99362 139.3 1.99362H140.694C141.044 1.99362 141.359 2.00391 141.64 2.02104C141.921 2.03817 142.202 2.07243 142.483 2.12725C142.764 2.17865 143.079 2.2506 143.429 2.33625C143.778 2.42534 144.199 2.53841 144.689 2.67889L147.002 4.25502C148.297 5.27264 149.168 6.29025 149.606 7.30445C150.045 8.32207 150.264 9.39108 150.264 10.5115C150.264 11.2824 150.237 11.9403 150.185 12.4851C150.134 13.0299 149.949 13.5644 149.634 14.0886C149.318 14.6128 148.828 15.1576 148.16 15.7195C147.492 16.2815 146.546 16.9804 145.32 17.8233C146.125 18.8409 147.036 20.3485 148.054 22.3461C148.685 22.8361 149.949 24.837 151.84 28.3422H151.847ZM145.378 11.5668C145.412 11.4263 145.429 11.2345 145.429 10.9878C145.429 10.6383 145.395 10.2785 145.323 9.90848C145.251 9.54186 145.094 9.1718 144.85 8.80519C144.604 8.43857 144.247 8.06853 143.771 7.70191C143.298 7.3353 142.64 6.97552 141.801 6.62261C141.064 6.34165 140.451 6.20118 139.961 6.20118C139.821 6.23544 139.629 6.27313 139.382 6.30739C139.173 6.37934 138.909 6.43758 138.594 6.49241C138.279 6.5438 137.926 6.60547 137.542 6.67742C137.576 6.88643 137.593 7.08859 137.593 7.28389C137.593 7.47919 137.566 7.83554 137.515 8.3632C137.463 8.88743 137.384 9.64464 137.278 10.6246C137.172 11.6079 137.049 12.9751 136.908 14.7259C137.049 14.7602 137.189 14.7773 137.33 14.7773H137.751C138.416 14.7773 139.163 14.6814 139.985 14.4895C140.807 14.2976 141.589 14.0509 142.325 13.7528C143.062 13.4547 143.709 13.1121 144.271 12.7283C144.833 12.3446 145.2 11.9574 145.375 11.5702L145.378 11.5668Z" fill="#181818"/>
<path d="M178.823 28.3422C178.823 28.9726 178.542 29.5619 177.98 30.1033C177.418 30.6481 176.856 30.9188 176.298 30.9188C176.017 30.9188 175.791 30.8297 175.613 30.655C175.578 30.655 175.421 30.4802 175.14 30.1273C174.859 29.7778 174.526 29.3392 174.139 28.8116C173.752 28.2874 173.331 27.7254 172.878 27.1292C172.423 26.5331 172.001 25.9712 171.617 25.4469C171.23 24.9227 170.925 24.491 170.696 24.1586C170.466 23.8263 170.37 23.6755 170.408 23.7132C170.336 23.5042 170.161 23.1684 169.88 22.7127C169.599 22.257 169.294 21.7739 168.959 21.2668C168.626 20.7597 168.318 20.2868 168.037 19.8483C167.756 19.4097 167.598 19.139 167.564 19.0328C167.492 19.0328 167.3 19.0602 166.985 19.1116C166.67 19.163 166.32 19.2178 165.933 19.2692C165.546 19.3206 165.152 19.3754 164.751 19.4268C164.347 19.4782 164.042 19.5056 163.829 19.5056H163.566C163.459 20.5918 163.374 21.4861 163.302 22.1885C163.23 22.8909 163.196 23.4151 163.196 23.7646V25.3955C163.196 27.2903 163.038 29.3392 162.723 31.5492C162.301 32.1797 161.688 32.4949 160.883 32.4949C160.18 32.4949 159.577 32.3099 159.067 31.9433C158.56 31.5767 158.303 30.9359 158.303 30.0245C158.303 29.7435 158.31 29.4009 158.33 29C158.347 28.5992 158.364 28.1846 158.382 27.7631C158.399 27.3417 158.416 26.9648 158.433 26.6324C158.45 26.3001 158.46 26.0808 158.46 25.9746V25.7108L158.83 17.7685C158.865 17.3128 158.875 16.7509 158.858 16.0862C158.841 15.4214 158.865 14.6505 158.937 13.7734L159.358 10.6177C159.567 9.53156 159.673 8.60302 159.673 7.8321C159.673 7.58883 159.663 7.349 159.646 7.12286C159.629 6.89672 159.601 6.6603 159.567 6.41361L159.725 4.57366C159.759 3.73078 159.917 3.04893 160.197 2.52127C160.478 1.99704 161.143 1.73322 162.195 1.73322C162.932 1.73322 163.668 1.85657 164.405 2.09984C165.107 2.03131 165.728 1.99362 166.272 1.99362H167.667C168.016 1.99362 168.332 2.00391 168.613 2.02104C168.894 2.03817 169.174 2.07243 169.455 2.12725C169.736 2.17865 170.052 2.2506 170.401 2.33625C170.751 2.42534 171.172 2.53841 171.662 2.67889L173.975 4.25502C175.27 5.27264 176.14 6.29025 176.579 7.30445C177.017 8.32207 177.237 9.39108 177.237 10.5115C177.237 11.2824 177.209 11.9403 177.158 12.4851C177.106 13.0299 176.921 13.5644 176.606 14.0886C176.291 14.6128 175.801 15.1576 175.133 15.7195C174.465 16.2815 173.519 16.9804 172.293 17.8233C173.098 18.8409 174.009 20.3485 175.027 22.3461C175.657 22.8361 176.921 24.837 178.813 28.3422H178.823ZM172.354 11.5668C172.388 11.4263 172.406 11.2345 172.406 10.9878C172.406 10.6383 172.371 10.2785 172.299 9.90848C172.227 9.54186 172.07 9.1718 171.826 8.80519C171.58 8.43857 171.223 8.06853 170.747 7.70191C170.274 7.3353 169.616 6.97552 168.777 6.62261C168.04 6.34165 167.427 6.20118 166.937 6.20118C166.797 6.23544 166.605 6.27313 166.358 6.30739C166.149 6.37934 165.885 6.43758 165.57 6.49241C165.255 6.5438 164.902 6.60547 164.518 6.67742C164.552 6.88643 164.569 7.08859 164.569 7.28389C164.569 7.47919 164.542 7.83554 164.491 8.3632C164.439 8.88743 164.361 9.64464 164.254 10.6246C164.148 11.6079 164.025 12.9751 163.884 14.7259C164.025 14.7602 164.165 14.7773 164.306 14.7773H164.727C165.392 14.7773 166.139 14.6814 166.961 14.4895C167.783 14.2976 168.565 14.0509 169.301 13.7528C170.038 13.4547 170.686 13.1121 171.247 12.7283C171.809 12.3446 172.176 11.9574 172.351 11.5702L172.354 11.5668Z" fill="#181818"/>
<path d="M207.536 19.9305C207.08 21.7533 205.782 23.8571 203.644 26.2418C203.363 26.3481 203.003 26.5571 202.564 26.8723C202.126 27.1875 201.564 27.513 200.882 27.8454C200.197 28.1777 199.364 28.4689 198.384 28.7122C197.401 28.9589 196.246 29.0788 194.913 29.0788C192.248 29.0788 190.024 28.3696 188.235 26.9477C186.447 25.5292 185.063 23.2918 184.083 20.2423C184.048 19.999 184.031 19.7523 184.031 19.5056V18.7176C184.031 16.5453 184.257 14.6231 184.717 12.9579C185.172 11.2927 185.786 9.84681 186.557 8.62018C187.327 7.39355 188.215 6.35879 189.212 5.51591C190.212 4.67303 191.254 3.99117 192.34 3.46352C194.129 2.97355 195.88 2.72687 197.6 2.72687C198.826 2.72687 200.036 3.04209 201.228 3.67254C202.42 4.30299 203.479 5.19725 204.411 6.35535C205.34 7.51345 206.093 8.92512 206.673 10.5903C207.252 12.2555 207.574 14.14 207.646 16.2438L207.539 19.9237L207.536 19.9305ZM202.698 19.7729C202.941 18.3373 203.065 17.2134 203.065 16.4082C203.065 15.0754 202.873 13.8488 202.486 12.7284C202.098 11.6079 201.643 10.6349 201.118 9.80911C200.591 8.98678 200.039 8.33578 199.463 7.86295C198.884 7.39011 198.401 7.15369 198.018 7.15369C196.161 7.15369 194.643 7.56485 193.467 8.3906C192.292 9.21634 191.371 10.2066 190.706 11.3612C190.038 12.5194 189.582 13.7288 189.339 14.9897C189.092 16.2506 188.969 17.3231 188.969 18.1968C188.969 19.002 189.099 19.7832 189.363 20.537C189.626 21.2908 190.01 21.9555 190.521 22.5345C191.028 23.1136 191.634 23.5796 192.333 23.9291C193.036 24.2785 193.841 24.4567 194.752 24.4567C196.89 24.4567 198.573 24.0627 199.799 23.2746C201.026 22.4866 201.989 21.3216 202.691 19.7763L202.698 19.7729Z" fill="#181818"/>
<path d="M235.617 28.3422C235.617 28.9726 235.336 29.5619 234.778 30.1033C234.216 30.6481 233.654 30.9188 233.095 30.9188C232.814 30.9188 232.588 30.8297 232.41 30.655C232.376 30.655 232.218 30.4802 231.937 30.1273C231.656 29.7778 231.324 29.3392 230.937 28.8116C230.549 28.2874 230.128 27.7254 229.676 27.1292C229.22 26.5331 228.799 25.9712 228.415 25.4469C228.028 24.9227 227.723 24.491 227.493 24.1586C227.264 23.8263 227.168 23.6755 227.205 23.7132C227.133 23.5042 226.959 23.1684 226.678 22.7127C226.397 22.257 226.092 21.7739 225.756 21.2668C225.424 20.7597 225.115 20.2868 224.834 19.8483C224.553 19.4097 224.396 19.139 224.361 19.0328C224.29 19.0328 224.098 19.0602 223.782 19.1116C223.467 19.163 223.118 19.2178 222.731 19.2692C222.343 19.3206 221.949 19.3754 221.548 19.4268C221.144 19.4782 220.839 19.5056 220.627 19.5056H220.363C220.257 20.5918 220.171 21.4861 220.099 22.1885C220.027 22.8909 219.993 23.4151 219.993 23.7646V25.3955C219.993 27.2903 219.835 29.3392 219.52 31.5492C219.099 32.1797 218.485 32.4949 217.68 32.4949C216.978 32.4949 216.375 32.3099 215.868 31.9433C215.36 31.5767 215.104 30.9359 215.104 30.0245C215.104 29.7435 215.11 29.4009 215.131 29C215.148 28.5992 215.165 28.1846 215.182 27.7631C215.199 27.3417 215.217 26.9648 215.234 26.6324C215.251 26.3001 215.261 26.0808 215.261 25.9746V25.7108L215.631 17.7685C215.665 17.3128 215.676 16.7509 215.659 16.0862C215.641 15.4214 215.665 14.6505 215.737 13.7734L216.159 10.6177C216.368 9.53156 216.474 8.60302 216.474 7.8321C216.474 7.58883 216.464 7.349 216.447 7.12286C216.429 6.89672 216.402 6.6603 216.368 6.41361L216.525 4.57366C216.56 3.73078 216.717 3.04893 216.998 2.52127C217.279 1.99704 217.944 1.73322 218.996 1.73322C219.732 1.73322 220.469 1.85657 221.206 2.09984C221.908 2.03131 222.528 1.99362 223.073 1.99362H224.468C224.817 1.99362 225.132 2.00391 225.413 2.02104C225.694 2.03817 225.975 2.07243 226.256 2.12725C226.537 2.17865 226.852 2.2506 227.202 2.33625C227.551 2.42534 227.973 2.53841 228.463 2.67889L230.776 4.25502C232.071 5.27264 232.941 6.29025 233.38 7.30445C233.818 8.32207 234.037 9.39108 234.037 10.5115C234.037 11.2824 234.01 11.9403 233.959 12.4851C233.907 13.0299 233.722 13.5644 233.407 14.0886C233.092 14.6128 232.602 15.1576 231.934 15.7195C231.266 16.2815 230.32 16.9804 229.093 17.8233C229.898 18.8409 230.81 20.3485 231.827 22.3461C232.458 22.8361 233.722 24.837 235.614 28.3422H235.617ZM229.148 11.5668C229.182 11.4263 229.199 11.2345 229.199 10.9878C229.199 10.6383 229.165 10.2785 229.093 9.90848C229.021 9.54186 228.864 9.1718 228.62 8.80519C228.374 8.43857 228.017 8.06853 227.541 7.70191C227.068 7.3353 226.41 6.97552 225.571 6.62261C224.834 6.34165 224.221 6.20118 223.731 6.20118C223.591 6.23544 223.399 6.27313 223.152 6.30739C222.943 6.37934 222.679 6.43758 222.364 6.49241C222.049 6.5438 221.696 6.60547 221.312 6.67742C221.346 6.88643 221.363 7.08859 221.363 7.28389C221.363 7.47919 221.336 7.83554 221.285 8.3632C221.233 8.88743 221.154 9.64464 221.048 10.6246C220.942 11.6079 220.819 12.9751 220.678 14.7259C220.819 14.7602 220.959 14.7773 221.1 14.7773H221.521C222.186 14.7773 222.933 14.6814 223.755 14.4895C224.577 14.2976 225.358 14.0509 226.095 13.7528C226.832 13.4547 227.479 13.1121 228.041 12.7283C228.603 12.3446 228.97 11.9574 229.145 11.5702L229.148 11.5668Z" fill="#181818"/>
<path d="M19.0856 187.52C19.0137 188.15 18.9349 188.712 18.8492 189.202C18.7601 189.692 18.5957 190.158 18.349 190.597C18.1023 191.035 17.7768 191.491 17.3759 191.964C16.9716 192.437 16.4542 192.971 15.8237 193.567C14.1757 195.109 12.3529 196.003 10.3553 196.25C9.89962 196.425 9.30344 196.627 8.56678 196.853C7.83012 197.083 6.95296 197.336 5.93876 197.617L6.09636 201.037C6.16489 201.527 6.21974 202.02 6.254 202.51C6.28826 203 6.3054 203.545 6.3054 204.141V205.508C6.3054 205.998 6.24372 206.454 6.12037 206.875C5.99702 207.297 5.77089 207.646 5.43853 207.927C5.10618 208.208 4.62307 208.348 3.99262 208.348C3.32449 208.348 2.83451 208.225 2.51928 207.982C2.20406 207.735 1.99506 207.396 1.88885 206.957C1.78263 206.519 1.72094 206.001 1.70381 205.405C1.68668 204.809 1.62499 204.179 1.51878 203.51V203.562C1.48451 203.106 1.44684 202.561 1.41258 201.931C1.37832 201.369 1.34061 200.677 1.30634 199.855C1.27208 199.032 1.21727 198.059 1.14875 196.935V196.62C1.14875 196.411 1.13848 196.13 1.12135 195.777C1.10422 195.428 1.07677 195.058 1.04251 194.674C1.00825 194.29 0.980842 193.948 0.96371 193.649C0.946579 193.351 0.936315 193.149 0.936315 193.043C0.936315 192.834 0.943152 192.457 0.96371 191.912C0.980842 191.371 0.997982 190.782 1.01511 190.151C1.03225 189.521 1.04939 188.914 1.06652 188.339C1.08365 187.76 1.09391 187.314 1.09391 186.999C1.09391 186.437 1.06651 185.93 1.01511 185.474C0.963719 185.019 0.902031 184.597 0.830078 184.213C0.830078 184.145 0.836958 183.915 0.857516 183.528C0.874647 183.144 0.902051 182.713 0.936315 182.24C0.970578 181.767 1.02196 181.294 1.09391 180.821C1.16244 180.348 1.25153 179.954 1.35775 179.639C2.30342 179.183 3.44438 178.954 4.77723 178.954H5.19866C6.70625 178.498 8.10763 178.269 9.40622 178.269C9.89618 178.269 11.2804 178.478 13.5589 178.899L15.8717 180.16C16.5022 180.547 17.0196 180.941 17.4239 181.342C17.8282 181.746 18.1502 182.226 18.3969 182.788C18.6402 183.35 18.8184 184.008 18.9246 184.762C19.0308 185.515 19.0822 186.437 19.0822 187.523L19.0856 187.52ZM14.1414 188.256C14.2477 187.592 14.299 186.995 14.299 186.468C14.299 185.522 13.9119 184.655 13.1409 183.864C12.37 183.076 11.1057 182.682 9.35481 182.682C8.5462 182.682 7.31957 182.963 5.67493 183.525C5.74345 184.189 5.7983 184.988 5.83257 185.916C5.86683 186.845 5.88393 187.924 5.88393 189.151C5.84967 189.223 5.83257 189.572 5.83257 190.203V191.333C5.83257 191.772 5.84967 192.272 5.88393 192.831C6.19915 192.796 6.55892 192.724 6.95981 192.622C7.36411 192.515 7.74103 192.402 8.09051 192.279C8.44 192.156 8.86142 191.991 9.35138 191.779C11.8766 191.182 13.4699 190.007 14.138 188.256H14.1414Z" fill="#181818"/>
<path d="M43.9605 199.197C44.591 199.618 44.9062 200.125 44.9062 200.721C44.9062 201.037 44.8171 201.362 44.6423 201.694C44.4676 202.027 44.238 202.325 43.9571 202.589C43.6761 202.853 43.378 203.072 43.0628 203.247C42.7476 203.421 42.4324 203.51 42.1171 203.51C41.8362 203.404 41.5038 203.223 41.1167 202.959C40.7295 202.695 40.3457 202.397 39.9586 202.065C39.5714 201.732 39.215 201.355 38.8793 200.934C38.5469 200.512 38.2934 200.091 38.1152 199.673L37.7485 200.567C37.0804 201.828 36.032 203.02 34.5929 204.144C32.8386 204.46 31.8244 204.617 31.5435 204.617C30.8753 204.617 30.0701 204.511 29.1245 204.302L26.2326 202.25C24.9717 201.057 24.3379 199.426 24.3379 197.36C24.3379 196.623 24.451 195.808 24.6805 194.914C24.9067 194.019 25.2424 193.118 25.681 192.207C26.1196 191.296 26.6541 190.401 27.2845 189.524C27.915 188.647 28.6516 187.859 29.4945 187.157C30.5121 186.773 31.4921 186.447 32.4377 186.183C33.3834 185.92 34.1029 185.755 34.5929 185.683C35.2576 184.947 36.0491 184.58 36.9605 184.58C37.4847 184.58 37.9507 184.833 38.355 185.344C38.7593 185.851 39.1088 186.492 39.4069 187.263C39.705 188.034 39.9414 188.883 40.1162 189.812C40.2909 190.74 40.4142 191.628 40.4862 192.467L41.1715 195.253C41.3805 196.13 41.7231 196.884 42.196 197.514C42.6688 198.145 43.2547 198.707 43.9571 199.197H43.9605ZM35.9669 193.358C35.8949 193.324 35.6345 192.221 35.1788 190.045H34.3908C34.0413 190.045 33.6301 190.141 33.1539 190.333C32.681 190.525 32.1705 190.86 31.6291 191.333C31.0843 191.806 30.567 192.515 30.077 193.464C29.3403 194.832 28.9737 196.199 28.9737 197.566C29.5699 198.724 30.4984 199.635 31.7593 200.3C32.1431 200.194 32.4686 200.074 32.7324 199.933C32.9963 199.793 33.2327 199.601 33.4417 199.354C33.6507 199.111 33.8528 198.803 34.0481 198.433C34.24 198.066 34.4593 197.6 34.706 197.038C35.1617 196.233 35.4872 195.524 35.6791 194.907C35.8709 194.294 35.9669 193.776 35.9669 193.355V193.358Z" fill="#181818"/>
<path d="M68.3098 187.941C68.4161 188.431 68.4674 189.044 68.4674 189.781C68.4674 190.377 68.4332 191.069 68.3612 191.858C68.2893 192.646 68.1865 193.512 68.046 194.462C68.0803 194.568 68.0974 194.691 68.0974 194.828V195.301C68.0974 195.688 68.07 196.134 68.0186 196.641C67.9672 197.148 67.9055 197.737 67.8336 198.402C67.8678 198.577 67.885 198.751 67.885 198.926V199.556C67.885 200.362 67.8336 201.362 67.7273 202.555C67.6211 203.747 67.4807 205.165 67.3059 206.813C66.8159 210.881 65.1508 213.841 62.3103 215.701C61.2927 216.085 60.2854 216.376 59.2849 216.568C58.2844 216.76 57.277 216.856 56.2594 216.856C54.9265 216.856 52.8399 216.277 50.0029 215.122L47.3749 212.912C46.8507 212.491 46.4875 212.159 46.2956 211.912C46.1037 211.665 46.0078 211.367 46.0078 211.018C46.0078 210.281 46.2168 209.64 46.6382 209.099C47.0597 208.554 47.6182 208.283 48.3206 208.283C48.7763 208.283 49.2834 208.424 49.8453 208.705L52.4733 210.915C53.7342 211.758 55.1561 212.193 56.7322 212.231C56.907 212.265 57.1331 212.237 57.4175 212.152C57.6985 212.063 58.0308 211.967 58.418 211.864L60.1517 211.391C61.4126 210.586 62.2384 209.095 62.6221 206.92C62.6564 206.604 62.6906 206.217 62.7283 205.762C62.7969 204.919 62.9031 203.73 63.0436 202.184C62.9031 202.256 62.5879 202.387 62.0979 202.578C61.6079 202.77 61.0014 202.983 60.2819 203.209C59.5624 203.438 58.7401 203.637 57.8115 203.815C56.883 203.99 55.9099 204.079 54.8923 204.079C54.7175 204.079 54.5325 204.035 54.3407 203.949C54.1488 203.863 53.8952 203.713 53.5766 203.504C53.2614 203.295 52.8844 203.014 52.4459 202.661C52.0073 202.311 51.4728 201.856 50.8424 201.294L49.5815 198.926C49.2662 198.33 49.047 197.727 48.9236 197.113C48.8003 196.5 48.7386 195.897 48.7386 195.301C48.7386 194.321 49.1155 193.327 49.8693 192.33C50.6231 191.33 51.5687 190.429 52.7097 189.624C53.8473 188.818 55.0842 188.16 56.417 187.65C57.7499 187.143 58.9765 186.886 60.0969 186.886C60.6246 186.886 61.1385 186.92 61.649 186.992C62.1561 187.064 62.9374 187.256 63.9892 187.571L64.2531 186.941C64.7088 186.625 65.2707 186.468 65.9354 186.468C67.2682 186.468 68.0563 186.958 68.303 187.941H68.3098ZM63.3143 192.358C62.9648 192.114 62.5707 191.936 62.1321 191.833C61.6936 191.727 61.2653 191.624 60.8438 191.518C60.3881 191.59 59.8605 191.686 59.2677 191.806C58.6715 191.929 58.0069 192.077 57.2702 192.251C54.9574 193.584 53.7993 194.794 53.7993 195.88C53.7993 196.476 54.0083 197.062 54.4297 197.641C54.8512 198.22 55.4474 198.806 56.2183 199.402C56.7459 199.368 57.3044 199.306 57.9006 199.217C58.4968 199.132 59.093 198.981 59.6892 198.772C60.2853 198.563 60.8644 198.254 61.4229 197.85C61.9848 197.446 62.5262 196.894 63.0539 196.195C63.1224 195.599 63.184 195.037 63.2388 194.513C63.2902 193.985 63.3176 193.478 63.3176 192.988V192.358H63.3143Z" fill="#181818"/>
<path d="M94.3402 203.298C93.2164 204.422 91.9555 205.374 90.5541 206.162C89.1528 206.951 87.7308 207.345 86.2952 207.345C84.9966 207.345 83.3314 207.136 81.2996 206.714C80.5972 206.258 79.8982 205.707 79.1958 205.059C78.4934 204.412 77.8629 203.692 77.301 202.904C76.7391 202.116 76.2834 201.256 75.9339 200.327C75.5844 199.399 75.4062 198.443 75.4062 197.463C75.4062 197.182 75.4234 196.805 75.4577 196.332C75.4919 195.859 75.5365 195.387 75.5879 194.914C75.6393 194.441 75.7009 193.855 75.7729 193.153C76.4753 192.032 77.2188 190.919 78.0068 189.812C78.7949 188.709 79.9084 187.736 81.3475 186.893C83.626 186.403 85.2741 186.156 86.2917 186.156C86.8194 186.156 87.2717 186.183 87.6588 186.235C88.0426 186.286 88.4195 186.392 88.7896 186.55C89.1562 186.708 89.5262 186.944 89.8928 187.259C90.2594 187.575 90.6912 187.979 91.1811 188.469C91.7396 189.065 92.1885 189.469 92.5208 189.678C92.8532 189.887 93.0211 190.083 93.0211 190.257C93.0211 193.485 92.0206 195.674 90.023 196.833C89.1459 197.148 88.0083 197.49 86.6035 197.857C85.2022 198.224 83.2903 198.566 80.8713 198.881C81.3613 200.214 82.0088 201.215 82.8174 201.88C83.6226 202.544 84.534 202.88 85.5516 202.88C87.0592 202.88 88.9506 201.986 91.2325 200.197C91.582 199.882 92.0206 199.724 92.5482 199.724C93.1102 199.724 93.607 199.933 94.0455 200.355C94.4841 200.776 94.7034 201.3 94.7034 201.931C94.7034 202.387 94.58 202.842 94.3368 203.298H94.3402ZM88.3989 192.042C87.7308 190.956 86.9427 190.412 86.0313 190.412C85.6442 190.412 85.2262 190.463 84.7705 190.569C84.3148 190.675 83.8488 190.823 83.3759 191.015C82.9031 191.206 82.4645 191.443 82.0602 191.724C81.6559 192.005 81.3338 192.337 81.0871 192.724L80.5595 194.3C81.7518 194.194 82.8037 194.109 83.7151 194.037C84.6265 193.968 85.4146 193.862 86.0827 193.721C86.7474 193.581 87.2751 193.389 87.6588 193.142C88.0426 192.899 88.2893 192.529 88.3955 192.039L88.3989 192.042Z" fill="#181818"/>
<path d="M146.875 193.622V194.989C146.875 196.356 146.824 197.689 146.718 198.984V199.721C146.718 200.108 146.683 200.536 146.611 201.009C146.539 201.482 146.426 201.938 146.269 202.376C146.111 202.815 145.882 203.182 145.583 203.48C145.285 203.778 144.926 203.925 144.504 203.925C143.521 203.925 142.698 203.593 142.034 202.925C142.034 202.328 140.773 200.506 138.248 197.456C138.073 197.035 137.765 196.483 137.326 195.801C136.887 195.116 136.336 194.304 135.671 193.355C135.496 193.214 135.226 192.882 134.856 192.354C134.489 191.83 134.119 191.275 133.752 190.699C133.382 190.12 133.067 189.603 132.807 189.147C132.543 188.692 132.43 188.483 132.464 188.517C132.183 188.236 131.851 187.842 131.463 187.335C131.076 186.828 130.603 186.187 130.045 185.416C130.045 187.273 129.956 188.342 129.781 188.623C129.747 189.01 129.702 189.51 129.651 190.12C129.6 190.734 129.545 191.364 129.493 192.015C129.442 192.663 129.397 193.297 129.363 193.91C129.329 194.523 129.291 195.006 129.257 195.356V195.565C129.257 195.846 129.195 196.274 129.072 196.853C128.949 197.432 128.808 198.018 128.65 198.614C128.493 199.21 128.342 199.755 128.205 200.245C128.065 200.735 127.996 201.016 127.996 201.088C127.468 202.246 126.646 202.822 125.526 202.822C124.405 202.822 123.703 202.102 123.422 200.667C123.665 199.265 124.035 196.952 124.525 193.725C124.559 193.094 124.621 192.269 124.71 191.254C124.796 190.237 124.929 188.993 125.104 187.52C125.173 187.17 125.245 186.591 125.313 185.783C125.382 184.977 125.461 184.128 125.55 183.233C125.635 182.339 125.735 181.489 125.837 180.684C125.944 179.879 126.046 179.3 126.153 178.95C126.924 177.971 127.993 177.477 129.36 177.477C129.534 177.549 129.771 177.741 130.069 178.056C130.367 178.371 130.693 178.748 131.042 179.187C131.392 179.625 131.762 180.098 132.145 180.605C132.529 181.112 132.882 181.63 133.197 182.157C133.581 182.613 134.098 183.254 134.749 184.076C135.397 184.902 136.134 185.848 136.959 186.917C137.782 187.986 138.642 189.151 139.536 190.415C140.43 191.676 141.297 192.992 142.14 194.359V192.94C142.14 191.645 142.089 190.696 141.982 190.1C142.051 189.891 142.089 189.661 142.089 189.415C142.089 189.346 142.061 189.127 142.01 188.757C141.958 188.39 141.904 187.969 141.852 187.496C141.801 187.023 141.746 186.557 141.695 186.101C141.643 185.646 141.616 185.296 141.616 185.049C141.616 184.981 141.623 184.919 141.643 184.864C141.66 184.813 141.671 184.751 141.671 184.679C141.564 183.137 141.462 181.849 141.355 180.814C141.249 179.78 141.126 178.981 140.989 178.423C141.372 176.668 142.147 175.795 143.302 175.795C144.456 175.795 145.299 176.374 145.827 177.529C145.895 178.755 146.001 180.157 146.142 181.736C146.282 183.312 146.474 185.066 146.721 186.995L146.879 193.622H146.875Z" fill="#181818"/>
<path d="M168.697 204.086C168.241 204.401 167.505 204.71 166.487 205.008C165.469 205.306 164.417 205.559 163.331 205.772L161.176 205.35C160.861 205.244 160.343 205.001 159.624 204.614C158.904 204.23 158.178 203.641 157.441 202.853C156.705 202.064 156.057 201.047 155.495 199.803C154.933 198.559 154.652 197.041 154.652 195.253C154.652 194.622 154.8 193.879 155.098 193.019C155.396 192.159 155.841 191.354 156.437 190.6C157.034 189.846 157.777 189.205 158.671 188.681C159.566 188.157 160.607 187.893 161.8 187.893C164.184 187.893 166.34 188.664 168.269 190.206C169.951 192.519 170.794 195.078 170.794 197.884C170.794 199.954 170.091 202.02 168.69 204.089L168.697 204.086ZM166.12 196.62C165.946 195.253 165.517 194.174 164.832 193.386C164.147 192.598 163.28 192.203 162.228 192.203C161.526 192.203 160.868 192.546 160.254 193.228C159.641 193.913 159.333 194.903 159.333 196.199C159.333 196.726 159.401 197.278 159.542 197.854C159.682 198.433 159.908 198.957 160.227 199.43C160.542 199.902 160.947 200.29 161.436 200.588C161.926 200.886 162.523 201.033 163.225 201.033C164.345 201.033 165.12 200.691 165.538 200.009C165.959 199.323 166.168 198.474 166.168 197.459C166.168 197.319 166.158 197.189 166.141 197.065C166.124 196.942 166.113 196.795 166.113 196.62H166.12Z" fill="#181818"/>
<path d="M190.416 185.577C190.8 185.892 190.995 186.471 190.995 187.311C190.995 188.853 190.416 189.623 189.258 189.623H189.049C188.521 189.658 187.908 189.702 187.209 189.754C186.507 189.805 185.719 189.884 184.841 189.99C184.77 190.552 184.701 191.296 184.632 192.224C184.56 193.153 184.526 194.266 184.526 195.565C184.526 195.671 184.533 195.774 184.554 195.88C184.571 195.986 184.581 196.11 184.581 196.247V198.666C184.581 199.228 184.677 199.673 184.869 200.005C185.061 200.338 185.297 200.574 185.578 200.715L187.051 201.187C188.21 201.575 188.789 202.274 188.789 203.291C188.789 203.887 188.552 204.415 188.079 204.867C187.607 205.323 187 205.553 186.263 205.553C186.054 205.553 185.695 205.491 185.184 205.368C184.677 205.244 184.149 205.08 183.608 204.867C183.063 204.658 182.556 204.394 182.083 204.079C181.61 203.764 181.285 203.415 181.11 203.027C180.723 202.222 180.408 201.372 180.165 200.478C179.918 199.584 179.798 198.645 179.798 197.665C179.798 196.579 179.815 195.808 179.849 195.352C179.884 194.897 179.918 194.492 179.956 194.143C179.99 193.793 180.024 193.372 180.062 192.882C180.096 192.392 180.113 191.587 180.113 190.463C179.445 190.535 178.465 190.744 177.167 191.093C176.396 191.093 175.738 190.891 175.196 190.487C174.652 190.086 174.381 189.548 174.381 188.883C174.381 188.393 174.528 187.938 174.826 187.516C175.124 187.095 175.748 186.728 176.694 186.413C177.009 186.307 177.297 186.238 177.561 186.204C177.824 186.17 178.088 186.135 178.349 186.098C178.612 186.064 178.9 186.036 179.215 186.019C179.531 186.002 179.918 185.957 180.374 185.889C180.408 185.012 180.469 184.021 180.559 182.918C180.644 181.815 180.802 180.787 181.031 179.841C181.257 178.896 181.593 178.097 182.032 177.45C182.47 176.802 183.056 176.477 183.793 176.477C185.054 176.477 185.825 177.056 186.106 178.21C186.106 178.245 186.061 178.481 185.976 178.92C185.887 179.358 185.791 179.841 185.688 180.366C185.582 180.89 185.486 181.4 185.4 181.89C185.311 182.38 185.27 182.699 185.27 182.836L185.112 185.413C185.355 185.378 185.585 185.351 185.797 185.334C186.006 185.317 186.236 185.306 186.483 185.306H186.956C187.199 185.306 187.428 185.299 187.641 185.279C187.85 185.262 188.045 185.251 188.22 185.251C189.272 185.251 190.008 185.358 190.43 185.567L190.416 185.577Z" fill="#181818"/>
<path d="M238.64 180.42C238.746 180.701 238.798 181.017 238.798 181.366C238.798 181.996 238.63 182.637 238.298 183.285C237.965 183.932 237.516 184.258 236.958 184.258C236.852 184.258 236.608 184.207 236.221 184.1C235.834 183.994 235.406 183.874 234.933 183.734C234.46 183.593 233.987 183.47 233.514 183.367C233.042 183.261 232.665 183.209 232.384 183.209H231.962C230.838 182.928 229.763 182.737 228.728 182.63C227.693 182.524 226.703 182.473 225.757 182.473C225.476 182.473 225.267 182.586 225.127 182.815C224.986 183.045 224.88 183.316 224.811 183.631C224.739 183.946 224.705 184.278 224.705 184.631V185.892C224.705 186.101 224.695 186.42 224.678 186.838C224.661 187.259 224.633 187.681 224.599 188.099C224.565 188.52 224.537 188.897 224.52 189.23C224.503 189.562 224.493 189.781 224.493 189.887L228.385 189.781C228.419 189.781 228.639 189.764 229.043 189.73C229.444 189.695 229.927 189.651 230.489 189.6C231.051 189.548 231.62 189.504 232.199 189.469C232.778 189.435 233.24 189.418 233.593 189.418C234.33 189.418 234.871 189.654 235.224 190.127C235.574 190.6 235.752 191.152 235.752 191.782C235.752 192.413 235.639 192.885 235.409 193.201C235.18 193.516 234.806 193.745 234.278 193.886C233.751 194.026 233.042 194.133 232.147 194.201C231.253 194.273 230.139 194.376 228.807 194.516H226.388C225.863 194.516 225.264 194.533 224.599 194.568L224.705 199.772C224.671 200.053 224.654 200.317 224.654 200.56V201.348C224.654 202.788 224.829 203.908 225.181 204.713C225.075 206.361 224.321 207.184 222.92 207.184C222.183 207.184 221.615 206.93 221.21 206.419C220.806 205.912 220.508 205.368 220.316 204.789C220.124 204.209 220.008 203.692 219.973 203.236C219.939 202.781 219.922 202.623 219.922 202.764C219.782 202.027 219.675 201.29 219.607 200.554C219.535 199.817 219.501 199.08 219.501 198.344C219.501 197.816 219.507 197.257 219.528 196.661C219.545 196.065 219.555 195.417 219.555 194.715V192.032C219.555 191.087 219.521 190.069 219.449 188.983C219.555 183.864 220.148 180.27 221.238 178.204C221.447 177.923 222.255 177.782 223.657 177.782C226.357 177.782 227.707 177.799 227.707 177.834H227.864C228.354 177.834 229.721 178.08 231.966 178.57C235.087 178.604 237.311 179.218 238.644 180.41L238.64 180.42Z" fill="#181818"/>
<path d="M257.464 204.086C257.009 204.401 256.272 204.71 255.255 205.008C254.237 205.306 253.185 205.559 252.099 205.772L249.944 205.35C249.628 205.244 249.111 205.001 248.392 204.614C247.672 204.23 246.946 203.641 246.209 202.853C245.472 202.064 244.825 201.047 244.263 199.803C243.701 198.559 243.42 197.041 243.42 195.253C243.42 194.622 243.567 193.879 243.865 193.019C244.163 192.159 244.609 191.354 245.205 190.6C245.801 189.846 246.545 189.205 247.439 188.681C248.333 188.157 249.375 187.893 250.567 187.893C252.952 187.893 255.107 188.664 257.036 190.206C258.719 192.519 259.561 195.078 259.561 197.884C259.561 199.954 258.859 202.02 257.458 204.089L257.464 204.086ZM254.888 196.62C254.713 195.253 254.285 194.174 253.6 193.386C252.914 192.598 252.047 192.203 250.996 192.203C250.293 192.203 249.635 192.546 249.022 193.228C248.409 193.913 248.1 194.903 248.1 196.199C248.1 196.726 248.169 197.278 248.309 197.854C248.45 198.433 248.676 198.957 248.995 199.43C249.31 199.902 249.714 200.29 250.204 200.588C250.694 200.886 251.29 201.033 251.993 201.033C253.113 201.033 253.887 200.691 254.305 200.009C254.727 199.323 254.936 198.474 254.936 197.459C254.936 197.319 254.926 197.189 254.908 197.065C254.891 196.942 254.881 196.795 254.881 196.62H254.888Z" fill="#181818"/>
<path d="M284.128 186.523C284.196 186.944 284.234 187.366 284.234 187.784V188.993C284.234 190.607 284.059 192.06 283.706 193.358C283.566 194.235 283.46 195.136 283.391 196.065C283.319 196.994 283.251 197.967 283.182 198.984C283.182 199.056 283.227 199.43 283.312 200.115C283.398 200.8 283.442 201.808 283.442 203.14C283.442 203.737 283.206 204.185 282.733 204.48C282.26 204.778 281.709 204.926 281.078 204.926C280.307 204.926 279.763 204.761 279.447 204.425C279.132 204.093 278.94 203.295 278.868 202.034C278.272 202.596 277.693 203.024 277.135 203.322C276.573 203.62 276.038 203.839 275.531 203.98C275.024 204.12 274.548 204.209 274.113 204.244C273.674 204.278 273.263 204.295 272.876 204.295C270.878 204.295 269.37 203.699 268.353 202.507C267.335 201.314 266.828 199.666 266.828 197.562V196.798C266.828 196.534 266.845 196.23 266.879 195.877C266.845 195.808 266.828 195.65 266.828 195.404C266.828 195.02 266.835 194.623 266.856 194.222C266.873 193.817 266.934 193.321 267.041 192.724C267.147 192.128 267.311 191.385 267.541 190.49C267.767 189.596 268.092 188.448 268.514 187.047C268.97 186.485 269.583 186.204 270.354 186.204C270.95 186.204 271.467 186.362 271.906 186.677C272.345 186.992 272.564 187.485 272.564 188.15C272.564 188.325 272.512 188.674 272.406 189.202C272.3 189.73 272.177 190.305 272.04 190.936C271.899 191.566 271.776 192.197 271.67 192.831C271.563 193.461 271.512 193.954 271.512 194.304V194.568C271.44 194.955 271.389 195.332 271.354 195.698C271.32 196.065 271.303 196.408 271.303 196.723C271.303 197.634 271.433 198.388 271.697 198.984C271.961 199.58 272.53 199.879 273.407 199.879C274.037 199.879 274.633 199.731 275.195 199.433C275.757 199.135 276.275 198.768 276.747 198.33C277.22 197.891 277.631 197.418 277.984 196.911C278.334 196.404 278.598 195.921 278.772 195.465C278.947 194.17 279.262 192.467 279.718 190.364V189.836C279.718 189.24 279.745 188.661 279.797 188.099C279.848 187.537 279.954 187.04 280.112 186.601C280.27 186.163 280.506 185.813 280.821 185.55C281.137 185.286 281.575 185.156 282.137 185.156C283.189 185.156 283.854 185.611 284.135 186.523H284.128Z" fill="#181818"/>
<path d="M309.055 199.563V199.985C309.055 200.194 309.061 200.571 309.082 201.115C309.099 201.66 309.048 202.212 308.924 202.77C308.801 203.332 308.565 203.833 308.215 204.268C307.866 204.706 307.338 204.926 306.639 204.926C305.272 204.926 304.467 204.381 304.22 203.295C304.254 203.086 304.271 202.849 304.271 202.585V200.166C304.271 199.272 304.244 198.299 304.193 197.247C304.141 196.195 304.025 195.205 303.85 194.276C303.675 193.348 303.411 192.762 303.062 192.515C302.257 191.953 301.537 191.672 300.907 191.672C300.064 191.672 299.355 191.926 298.776 192.437C298.196 192.944 297.713 193.934 297.33 195.407C297.295 195.897 297.258 196.452 297.223 197.062C297.189 197.675 297.134 198.368 297.066 199.138C297.066 199.735 297.083 200.392 297.117 201.112C297.151 201.832 297.203 202.647 297.275 203.558C297.275 204.227 297.011 204.778 296.487 205.213C295.959 205.652 295.363 205.871 294.698 205.871C294.171 205.871 293.752 205.731 293.437 205.45C293.122 205.169 292.886 204.802 292.728 204.346C292.57 203.891 292.464 203.401 292.413 202.873C292.361 202.349 292.334 201.821 292.334 201.297C292.334 200.913 292.351 200.516 292.385 200.115C292.42 199.711 292.471 199.299 292.543 198.878L292.964 193.831L293.386 191.306C293.314 190.884 293.177 190.429 292.964 189.939C292.755 189.449 292.649 189.062 292.649 188.781C292.649 188.184 292.886 187.643 293.358 187.15C293.831 186.66 294.417 186.413 295.12 186.413C295.61 186.413 295.98 186.509 296.223 186.701C296.466 186.893 296.871 187.359 297.432 188.095C298.131 187.78 298.693 187.578 299.115 187.492C299.536 187.407 300.026 187.362 300.588 187.362C302.411 187.362 304.014 187.79 305.399 188.65C306.783 189.51 307.65 190.939 308.003 192.937C308.109 193.673 308.205 194.287 308.29 194.777C308.376 195.267 308.455 195.743 308.527 196.195C308.595 196.651 308.667 197.134 308.736 197.641C308.804 198.148 308.911 198.789 309.051 199.56L309.055 199.563Z" fill="#181818"/>
<path d="M334.139 179.687C334.032 180.002 333.981 180.616 333.981 181.527C333.981 182.051 333.988 182.719 334.009 183.525C334.026 184.33 334.036 184.998 334.036 185.522V186.838C334.036 187.225 334.002 187.54 333.93 187.784C333.964 187.924 333.981 188.082 333.981 188.256V188.835C333.981 189.325 333.947 189.949 333.875 190.703C333.803 191.457 333.769 191.974 333.769 192.255C333.769 192.327 333.775 192.385 333.796 192.44C333.813 192.491 333.823 192.553 333.823 192.625C333.508 194.52 333.306 196.226 333.217 197.751C333.128 199.275 333.008 200.581 332.85 201.667C332.693 202.753 332.429 203.586 332.062 204.165C331.692 204.744 331.072 205.032 330.195 205.032C329.458 205.032 328.811 204.857 328.249 204.504V204.137C327.197 204.593 325.796 204.823 324.041 204.823C322.883 204.823 321.824 204.614 320.858 204.192C319.892 203.771 319.063 203.185 318.36 202.431C317.658 201.677 317.117 200.793 316.729 199.776C316.342 198.758 316.15 197.655 316.15 196.462C316.15 195.798 316.229 195.14 316.387 194.489C316.544 193.841 316.747 193.228 316.993 192.649C317.237 192.07 317.511 191.546 317.809 191.073C318.107 190.6 318.395 190.206 318.676 189.891C319.378 189.12 320.392 188.417 321.725 187.787C323.058 187.157 324.476 186.841 325.984 186.841C327.002 186.841 328.036 187.033 329.088 187.42C329.088 186.896 329.116 186.262 329.167 185.526C329.218 184.789 329.28 183.932 329.352 182.949L329.143 179.372C329.143 179.197 329.133 179.046 329.116 178.926C329.099 178.803 329.088 178.673 329.088 178.532C329.088 177.374 329.236 176.501 329.534 175.904C329.832 175.308 330.435 175.01 331.346 175.01C331.908 175.01 332.354 175.082 332.686 175.219C333.018 175.36 333.282 175.596 333.474 175.928C333.666 176.261 333.799 176.734 333.868 177.347C333.937 177.96 334.026 178.741 334.132 179.687H334.139ZM328.722 192.255C328.019 191.765 327.163 191.518 326.145 191.518C325.408 191.518 324.785 191.57 324.278 191.676C323.771 191.782 323.339 191.964 322.989 192.227C322.64 192.491 322.342 192.841 322.095 193.279C321.848 193.718 321.605 194.252 321.358 194.883C321.149 195.479 321.043 196.041 321.043 196.565C321.043 197.689 321.437 198.563 322.225 199.193C323.013 199.824 323.969 200.139 325.09 200.139C326.07 200.139 327.019 199.789 327.93 199.087C328.245 197.651 328.465 196.641 328.588 196.062C328.711 195.482 328.773 194.982 328.773 194.564C328.773 194.18 328.756 193.821 328.722 193.485C328.687 193.153 328.67 192.861 328.67 192.618C328.67 192.55 328.677 192.488 328.698 192.433C328.715 192.382 328.725 192.32 328.725 192.248L328.722 192.255Z" fill="#181818"/>
<path d="M79.5139 152.612V137.519H33.0254V118.65L56.2697 58.2747H109.703V111.558H119.513V137.519H109.703V152.612H79.5139ZM78.003 80.9125L64.5683 111.554H79.5105V80.9125H77.9995H78.003Z" fill="#E41C34"/>
<path d="M133.772 142.271C130.904 137.893 128.917 132.839 127.81 127.103C126.7 121.367 126.148 114.148 126.148 105.442C126.148 96.7354 126.7 89.5161 127.81 83.7804C128.917 78.0447 130.904 72.9874 133.772 68.612C136.64 64.2331 140.765 61.0398 146.148 59.0285C151.531 57.0172 158.349 56.0099 166.6 56.0099C174.85 56.0099 181.641 57.0172 186.976 59.0285C192.308 61.0432 196.433 64.2365 199.352 68.612C202.268 72.9908 204.259 78.0447 205.314 83.7804C206.369 89.5161 206.9 96.7628 206.9 105.517C206.9 114.271 206.373 121.494 205.314 127.178C204.259 132.866 202.268 137.896 199.352 142.271C196.433 146.65 192.308 149.844 186.976 151.855C181.641 153.866 174.85 154.873 166.6 154.873C158.349 154.873 151.531 153.866 146.148 151.855C140.765 149.844 136.64 146.647 133.772 142.271ZM157.246 88.31V130.574H163.585C168.114 130.574 171.284 130.098 173.093 129.142C174.905 128.186 175.81 125.996 175.81 122.577V80.3129H168.714C164.284 80.3129 161.265 80.7652 159.658 81.6697C158.048 82.5743 157.242 84.7911 157.242 88.31H157.246Z" fill="#E41C34"/>
<path d="M260.641 152.612V137.519H214.152V118.65L237.397 58.2747H290.83V111.558H300.64V137.519H290.83V152.612H260.641ZM259.13 80.9125L245.695 111.554H260.637V80.9125H259.126H259.13Z" fill="#E41C34"/>
</svg>
