<svg width="550" height="410" viewBox="0 0 550 410" fill="none" xmlns="http://www.w3.org/2000/svg">
<g clip-path="url(#clip0_91_1078)">
<path d="M550 360.308H0V360.583H550V360.308Z" fill="#EBEBEB"/>
<path d="M494.89 378.013H458.458V378.288H494.89V378.013Z" fill="#EBEBEB"/>
<path d="M364.342 381.006H354.783V381.281H364.342V381.006Z" fill="#EBEBEB"/>
<path d="M457.358 367.802H436.249V368.077H457.358V367.802Z" fill="#EBEBEB"/>
<path d="M105.215 369.65H57.7061V369.925H105.215V369.65Z" fill="#EBEBEB"/>
<path d="M121.979 369.65H115.016V369.925H121.979V369.65Z" fill="#EBEBEB"/>
<path d="M247.665 374.294H144.617V374.569H247.665V374.294Z" fill="#EBEBEB"/>
<path d="M260.711 311.233H48.3005C44.8355 311.233 42.0195 308.416 42.0195 304.95V6.28298C42.0195 2.81689 44.8355 0 48.3005 0H260.711C264.176 0 266.992 2.81689 266.992 6.28298V304.95C266.992 308.416 264.176 311.233 260.711 311.233ZM48.3005 0.275087C44.9895 0.275087 42.2945 2.97093 42.2945 6.28298V304.95C42.2945 308.262 44.9895 310.958 48.3005 310.958H260.711C264.022 310.958 266.717 308.262 266.717 304.95V6.28298C266.717 2.97093 264.022 0.275087 260.711 0.275087H48.3005Z" fill="#EBEBEB"/>
<path d="M498.641 311.233H286.231C282.766 311.233 279.95 308.416 279.95 304.95V6.28298C279.95 2.81689 282.766 0 286.231 0H498.641C502.106 0 504.922 2.81689 504.922 6.28298V304.95C504.922 308.416 502.106 311.233 498.641 311.233ZM286.231 0.275087C282.92 0.275087 280.225 2.97093 280.225 6.28298V304.95C280.225 308.262 282.92 310.958 286.231 310.958H498.641C501.952 310.958 504.647 308.262 504.647 304.95V6.28298C504.647 2.97093 501.952 0.275087 498.641 0.275087H286.231Z" fill="#EBEBEB"/>
<path d="M489.962 68.4635H223.454V325.438H489.962V68.4635Z" fill="#E0E0E0"/>
<path d="M489.962 73.129H227.733V320.949H489.962V73.129Z" fill="#F5F5F5"/>
<path d="M229.669 260.936V186.399H237.402V176.551L254.826 168.397V158.329H257.73V186.399H260.634V260.936H264.506V222.215H273.218V201.892H276.122V260.936H282.887V238.676H287.727V232.866H298.375V212.532H304.183V198.987H310.959V178.652H313.863V198.987H320.639V212.532H326.436V232.866H337.084V238.676H341.924V260.936H347.732V232.866H358.38V170.906H361.284V164.128H384.505V170.906H389.345V215.437H408.705V220.278H415.47V223.183H408.705V240.613H429.022V182.525H432.894V170.906H442.574V126.375H445.478V170.906H452.254V182.525H489.962V320.96H227.733V260.936H229.669Z" fill="#E6E6E6"/>
<path d="M469.81 185.562H467.071V188.302H469.81V185.562Z" fill="#F0F0F0"/>
<path d="M469.81 190.162H467.071V192.902H469.81V190.162Z" fill="#F0F0F0"/>
<path d="M469.81 208.549H467.071V211.289H469.81V208.549Z" fill="#F0F0F0"/>
<path d="M469.81 213.148H467.071V215.888H469.81V213.148Z" fill="#F0F0F0"/>
<path d="M469.81 217.748H467.071V220.487H469.81V217.748Z" fill="#F0F0F0"/>
<path d="M469.81 231.546H467.071V234.286H469.81V231.546Z" fill="#F0F0F0"/>
<path d="M469.81 236.145H467.071V238.885H469.81V236.145Z" fill="#F0F0F0"/>
<path d="M465.454 203.949H462.715V206.689H465.454V203.949Z" fill="#F0F0F0"/>
<path d="M465.454 208.549H462.715V211.289H465.454V208.549Z" fill="#F0F0F0"/>
<path d="M465.454 213.148H462.715V215.888H465.454V213.148Z" fill="#F0F0F0"/>
<path d="M465.454 217.748H462.715V220.487H465.454V217.748Z" fill="#F0F0F0"/>
<path d="M465.454 222.347H462.715V225.087H465.454V222.347Z" fill="#F0F0F0"/>
<path d="M465.454 231.546H462.715V234.286H465.454V231.546Z" fill="#F0F0F0"/>
<path d="M465.454 236.145H462.715V238.885H465.454V236.145Z" fill="#F0F0F0"/>
<path d="M461.098 185.562H458.359V188.302H461.098V185.562Z" fill="#F0F0F0"/>
<path d="M461.098 190.162H458.359V192.902H461.098V190.162Z" fill="#F0F0F0"/>
<path d="M461.098 194.761H458.359V197.501H461.098V194.761Z" fill="#F0F0F0"/>
<path d="M461.098 199.361H458.359V202.101H461.098V199.361Z" fill="#F0F0F0"/>
<path d="M461.098 203.949H458.359V206.689H461.098V203.949Z" fill="#F0F0F0"/>
<path d="M461.098 208.549H458.359V211.289H461.098V208.549Z" fill="#F0F0F0"/>
<path d="M461.098 213.148H458.359V215.888H461.098V213.148Z" fill="#F0F0F0"/>
<path d="M461.098 217.748H458.359V220.487H461.098V217.748Z" fill="#F0F0F0"/>
<path d="M461.098 222.347H458.359V225.087H461.098V222.347Z" fill="#F0F0F0"/>
<path d="M461.098 226.946H458.359V229.686H461.098V226.946Z" fill="#F0F0F0"/>
<path d="M461.098 236.145H458.359V238.885H461.098V236.145Z" fill="#F0F0F0"/>
<path d="M456.742 185.562H454.003V188.302H456.742V185.562Z" fill="#F0F0F0"/>
<path d="M456.742 190.162H454.003V192.902H456.742V190.162Z" fill="#F0F0F0"/>
<path d="M456.742 194.761H454.003V197.501H456.742V194.761Z" fill="#F0F0F0"/>
<path d="M456.742 199.361H454.003V202.101H456.742V199.361Z" fill="#F0F0F0"/>
<path d="M456.742 203.949H454.003V206.689H456.742V203.949Z" fill="#F0F0F0"/>
<path d="M456.742 208.549H454.003V211.289H456.742V208.549Z" fill="#F0F0F0"/>
<path d="M456.742 213.148H454.003V215.888H456.742V213.148Z" fill="#F0F0F0"/>
<path d="M456.742 254.532H454.003V257.272H456.742V254.532Z" fill="#F0F0F0"/>
<path d="M452.386 185.562H449.647V188.302H452.386V185.562Z" fill="#F0F0F0"/>
<path d="M452.386 190.162H449.647V192.902H452.386V190.162Z" fill="#F0F0F0"/>
<path d="M452.386 194.761H449.647V197.501H452.386V194.761Z" fill="#F0F0F0"/>
<path d="M452.386 199.361H449.647V202.101H452.386V199.361Z" fill="#F0F0F0"/>
<path d="M452.386 203.949H449.647V206.689H452.386V203.949Z" fill="#F0F0F0"/>
<path d="M452.386 208.549H449.647V211.289H452.386V208.549Z" fill="#F0F0F0"/>
<path d="M452.386 213.148H449.647V215.888H452.386V213.148Z" fill="#F0F0F0"/>
<path d="M452.386 217.748H449.647V220.487H452.386V217.748Z" fill="#F0F0F0"/>
<path d="M452.386 245.344H449.647V248.084H452.386V245.344Z" fill="#F0F0F0"/>
<path d="M452.386 249.933H449.647V252.672H452.386V249.933Z" fill="#F0F0F0"/>
<path d="M452.386 254.532H449.647V257.272H452.386V254.532Z" fill="#F0F0F0"/>
<path d="M452.386 259.132H449.647V261.871H452.386V259.132Z" fill="#F0F0F0"/>
<path d="M452.386 277.529H449.647V280.269H452.386V277.529Z" fill="#F0F0F0"/>
<path d="M448.03 185.562H445.291V188.302H448.03V185.562Z" fill="#F0F0F0"/>
<path d="M448.03 190.162H445.291V192.902H448.03V190.162Z" fill="#F0F0F0"/>
<path d="M448.03 194.761H445.291V197.501H448.03V194.761Z" fill="#F0F0F0"/>
<path d="M448.03 199.361H445.291V202.101H448.03V199.361Z" fill="#F0F0F0"/>
<path d="M448.03 203.949H445.291V206.689H448.03V203.949Z" fill="#F0F0F0"/>
<path d="M448.03 208.549H445.291V211.289H448.03V208.549Z" fill="#F0F0F0"/>
<path d="M448.03 213.148H445.291V215.888H448.03V213.148Z" fill="#F0F0F0"/>
<path d="M448.03 217.748H445.291V220.487H448.03V217.748Z" fill="#F0F0F0"/>
<path d="M448.03 222.347H445.291V225.087H448.03V222.347Z" fill="#F0F0F0"/>
<path d="M448.03 226.946H445.291V229.686H448.03V226.946Z" fill="#F0F0F0"/>
<path d="M448.03 240.745H445.291V243.485H448.03V240.745Z" fill="#F0F0F0"/>
<path d="M448.03 245.344H445.291V248.084H448.03V245.344Z" fill="#F0F0F0"/>
<path d="M448.03 249.933H445.291V252.672H448.03V249.933Z" fill="#F0F0F0"/>
<path d="M448.03 254.532H445.291V257.272H448.03V254.532Z" fill="#F0F0F0"/>
<path d="M448.03 259.132H445.291V261.871H448.03V259.132Z" fill="#F0F0F0"/>
<path d="M448.03 277.529H445.291V280.269H448.03V277.529Z" fill="#F0F0F0"/>
<path d="M443.675 185.562H440.936V188.302H443.675V185.562Z" fill="#F0F0F0"/>
<path d="M443.675 190.162H440.936V192.902H443.675V190.162Z" fill="#F0F0F0"/>
<path d="M443.675 194.761H440.936V197.501H443.675V194.761Z" fill="#F0F0F0"/>
<path d="M443.675 199.361H440.936V202.101H443.675V199.361Z" fill="#F0F0F0"/>
<path d="M443.675 203.949H440.936V206.689H443.675V203.949Z" fill="#F0F0F0"/>
<path d="M443.675 208.549H440.936V211.289H443.675V208.549Z" fill="#F0F0F0"/>
<path d="M443.675 213.148H440.936V215.888H443.675V213.148Z" fill="#F0F0F0"/>
<path d="M443.675 217.748H440.936V220.487H443.675V217.748Z" fill="#F0F0F0"/>
<path d="M443.675 222.347H440.936V225.087H443.675V222.347Z" fill="#F0F0F0"/>
<path d="M443.675 226.946H440.936V229.686H443.675V226.946Z" fill="#F0F0F0"/>
<path d="M443.675 231.546H440.936V234.286H443.675V231.546Z" fill="#F0F0F0"/>
<path d="M443.675 236.145H440.936V238.885H443.675V236.145Z" fill="#F0F0F0"/>
<path d="M443.675 240.745H440.936V243.485H443.675V240.745Z" fill="#F0F0F0"/>
<path d="M443.675 245.344H440.936V248.084H443.675V245.344Z" fill="#F0F0F0"/>
<path d="M443.675 249.933H440.936V252.672H443.675V249.933Z" fill="#F0F0F0"/>
<path d="M443.675 254.532H440.936V257.272H443.675V254.532Z" fill="#F0F0F0"/>
<path d="M443.675 259.132H440.936V261.871H443.675V259.132Z" fill="#F0F0F0"/>
<path d="M443.675 263.731H440.936V266.471H443.675V263.731Z" fill="#F0F0F0"/>
<path d="M439.318 185.562H436.579V188.302H439.318V185.562Z" fill="#F0F0F0"/>
<path d="M439.318 190.162H436.579V192.902H439.318V190.162Z" fill="#F0F0F0"/>
<path d="M439.318 194.761H436.579V197.501H439.318V194.761Z" fill="#F0F0F0"/>
<path d="M439.318 199.361H436.579V202.101H439.318V199.361Z" fill="#F0F0F0"/>
<path d="M439.318 203.949H436.579V206.689H439.318V203.949Z" fill="#F0F0F0"/>
<path d="M439.318 208.549H436.579V211.289H439.318V208.549Z" fill="#F0F0F0"/>
<path d="M439.318 213.148H436.579V215.888H439.318V213.148Z" fill="#F0F0F0"/>
<path d="M439.318 217.748H436.579V220.487H439.318V217.748Z" fill="#F0F0F0"/>
<path d="M439.318 222.347H436.579V225.087H439.318V222.347Z" fill="#F0F0F0"/>
<path d="M439.318 226.946H436.579V229.686H439.318V226.946Z" fill="#F0F0F0"/>
<path d="M439.318 240.745H436.579V243.485H439.318V240.745Z" fill="#F0F0F0"/>
<path d="M439.318 245.344H436.579V248.084H439.318V245.344Z" fill="#F0F0F0"/>
<path d="M439.318 249.933H436.579V252.672H439.318V249.933Z" fill="#F0F0F0"/>
<path d="M439.318 254.532H436.579V257.272H439.318V254.532Z" fill="#F0F0F0"/>
<path d="M434.973 185.562H432.234V188.302H434.973V185.562Z" fill="#F0F0F0"/>
<path d="M434.973 190.162H432.234V192.902H434.973V190.162Z" fill="#F0F0F0"/>
<path d="M434.973 194.761H432.234V197.501H434.973V194.761Z" fill="#F0F0F0"/>
<path d="M434.973 199.361H432.234V202.101H434.973V199.361Z" fill="#F0F0F0"/>
<path d="M434.973 203.949H432.234V206.689H434.973V203.949Z" fill="#F0F0F0"/>
<path d="M434.973 208.549H432.234V211.289H434.973V208.549Z" fill="#F0F0F0"/>
<path d="M434.973 213.148H432.234V215.888H434.973V213.148Z" fill="#F0F0F0"/>
<path d="M434.973 217.748H432.234V220.487H434.973V217.748Z" fill="#F0F0F0"/>
<path d="M434.973 222.347H432.234V225.087H434.973V222.347Z" fill="#F0F0F0"/>
<path d="M434.973 226.946H432.234V229.686H434.973V226.946Z" fill="#F0F0F0"/>
<path d="M434.973 240.745H432.234V243.485H434.973V240.745Z" fill="#F0F0F0"/>
<path d="M434.973 245.344H432.234V248.084H434.973V245.344Z" fill="#F0F0F0"/>
<path d="M434.973 249.933H432.234V252.672H434.973V249.933Z" fill="#F0F0F0"/>
<path d="M385.935 173.624H383.196V176.364H385.935V173.624Z" fill="#F0F0F0"/>
<path d="M385.935 178.223H383.196V180.963H385.935V178.223Z" fill="#F0F0F0"/>
<path d="M385.935 182.823H383.196V185.562H385.935V182.823Z" fill="#F0F0F0"/>
<path d="M385.935 187.411H383.196V190.151H385.935V187.411Z" fill="#F0F0F0"/>
<path d="M385.935 192.01H383.196V194.75H385.935V192.01Z" fill="#F0F0F0"/>
<path d="M385.935 196.61H383.196V199.35H385.935V196.61Z" fill="#F0F0F0"/>
<path d="M385.935 201.209H383.196V203.949H385.935V201.209Z" fill="#F0F0F0"/>
<path d="M385.935 205.809H383.196V208.549H385.935V205.809Z" fill="#F0F0F0"/>
<path d="M385.935 219.607H383.196V222.347H385.935V219.607Z" fill="#F0F0F0"/>
<path d="M385.935 224.207H383.196V226.946H385.935V224.207Z" fill="#F0F0F0"/>
<path d="M381.579 173.624H378.84V176.364H381.579V173.624Z" fill="#F0F0F0"/>
<path d="M381.579 178.223H378.84V180.963H381.579V178.223Z" fill="#F0F0F0"/>
<path d="M381.579 182.823H378.84V185.562H381.579V182.823Z" fill="#F0F0F0"/>
<path d="M381.579 187.411H378.84V190.151H381.579V187.411Z" fill="#F0F0F0"/>
<path d="M381.579 192.01H378.84V194.75H381.579V192.01Z" fill="#F0F0F0"/>
<path d="M381.579 196.61H378.84V199.35H381.579V196.61Z" fill="#F0F0F0"/>
<path d="M381.579 201.209H378.84V203.949H381.579V201.209Z" fill="#F0F0F0"/>
<path d="M381.579 205.809H378.84V208.549H381.579V205.809Z" fill="#F0F0F0"/>
<path d="M381.579 224.207H378.84V226.946H381.579V224.207Z" fill="#F0F0F0"/>
<path d="M377.223 173.624H374.484V176.364H377.223V173.624Z" fill="#F0F0F0"/>
<path d="M377.223 178.223H374.484V180.963H377.223V178.223Z" fill="#F0F0F0"/>
<path d="M377.223 182.823H374.484V185.562H377.223V182.823Z" fill="#F0F0F0"/>
<path d="M377.223 187.411H374.484V190.151H377.223V187.411Z" fill="#F0F0F0"/>
<path d="M377.223 192.01H374.484V194.75H377.223V192.01Z" fill="#F0F0F0"/>
<path d="M377.223 196.61H374.484V199.35H377.223V196.61Z" fill="#F0F0F0"/>
<path d="M377.223 201.209H374.484V203.949H377.223V201.209Z" fill="#F0F0F0"/>
<path d="M377.223 205.809H374.484V208.549H377.223V205.809Z" fill="#F0F0F0"/>
<path d="M372.867 173.624H370.128V176.364H372.867V173.624Z" fill="#F0F0F0"/>
<path d="M372.867 178.223H370.128V180.963H372.867V178.223Z" fill="#F0F0F0"/>
<path d="M372.867 182.823H370.128V185.562H372.867V182.823Z" fill="#F0F0F0"/>
<path d="M372.867 187.411H370.128V190.151H372.867V187.411Z" fill="#F0F0F0"/>
<path d="M372.867 192.01H370.128V194.75H372.867V192.01Z" fill="#F0F0F0"/>
<path d="M372.867 196.61H370.128V199.35H372.867V196.61Z" fill="#F0F0F0"/>
<path d="M372.867 205.809H370.128V208.549H372.867V205.809Z" fill="#F0F0F0"/>
<path d="M372.867 210.408H370.128V213.148H372.867V210.408Z" fill="#F0F0F0"/>
<path d="M372.867 224.207H370.128V226.946H372.867V224.207Z" fill="#F0F0F0"/>
<path d="M372.867 228.806H370.128V231.546H372.867V228.806Z" fill="#F0F0F0"/>
<path d="M372.867 233.395H370.128V236.134H372.867V233.395Z" fill="#F0F0F0"/>
<path d="M372.867 237.994H370.128V240.734H372.867V237.994Z" fill="#F0F0F0"/>
<path d="M372.867 242.593H370.128V245.333H372.867V242.593Z" fill="#F0F0F0"/>
<path d="M372.867 247.193H370.128V249.933H372.867V247.193Z" fill="#F0F0F0"/>
<path d="M372.867 251.792H370.128V254.532H372.867V251.792Z" fill="#F0F0F0"/>
<path d="M368.511 173.624H365.772V176.364H368.511V173.624Z" fill="#F0F0F0"/>
<path d="M368.511 178.223H365.772V180.963H368.511V178.223Z" fill="#F0F0F0"/>
<path d="M368.511 182.823H365.772V185.562H368.511V182.823Z" fill="#F0F0F0"/>
<path d="M368.511 187.411H365.772V190.151H368.511V187.411Z" fill="#F0F0F0"/>
<path d="M368.511 192.01H365.772V194.75H368.511V192.01Z" fill="#F0F0F0"/>
<path d="M368.511 196.61H365.772V199.35H368.511V196.61Z" fill="#F0F0F0"/>
<path d="M368.511 210.408H365.772V213.148H368.511V210.408Z" fill="#F0F0F0"/>
<path d="M368.511 215.008H365.772V217.748H368.511V215.008Z" fill="#F0F0F0"/>
<path d="M368.511 219.607H365.772V222.347H368.511V219.607Z" fill="#F0F0F0"/>
<path d="M368.511 224.207H365.772V226.946H368.511V224.207Z" fill="#F0F0F0"/>
<path d="M368.511 228.806H365.772V231.546H368.511V228.806Z" fill="#F0F0F0"/>
<path d="M368.511 233.395H365.772V236.134H368.511V233.395Z" fill="#F0F0F0"/>
<path d="M368.511 237.994H365.772V240.734H368.511V237.994Z" fill="#F0F0F0"/>
<path d="M368.511 242.593H365.772V245.333H368.511V242.593Z" fill="#F0F0F0"/>
<path d="M368.511 247.193H365.772V249.933H368.511V247.193Z" fill="#F0F0F0"/>
<path d="M368.511 251.792H365.772V254.532H368.511V251.792Z" fill="#F0F0F0"/>
<path d="M368.511 256.392H365.772V259.132H368.511V256.392Z" fill="#F0F0F0"/>
<path d="M368.511 265.591H365.772V268.33H368.511V265.591Z" fill="#F0F0F0"/>
<path d="M364.155 173.624H361.416V176.364H364.155V173.624Z" fill="#F0F0F0"/>
<path d="M364.155 178.223H361.416V180.963H364.155V178.223Z" fill="#F0F0F0"/>
<path d="M364.155 182.823H361.416V185.562H364.155V182.823Z" fill="#F0F0F0"/>
<path d="M364.155 187.411H361.416V190.151H364.155V187.411Z" fill="#F0F0F0"/>
<path d="M364.155 192.01H361.416V194.75H364.155V192.01Z" fill="#F0F0F0"/>
<path d="M364.155 196.61H361.416V199.35H364.155V196.61Z" fill="#F0F0F0"/>
<path d="M364.155 210.408H361.416V213.148H364.155V210.408Z" fill="#F0F0F0"/>
<path d="M364.155 215.008H361.416V217.748H364.155V215.008Z" fill="#F0F0F0"/>
<path d="M364.155 219.607H361.416V222.347H364.155V219.607Z" fill="#F0F0F0"/>
<path d="M364.155 224.207H361.416V226.946H364.155V224.207Z" fill="#F0F0F0"/>
<path d="M364.155 237.994H361.416V240.734H364.155V237.994Z" fill="#F0F0F0"/>
<path d="M364.155 242.593H361.416V245.333H364.155V242.593Z" fill="#F0F0F0"/>
<path d="M364.155 247.193H361.416V249.933H364.155V247.193Z" fill="#F0F0F0"/>
<path d="M364.155 251.792H361.416V254.532H364.155V251.792Z" fill="#F0F0F0"/>
<path d="M364.155 256.392H361.416V259.132H364.155V256.392Z" fill="#F0F0F0"/>
<path d="M364.155 265.591H361.416V268.33H364.155V265.591Z" fill="#F0F0F0"/>
<path d="M364.155 270.19H361.416V272.93H364.155V270.19Z" fill="#F0F0F0"/>
<path d="M324.643 216.372H321.904V219.112H324.643V216.372Z" fill="#F0F0F0"/>
<path d="M324.643 220.972H321.904V223.711H324.643V220.972Z" fill="#F0F0F0"/>
<path d="M324.643 225.571H321.904V228.311H324.643V225.571Z" fill="#F0F0F0"/>
<path d="M324.643 230.17H321.904V232.91H324.643V230.17Z" fill="#F0F0F0"/>
<path d="M324.643 234.77H321.904V237.51H324.643V234.77Z" fill="#F0F0F0"/>
<path d="M324.643 239.369H321.904V242.109H324.643V239.369Z" fill="#F0F0F0"/>
<path d="M324.643 243.969H321.904V246.709H324.643V243.969Z" fill="#F0F0F0"/>
<path d="M324.643 257.767H321.904V260.507H324.643V257.767Z" fill="#F0F0F0"/>
<path d="M324.643 262.356H321.904V265.095H324.643V262.356Z" fill="#F0F0F0"/>
<path d="M324.643 266.955H321.904V269.695H324.643V266.955Z" fill="#F0F0F0"/>
<path d="M320.287 216.372H317.548V219.112H320.287V216.372Z" fill="#F0F0F0"/>
<path d="M320.287 220.972H317.548V223.711H320.287V220.972Z" fill="#F0F0F0"/>
<path d="M320.287 225.571H317.548V228.311H320.287V225.571Z" fill="#F0F0F0"/>
<path d="M320.287 230.17H317.548V232.91H320.287V230.17Z" fill="#F0F0F0"/>
<path d="M320.287 234.77H317.548V237.51H320.287V234.77Z" fill="#F0F0F0"/>
<path d="M320.287 239.369H317.548V242.109H320.287V239.369Z" fill="#F0F0F0"/>
<path d="M320.287 243.969H317.548V246.709H320.287V243.969Z" fill="#F0F0F0"/>
<path d="M315.931 216.372H313.192V219.112H315.931V216.372Z" fill="#F0F0F0"/>
<path d="M315.931 220.972H313.192V223.711H315.931V220.972Z" fill="#F0F0F0"/>
<path d="M315.931 225.571H313.192V228.311H315.931V225.571Z" fill="#F0F0F0"/>
<path d="M315.931 230.17H313.192V232.91H315.931V230.17Z" fill="#F0F0F0"/>
<path d="M315.931 234.77H313.192V237.51H315.931V234.77Z" fill="#F0F0F0"/>
<path d="M315.931 239.369H313.192V242.109H315.931V239.369Z" fill="#F0F0F0"/>
<path d="M315.931 243.969H313.192V246.709H315.931V243.969Z" fill="#F0F0F0"/>
<path d="M311.575 216.372H308.836V219.112H311.575V216.372Z" fill="#F0F0F0"/>
<path d="M311.575 220.972H308.836V223.711H311.575V220.972Z" fill="#F0F0F0"/>
<path d="M311.575 225.571H308.836V228.311H311.575V225.571Z" fill="#F0F0F0"/>
<path d="M311.575 230.17H308.836V232.91H311.575V230.17Z" fill="#F0F0F0"/>
<path d="M311.575 234.77H308.836V237.51H311.575V234.77Z" fill="#F0F0F0"/>
<path d="M311.575 239.369H308.836V242.109H311.575V239.369Z" fill="#F0F0F0"/>
<path d="M311.575 243.969H308.836V246.709H311.575V243.969Z" fill="#F0F0F0"/>
<path d="M311.575 248.568H308.836V251.308H311.575V248.568Z" fill="#F0F0F0"/>
<path d="M311.575 253.168H308.836V255.908H311.575V253.168Z" fill="#F0F0F0"/>
<path d="M311.575 257.767H308.836V260.507H311.575V257.767Z" fill="#F0F0F0"/>
<path d="M311.575 262.356H308.836V265.095H311.575V262.356Z" fill="#F0F0F0"/>
<path d="M307.219 216.372H304.48V219.112H307.219V216.372Z" fill="#F0F0F0"/>
<path d="M307.219 220.972H304.48V223.711H307.219V220.972Z" fill="#F0F0F0"/>
<path d="M307.219 225.571H304.48V228.311H307.219V225.571Z" fill="#F0F0F0"/>
<path d="M307.219 230.17H304.48V232.91H307.219V230.17Z" fill="#F0F0F0"/>
<path d="M307.219 234.77H304.48V237.51H307.219V234.77Z" fill="#F0F0F0"/>
<path d="M307.219 239.369H304.48V242.109H307.219V239.369Z" fill="#F0F0F0"/>
<path d="M307.219 243.969H304.48V246.709H307.219V243.969Z" fill="#F0F0F0"/>
<path d="M307.219 248.568H304.48V251.308H307.219V248.568Z" fill="#F0F0F0"/>
<path d="M307.219 253.168H304.48V255.908H307.219V253.168Z" fill="#F0F0F0"/>
<path d="M307.219 257.767H304.48V260.507H307.219V257.767Z" fill="#F0F0F0"/>
<path d="M307.219 262.356H304.48V265.095H307.219V262.356Z" fill="#F0F0F0"/>
<path d="M307.219 266.955H304.48V269.695H307.219V266.955Z" fill="#F0F0F0"/>
<path d="M307.219 280.753H304.48V283.493H307.219V280.753Z" fill="#F0F0F0"/>
<path d="M307.219 285.353H304.48V288.093H307.219V285.353Z" fill="#F0F0F0"/>
<path d="M302.863 216.372H300.124V219.112H302.863V216.372Z" fill="#F0F0F0"/>
<path d="M302.863 220.972H300.124V223.711H302.863V220.972Z" fill="#F0F0F0"/>
<path d="M302.863 225.571H300.124V228.311H302.863V225.571Z" fill="#F0F0F0"/>
<path d="M302.863 239.369H300.124V242.109H302.863V239.369Z" fill="#F0F0F0"/>
<path d="M302.863 243.969H300.124V246.709H302.863V243.969Z" fill="#F0F0F0"/>
<path d="M302.863 248.568H300.124V251.308H302.863V248.568Z" fill="#F0F0F0"/>
<path d="M302.863 253.168H300.124V255.908H302.863V253.168Z" fill="#F0F0F0"/>
<path d="M302.863 257.767H300.124V260.507H302.863V257.767Z" fill="#F0F0F0"/>
<path d="M302.863 262.356H300.124V265.095H302.863V262.356Z" fill="#F0F0F0"/>
<path d="M302.863 266.955H300.124V269.695H302.863V266.955Z" fill="#F0F0F0"/>
<path d="M302.863 280.753H300.124V283.493H302.863V280.753Z" fill="#F0F0F0"/>
<path d="M302.863 285.353H300.124V288.093H302.863V285.353Z" fill="#F0F0F0"/>
<path d="M302.863 289.952H300.124V292.692H302.863V289.952Z" fill="#F0F0F0"/>
<path d="M257.224 188.786H254.485V191.526H257.224V188.786Z" fill="#F0F0F0"/>
<path d="M257.224 193.386H254.485V196.126H257.224V193.386Z" fill="#F0F0F0"/>
<path d="M257.224 197.985H254.485V200.725H257.224V197.985Z" fill="#F0F0F0"/>
<path d="M257.224 202.585H254.485V205.325H257.224V202.585Z" fill="#F0F0F0"/>
<path d="M257.224 207.184H254.485V209.924H257.224V207.184Z" fill="#F0F0F0"/>
<path d="M257.224 211.784H254.485V214.524H257.224V211.784Z" fill="#F0F0F0"/>
<path d="M257.224 216.372H254.485V219.112H257.224V216.372Z" fill="#F0F0F0"/>
<path d="M257.224 220.972H254.485V223.711H257.224V220.972Z" fill="#F0F0F0"/>
<path d="M257.224 225.571H254.485V228.311H257.224V225.571Z" fill="#F0F0F0"/>
<path d="M257.224 230.17H254.485V232.91H257.224V230.17Z" fill="#F0F0F0"/>
<path d="M257.224 234.77H254.485V237.51H257.224V234.77Z" fill="#F0F0F0"/>
<path d="M257.224 239.369H254.485V242.109H257.224V239.369Z" fill="#F0F0F0"/>
<path d="M257.224 243.969H254.485V246.709H257.224V243.969Z" fill="#F0F0F0"/>
<path d="M257.224 248.568H254.485V251.308H257.224V248.568Z" fill="#F0F0F0"/>
<path d="M257.224 253.168H254.485V255.908H257.224V253.168Z" fill="#F0F0F0"/>
<path d="M257.224 257.767H254.485V260.507H257.224V257.767Z" fill="#F0F0F0"/>
<path d="M257.224 262.356H254.485V265.095H257.224V262.356Z" fill="#F0F0F0"/>
<path d="M257.224 266.955H254.485V269.695H257.224V266.955Z" fill="#F0F0F0"/>
<path d="M257.224 271.554H254.485V274.294H257.224V271.554Z" fill="#F0F0F0"/>
<path d="M257.224 276.154H254.485V278.894H257.224V276.154Z" fill="#F0F0F0"/>
<path d="M257.224 280.753H254.485V283.493H257.224V280.753Z" fill="#F0F0F0"/>
<path d="M257.224 285.353H254.485V288.093H257.224V285.353Z" fill="#F0F0F0"/>
<path d="M257.224 289.952H254.485V292.692H257.224V289.952Z" fill="#F0F0F0"/>
<path d="M252.868 188.786H250.129V191.526H252.868V188.786Z" fill="#F0F0F0"/>
<path d="M252.868 193.386H250.129V196.126H252.868V193.386Z" fill="#F0F0F0"/>
<path d="M252.868 197.985H250.129V200.725H252.868V197.985Z" fill="#F0F0F0"/>
<path d="M252.868 202.585H250.129V205.325H252.868V202.585Z" fill="#F0F0F0"/>
<path d="M252.868 207.184H250.129V209.924H252.868V207.184Z" fill="#F0F0F0"/>
<path d="M252.868 211.784H250.129V214.524H252.868V211.784Z" fill="#F0F0F0"/>
<path d="M252.868 216.372H250.129V219.112H252.868V216.372Z" fill="#F0F0F0"/>
<path d="M252.868 220.972H250.129V223.711H252.868V220.972Z" fill="#F0F0F0"/>
<path d="M252.868 225.571H250.129V228.311H252.868V225.571Z" fill="#F0F0F0"/>
<path d="M252.868 230.17H250.129V232.91H252.868V230.17Z" fill="#F0F0F0"/>
<path d="M252.868 234.77H250.129V237.51H252.868V234.77Z" fill="#F0F0F0"/>
<path d="M252.868 239.369H250.129V242.109H252.868V239.369Z" fill="#F0F0F0"/>
<path d="M252.868 243.969H250.129V246.709H252.868V243.969Z" fill="#F0F0F0"/>
<path d="M252.868 248.568H250.129V251.308H252.868V248.568Z" fill="#F0F0F0"/>
<path d="M252.868 253.168H250.129V255.908H252.868V253.168Z" fill="#F0F0F0"/>
<path d="M252.868 257.767H250.129V260.507H252.868V257.767Z" fill="#F0F0F0"/>
<path d="M252.868 262.356H250.129V265.095H252.868V262.356Z" fill="#F0F0F0"/>
<path d="M252.868 266.955H250.129V269.695H252.868V266.955Z" fill="#F0F0F0"/>
<path d="M252.868 271.554H250.129V274.294H252.868V271.554Z" fill="#F0F0F0"/>
<path d="M248.512 188.786H245.773V191.526H248.512V188.786Z" fill="#F0F0F0"/>
<path d="M248.512 193.386H245.773V196.126H248.512V193.386Z" fill="#F0F0F0"/>
<path d="M248.512 197.985H245.773V200.725H248.512V197.985Z" fill="#F0F0F0"/>
<path d="M248.512 202.585H245.773V205.325H248.512V202.585Z" fill="#F0F0F0"/>
<path d="M248.512 207.184H245.773V209.924H248.512V207.184Z" fill="#F0F0F0"/>
<path d="M248.512 211.784H245.773V214.524H248.512V211.784Z" fill="#F0F0F0"/>
<path d="M248.512 216.372H245.773V219.112H248.512V216.372Z" fill="#F0F0F0"/>
<path d="M248.512 220.972H245.773V223.711H248.512V220.972Z" fill="#F0F0F0"/>
<path d="M248.512 225.571H245.773V228.311H248.512V225.571Z" fill="#F0F0F0"/>
<path d="M248.512 230.17H245.773V232.91H248.512V230.17Z" fill="#F0F0F0"/>
<path d="M248.512 234.77H245.773V237.51H248.512V234.77Z" fill="#F0F0F0"/>
<path d="M248.512 239.369H245.773V242.109H248.512V239.369Z" fill="#F0F0F0"/>
<path d="M248.512 243.969H245.773V246.709H248.512V243.969Z" fill="#F0F0F0"/>
<path d="M248.512 248.568H245.773V251.308H248.512V248.568Z" fill="#F0F0F0"/>
<path d="M248.512 253.168H245.773V255.908H248.512V253.168Z" fill="#F0F0F0"/>
<path d="M248.512 257.767H245.773V260.507H248.512V257.767Z" fill="#F0F0F0"/>
<path d="M248.512 262.356H245.773V265.095H248.512V262.356Z" fill="#F0F0F0"/>
<path d="M248.512 266.955H245.773V269.695H248.512V266.955Z" fill="#F0F0F0"/>
<path d="M248.512 271.554H245.773V274.294H248.512V271.554Z" fill="#F0F0F0"/>
<path d="M244.156 188.786H241.417V191.526H244.156V188.786Z" fill="#F0F0F0"/>
<path d="M244.156 193.386H241.417V196.126H244.156V193.386Z" fill="#F0F0F0"/>
<path d="M244.156 197.985H241.417V200.725H244.156V197.985Z" fill="#F0F0F0"/>
<path d="M244.156 202.585H241.417V205.325H244.156V202.585Z" fill="#F0F0F0"/>
<path d="M244.156 207.184H241.417V209.924H244.156V207.184Z" fill="#F0F0F0"/>
<path d="M244.156 211.784H241.417V214.524H244.156V211.784Z" fill="#F0F0F0"/>
<path d="M244.156 216.372H241.417V219.112H244.156V216.372Z" fill="#F0F0F0"/>
<path d="M244.156 220.972H241.417V223.711H244.156V220.972Z" fill="#F0F0F0"/>
<path d="M244.156 225.571H241.417V228.311H244.156V225.571Z" fill="#F0F0F0"/>
<path d="M244.156 230.17H241.417V232.91H244.156V230.17Z" fill="#F0F0F0"/>
<path d="M244.156 234.77H241.417V237.51H244.156V234.77Z" fill="#F0F0F0"/>
<path d="M244.156 239.369H241.417V242.109H244.156V239.369Z" fill="#F0F0F0"/>
<path d="M244.156 243.969H241.417V246.709H244.156V243.969Z" fill="#F0F0F0"/>
<path d="M244.156 248.568H241.417V251.308H244.156V248.568Z" fill="#F0F0F0"/>
<path d="M244.156 253.168H241.417V255.908H244.156V253.168Z" fill="#F0F0F0"/>
<path d="M239.801 188.786H237.062V191.526H239.801V188.786Z" fill="#F0F0F0"/>
<path d="M239.801 193.386H237.062V196.126H239.801V193.386Z" fill="#F0F0F0"/>
<path d="M239.801 197.985H237.062V200.725H239.801V197.985Z" fill="#F0F0F0"/>
<path d="M239.801 202.585H237.062V205.325H239.801V202.585Z" fill="#F0F0F0"/>
<path d="M239.801 207.184H237.062V209.924H239.801V207.184Z" fill="#F0F0F0"/>
<path d="M239.801 211.784H237.062V214.524H239.801V211.784Z" fill="#F0F0F0"/>
<path d="M239.801 216.372H237.062V219.112H239.801V216.372Z" fill="#F0F0F0"/>
<path d="M239.801 220.972H237.062V223.711H239.801V220.972Z" fill="#F0F0F0"/>
<path d="M239.801 225.571H237.062V228.311H239.801V225.571Z" fill="#F0F0F0"/>
<path d="M239.801 230.17H237.062V232.91H239.801V230.17Z" fill="#F0F0F0"/>
<path d="M239.801 234.77H237.062V237.51H239.801V234.77Z" fill="#F0F0F0"/>
<path d="M239.801 239.369H237.062V242.109H239.801V239.369Z" fill="#F0F0F0"/>
<path d="M239.801 243.969H237.062V246.709H239.801V243.969Z" fill="#F0F0F0"/>
<path d="M235.444 188.786H232.705V191.526H235.444V188.786Z" fill="#F0F0F0"/>
<path d="M235.444 193.386H232.705V196.126H235.444V193.386Z" fill="#F0F0F0"/>
<path d="M235.444 197.985H232.705V200.725H235.444V197.985Z" fill="#F0F0F0"/>
<path d="M235.444 202.585H232.705V205.325H235.444V202.585Z" fill="#F0F0F0"/>
<path d="M235.444 207.184H232.705V209.924H235.444V207.184Z" fill="#F0F0F0"/>
<path d="M235.444 211.784H232.705V214.524H235.444V211.784Z" fill="#F0F0F0"/>
<path d="M235.444 216.372H232.705V219.112H235.444V216.372Z" fill="#F0F0F0"/>
<path d="M235.444 220.972H232.705V223.711H235.444V220.972Z" fill="#F0F0F0"/>
<path d="M235.444 225.571H232.705V228.311H235.444V225.571Z" fill="#F0F0F0"/>
<path d="M235.444 230.17H232.705V232.91H235.444V230.17Z" fill="#F0F0F0"/>
<path d="M235.444 234.77H232.705V237.51H235.444V234.77Z" fill="#F0F0F0"/>
<path d="M235.444 239.369H232.705V242.109H235.444V239.369Z" fill="#F0F0F0"/>
<path d="M489.643 187.411H486.904V190.151H489.643V187.411Z" fill="#F0F0F0"/>
<path d="M489.643 192.01H486.904V194.75H489.643V192.01Z" fill="#F0F0F0"/>
<path d="M489.643 196.61H486.904V199.35H489.643V196.61Z" fill="#F0F0F0"/>
<path d="M489.643 201.209H486.904V203.949H489.643V201.209Z" fill="#F0F0F0"/>
<path d="M489.643 205.809H486.904V208.549H489.643V205.809Z" fill="#F0F0F0"/>
<path d="M489.643 210.408H486.904V213.148H489.643V210.408Z" fill="#F0F0F0"/>
<path d="M489.643 215.008H486.904V217.748H489.643V215.008Z" fill="#F0F0F0"/>
<path d="M489.643 219.607H486.904V222.347H489.643V219.607Z" fill="#F0F0F0"/>
<path d="M489.643 224.207H486.904V226.946H489.643V224.207Z" fill="#F0F0F0"/>
<path d="M489.643 228.806H486.904V231.546H489.643V228.806Z" fill="#F0F0F0"/>
<path d="M489.643 233.395H486.904V236.134H489.643V233.395Z" fill="#F0F0F0"/>
<path d="M489.643 237.994H486.904V240.734H489.643V237.994Z" fill="#F0F0F0"/>
<path d="M489.643 242.593H486.904V245.333H489.643V242.593Z" fill="#F0F0F0"/>
<path d="M489.643 247.193H486.904V249.933H489.643V247.193Z" fill="#F0F0F0"/>
<path d="M489.643 251.792H486.904V254.532H489.643V251.792Z" fill="#F0F0F0"/>
<path d="M489.643 256.392H486.904V259.132H489.643V256.392Z" fill="#F0F0F0"/>
<path d="M489.643 260.991H486.904V263.731H489.643V260.991Z" fill="#F0F0F0"/>
<path d="M489.643 270.19H486.904V272.93H489.643V270.19Z" fill="#F0F0F0"/>
<path d="M489.643 274.79H486.904V277.529H489.643V274.79Z" fill="#F0F0F0"/>
<path d="M489.643 279.378H486.904V282.118H489.643V279.378Z" fill="#F0F0F0"/>
<path d="M489.643 283.977H486.904V286.717H489.643V283.977Z" fill="#F0F0F0"/>
<path d="M489.643 288.577H486.904V291.317H489.643V288.577Z" fill="#F0F0F0"/>
<path d="M485.287 187.411H482.548V190.151H485.287V187.411Z" fill="#F0F0F0"/>
<path d="M485.287 192.01H482.548V194.75H485.287V192.01Z" fill="#F0F0F0"/>
<path d="M485.287 196.61H482.548V199.35H485.287V196.61Z" fill="#F0F0F0"/>
<path d="M485.287 201.209H482.548V203.949H485.287V201.209Z" fill="#F0F0F0"/>
<path d="M485.287 205.809H482.548V208.549H485.287V205.809Z" fill="#F0F0F0"/>
<path d="M485.287 210.408H482.548V213.148H485.287V210.408Z" fill="#F0F0F0"/>
<path d="M485.287 215.008H482.548V217.748H485.287V215.008Z" fill="#F0F0F0"/>
<path d="M485.287 219.607H482.548V222.347H485.287V219.607Z" fill="#F0F0F0"/>
<path d="M485.287 224.207H482.548V226.946H485.287V224.207Z" fill="#F0F0F0"/>
<path d="M485.287 228.806H482.548V231.546H485.287V228.806Z" fill="#F0F0F0"/>
<path d="M485.287 233.395H482.548V236.134H485.287V233.395Z" fill="#F0F0F0"/>
<path d="M485.287 237.994H482.548V240.734H485.287V237.994Z" fill="#F0F0F0"/>
<path d="M485.287 242.593H482.548V245.333H485.287V242.593Z" fill="#F0F0F0"/>
<path d="M485.287 247.193H482.548V249.933H485.287V247.193Z" fill="#F0F0F0"/>
<path d="M485.287 251.792H482.548V254.532H485.287V251.792Z" fill="#F0F0F0"/>
<path d="M485.287 256.392H482.548V259.132H485.287V256.392Z" fill="#F0F0F0"/>
<path d="M485.287 283.977H482.548V286.717H485.287V283.977Z" fill="#F0F0F0"/>
<path d="M485.287 288.577H482.548V291.317H485.287V288.577Z" fill="#F0F0F0"/>
<path d="M480.942 187.411H478.203V190.151H480.942V187.411Z" fill="#F0F0F0"/>
<path d="M480.942 192.01H478.203V194.75H480.942V192.01Z" fill="#F0F0F0"/>
<path d="M480.942 196.61H478.203V199.35H480.942V196.61Z" fill="#F0F0F0"/>
<path d="M480.942 201.209H478.203V203.949H480.942V201.209Z" fill="#F0F0F0"/>
<path d="M480.942 205.809H478.203V208.549H480.942V205.809Z" fill="#F0F0F0"/>
<path d="M480.942 210.408H478.203V213.148H480.942V210.408Z" fill="#F0F0F0"/>
<path d="M480.942 215.008H478.203V217.748H480.942V215.008Z" fill="#F0F0F0"/>
<path d="M480.942 219.607H478.203V222.347H480.942V219.607Z" fill="#F0F0F0"/>
<path d="M480.942 224.207H478.203V226.946H480.942V224.207Z" fill="#F0F0F0"/>
<path d="M480.942 228.806H478.203V231.546H480.942V228.806Z" fill="#F0F0F0"/>
<path d="M480.942 233.395H478.203V236.134H480.942V233.395Z" fill="#F0F0F0"/>
<path d="M480.942 237.994H478.203V240.734H480.942V237.994Z" fill="#F0F0F0"/>
<path d="M480.942 242.593H478.203V245.333H480.942V242.593Z" fill="#F0F0F0"/>
<path d="M480.942 247.193H478.203V249.933H480.942V247.193Z" fill="#F0F0F0"/>
<path d="M480.942 251.792H478.203V254.532H480.942V251.792Z" fill="#F0F0F0"/>
<path d="M480.942 256.392H478.203V259.132H480.942V256.392Z" fill="#F0F0F0"/>
<path d="M480.942 265.591H478.203V268.33H480.942V265.591Z" fill="#F0F0F0"/>
<path d="M480.942 270.19H478.203V272.93H480.942V270.19Z" fill="#F0F0F0"/>
<path d="M480.942 274.79H478.203V277.529H480.942V274.79Z" fill="#F0F0F0"/>
<path d="M480.942 279.378H478.203V282.118H480.942V279.378Z" fill="#F0F0F0"/>
<path d="M480.942 288.577H478.203V291.317H480.942V288.577Z" fill="#F0F0F0"/>
<path d="M404.966 219.607H402.227V222.347H404.966V219.607Z" fill="#F0F0F0"/>
<path d="M404.966 224.207H402.227V226.946H404.966V224.207Z" fill="#F0F0F0"/>
<path d="M404.966 228.806H402.227V231.546H404.966V228.806Z" fill="#F0F0F0"/>
<path d="M404.966 233.395H402.227V236.134H404.966V233.395Z" fill="#F0F0F0"/>
<path d="M404.966 237.994H402.227V240.734H404.966V237.994Z" fill="#F0F0F0"/>
<path d="M404.966 242.593H402.227V245.333H404.966V242.593Z" fill="#F0F0F0"/>
<path d="M404.966 247.193H402.227V249.933H404.966V247.193Z" fill="#F0F0F0"/>
<path d="M404.966 251.792H402.227V254.532H404.966V251.792Z" fill="#F0F0F0"/>
<path d="M404.966 256.392H402.227V259.132H404.966V256.392Z" fill="#F0F0F0"/>
<path d="M404.966 260.991H402.227V263.731H404.966V260.991Z" fill="#F0F0F0"/>
<path d="M404.966 265.591H402.227V268.33H404.966V265.591Z" fill="#F0F0F0"/>
<path d="M404.966 270.19H402.227V272.93H404.966V270.19Z" fill="#F0F0F0"/>
<path d="M404.966 274.79H402.227V277.529H404.966V274.79Z" fill="#F0F0F0"/>
<path d="M404.966 283.977H402.227V286.717H404.966V283.977Z" fill="#F0F0F0"/>
<path d="M404.966 288.577H402.227V291.317H404.966V288.577Z" fill="#F0F0F0"/>
<path d="M404.966 293.176H402.227V295.916H404.966V293.176Z" fill="#F0F0F0"/>
<path d="M404.966 297.776H402.227V300.516H404.966V297.776Z" fill="#F0F0F0"/>
<path d="M404.966 306.975H402.227V309.714H404.966V306.975Z" fill="#F0F0F0"/>
<path d="M404.966 311.574H402.227V314.314H404.966V311.574Z" fill="#F0F0F0"/>
<path d="M404.966 316.174H402.227V318.913H404.966V316.174Z" fill="#F0F0F0"/>
<path d="M400.609 219.607H397.87V222.347H400.609V219.607Z" fill="#F0F0F0"/>
<path d="M400.609 224.207H397.87V226.946H400.609V224.207Z" fill="#F0F0F0"/>
<path d="M400.609 228.806H397.87V231.546H400.609V228.806Z" fill="#F0F0F0"/>
<path d="M400.609 233.395H397.87V236.134H400.609V233.395Z" fill="#F0F0F0"/>
<path d="M400.609 237.994H397.87V240.734H400.609V237.994Z" fill="#F0F0F0"/>
<path d="M400.609 242.593H397.87V245.333H400.609V242.593Z" fill="#F0F0F0"/>
<path d="M400.609 247.193H397.87V249.933H400.609V247.193Z" fill="#F0F0F0"/>
<path d="M400.609 251.792H397.87V254.532H400.609V251.792Z" fill="#F0F0F0"/>
<path d="M400.609 256.392H397.87V259.132H400.609V256.392Z" fill="#F0F0F0"/>
<path d="M400.609 260.991H397.87V263.731H400.609V260.991Z" fill="#F0F0F0"/>
<path d="M400.609 265.591H397.87V268.33H400.609V265.591Z" fill="#F0F0F0"/>
<path d="M400.609 270.19H397.87V272.93H400.609V270.19Z" fill="#F0F0F0"/>
<path d="M400.609 274.79H397.87V277.529H400.609V274.79Z" fill="#F0F0F0"/>
<path d="M400.609 288.577H397.87V291.317H400.609V288.577Z" fill="#F0F0F0"/>
<path d="M400.609 293.176H397.87V295.916H400.609V293.176Z" fill="#F0F0F0"/>
<path d="M400.609 302.375H397.87V305.115H400.609V302.375Z" fill="#F0F0F0"/>
<path d="M400.609 306.975H397.87V309.714H400.609V306.975Z" fill="#F0F0F0"/>
<path d="M400.609 311.574H397.87V314.314H400.609V311.574Z" fill="#F0F0F0"/>
<path d="M400.609 316.174H397.87V318.913H400.609V316.174Z" fill="#F0F0F0"/>
<path d="M396.253 219.607H393.514V222.347H396.253V219.607Z" fill="#F0F0F0"/>
<path d="M396.253 224.207H393.514V226.946H396.253V224.207Z" fill="#F0F0F0"/>
<path d="M396.253 228.806H393.514V231.546H396.253V228.806Z" fill="#F0F0F0"/>
<path d="M396.253 233.395H393.514V236.134H396.253V233.395Z" fill="#F0F0F0"/>
<path d="M396.253 237.994H393.514V240.734H396.253V237.994Z" fill="#F0F0F0"/>
<path d="M396.253 242.593H393.514V245.333H396.253V242.593Z" fill="#F0F0F0"/>
<path d="M396.253 247.193H393.514V249.933H396.253V247.193Z" fill="#F0F0F0"/>
<path d="M396.253 251.792H393.514V254.532H396.253V251.792Z" fill="#F0F0F0"/>
<path d="M396.253 256.392H393.514V259.132H396.253V256.392Z" fill="#F0F0F0"/>
<path d="M396.253 260.991H393.514V263.731H396.253V260.991Z" fill="#F0F0F0"/>
<path d="M396.253 265.591H393.514V268.33H396.253V265.591Z" fill="#F0F0F0"/>
<path d="M396.253 270.19H393.514V272.93H396.253V270.19Z" fill="#F0F0F0"/>
<path d="M396.253 274.79H393.514V277.529H396.253V274.79Z" fill="#F0F0F0"/>
<path d="M396.253 279.378H393.514V282.118H396.253V279.378Z" fill="#F0F0F0"/>
<path d="M396.253 288.577H393.514V291.317H396.253V288.577Z" fill="#F0F0F0"/>
<path d="M396.253 297.776H393.514V300.516H396.253V297.776Z" fill="#F0F0F0"/>
<path d="M396.253 302.375H393.514V305.115H396.253V302.375Z" fill="#F0F0F0"/>
<path d="M396.253 306.975H393.514V309.714H396.253V306.975Z" fill="#F0F0F0"/>
<path d="M396.253 311.574H393.514V314.314H396.253V311.574Z" fill="#F0F0F0"/>
<path d="M396.253 316.174H393.514V318.913H396.253V316.174Z" fill="#F0F0F0"/>
<path d="M422.708 245.828H419.969V248.568H422.708V245.828Z" fill="#F0F0F0"/>
<path d="M422.708 250.417H419.969V253.157H422.708V250.417Z" fill="#F0F0F0"/>
<path d="M422.708 255.016H419.969V257.756H422.708V255.016Z" fill="#F0F0F0"/>
<path d="M422.708 259.616H419.969V262.356H422.708V259.616Z" fill="#F0F0F0"/>
<path d="M422.708 264.215H419.969V266.955H422.708V264.215Z" fill="#F0F0F0"/>
<path d="M422.708 268.815H419.969V271.554H422.708V268.815Z" fill="#F0F0F0"/>
<path d="M422.708 282.613H419.969V285.353H422.708V282.613Z" fill="#F0F0F0"/>
<path d="M422.708 287.212H419.969V289.952H422.708V287.212Z" fill="#F0F0F0"/>
<path d="M422.708 291.801H419.969V294.541H422.708V291.801Z" fill="#F0F0F0"/>
<path d="M422.708 296.4H419.969V299.14H422.708V296.4Z" fill="#F0F0F0"/>
<path d="M422.708 301H419.969V303.74H422.708V301Z" fill="#F0F0F0"/>
<path d="M422.708 305.599H419.969V308.339H422.708V305.599Z" fill="#F0F0F0"/>
<path d="M422.708 310.199H419.969V312.938H422.708V310.199Z" fill="#F0F0F0"/>
<path d="M418.352 245.828H415.613V248.568H418.352V245.828Z" fill="#F0F0F0"/>
<path d="M418.352 250.417H415.613V253.157H418.352V250.417Z" fill="#F0F0F0"/>
<path d="M418.352 255.016H415.613V257.756H418.352V255.016Z" fill="#F0F0F0"/>
<path d="M418.352 259.616H415.613V262.356H418.352V259.616Z" fill="#F0F0F0"/>
<path d="M418.352 264.215H415.613V266.955H418.352V264.215Z" fill="#F0F0F0"/>
<path d="M418.352 268.815H415.613V271.554H418.352V268.815Z" fill="#F0F0F0"/>
<path d="M418.352 282.613H415.613V285.353H418.352V282.613Z" fill="#F0F0F0"/>
<path d="M418.352 287.212H415.613V289.952H418.352V287.212Z" fill="#F0F0F0"/>
<path d="M418.352 291.801H415.613V294.541H418.352V291.801Z" fill="#F0F0F0"/>
<path d="M418.352 296.4H415.613V299.14H418.352V296.4Z" fill="#F0F0F0"/>
<path d="M418.352 301H415.613V303.74H418.352V301Z" fill="#F0F0F0"/>
<path d="M418.352 305.599H415.613V308.339H418.352V305.599Z" fill="#F0F0F0"/>
<path d="M418.352 314.798H415.613V317.538H418.352V314.798Z" fill="#F0F0F0"/>
<path d="M273.669 225.571H270.93V228.311H273.669V225.571Z" fill="#F0F0F0"/>
<path d="M273.669 230.17H270.93V232.91H273.669V230.17Z" fill="#F0F0F0"/>
<path d="M273.669 234.77H270.93V237.51H273.669V234.77Z" fill="#F0F0F0"/>
<path d="M273.669 239.369H270.93V242.109H273.669V239.369Z" fill="#F0F0F0"/>
<path d="M273.669 243.969H270.93V246.709H273.669V243.969Z" fill="#F0F0F0"/>
<path d="M273.669 248.568H270.93V251.308H273.669V248.568Z" fill="#F0F0F0"/>
<path d="M273.669 253.168H270.93V255.908H273.669V253.168Z" fill="#F0F0F0"/>
<path d="M273.669 257.767H270.93V260.507H273.669V257.767Z" fill="#F0F0F0"/>
<path d="M273.669 262.356H270.93V265.095H273.669V262.356Z" fill="#F0F0F0"/>
<path d="M273.669 266.955H270.93V269.695H273.669V266.955Z" fill="#F0F0F0"/>
<path d="M273.669 271.554H270.93V274.294H273.669V271.554Z" fill="#F0F0F0"/>
<path d="M273.669 280.753H270.93V283.493H273.669V280.753Z" fill="#F0F0F0"/>
<path d="M273.669 285.353H270.93V288.093H273.669V285.353Z" fill="#F0F0F0"/>
<path d="M273.669 289.952H270.93V292.692H273.669V289.952Z" fill="#F0F0F0"/>
<path d="M273.669 294.552H270.93V297.292H273.669V294.552Z" fill="#F0F0F0"/>
<path d="M273.669 299.151H270.93V301.891H273.669V299.151Z" fill="#F0F0F0"/>
<path d="M273.669 303.751H270.93V306.49H273.669V303.751Z" fill="#F0F0F0"/>
<path d="M273.669 308.339H270.93V311.079H273.669V308.339Z" fill="#F0F0F0"/>
<path d="M273.669 312.938H270.93V315.678H273.669V312.938Z" fill="#F0F0F0"/>
<path d="M269.324 225.571H266.585V228.311H269.324V225.571Z" fill="#F0F0F0"/>
<path d="M269.324 230.17H266.585V232.91H269.324V230.17Z" fill="#F0F0F0"/>
<path d="M269.324 234.77H266.585V237.51H269.324V234.77Z" fill="#F0F0F0"/>
<path d="M269.324 239.369H266.585V242.109H269.324V239.369Z" fill="#F0F0F0"/>
<path d="M269.324 243.969H266.585V246.709H269.324V243.969Z" fill="#F0F0F0"/>
<path d="M269.324 248.568H266.585V251.308H269.324V248.568Z" fill="#F0F0F0"/>
<path d="M269.324 253.168H266.585V255.908H269.324V253.168Z" fill="#F0F0F0"/>
<path d="M269.324 257.767H266.585V260.507H269.324V257.767Z" fill="#F0F0F0"/>
<path d="M269.324 262.356H266.585V265.095H269.324V262.356Z" fill="#F0F0F0"/>
<path d="M269.324 266.955H266.585V269.695H269.324V266.955Z" fill="#F0F0F0"/>
<path d="M269.324 271.554H266.585V274.294H269.324V271.554Z" fill="#F0F0F0"/>
<path d="M269.324 276.154H266.585V278.894H269.324V276.154Z" fill="#F0F0F0"/>
<path d="M269.324 280.753H266.585V283.493H269.324V280.753Z" fill="#F0F0F0"/>
<path d="M269.324 285.353H266.585V288.093H269.324V285.353Z" fill="#F0F0F0"/>
<path d="M269.324 289.952H266.585V292.692H269.324V289.952Z" fill="#F0F0F0"/>
<path d="M269.324 294.552H266.585V297.292H269.324V294.552Z" fill="#F0F0F0"/>
<path d="M269.324 299.151H266.585V301.891H269.324V299.151Z" fill="#F0F0F0"/>
<path d="M269.324 303.751H266.585V306.49H269.324V303.751Z" fill="#F0F0F0"/>
<path d="M269.324 308.339H266.585V311.079H269.324V308.339Z" fill="#F0F0F0"/>
<path d="M269.324 312.938H266.585V315.678H269.324V312.938Z" fill="#F0F0F0"/>
<path d="M295.13 243.485H292.391V246.224H295.13V243.485Z" fill="#F0F0F0"/>
<path d="M295.13 248.084H292.391V250.824H295.13V248.084Z" fill="#F0F0F0"/>
<path d="M295.13 252.684H292.391V255.423H295.13V252.684Z" fill="#F0F0F0"/>
<path d="M295.13 257.283H292.391V260.023H295.13V257.283Z" fill="#F0F0F0"/>
<path d="M295.13 261.871H292.391V264.611H295.13V261.871Z" fill="#F0F0F0"/>
<path d="M295.13 266.471H292.391V269.211H295.13V266.471Z" fill="#F0F0F0"/>
<path d="M295.13 271.07H292.391V273.81H295.13V271.07Z" fill="#F0F0F0"/>
<path d="M295.13 275.67H292.391V278.41H295.13V275.67Z" fill="#F0F0F0"/>
<path d="M295.13 280.269H292.391V283.009H295.13V280.269Z" fill="#F0F0F0"/>
<path d="M295.13 284.869H292.391V287.609H295.13V284.869Z" fill="#F0F0F0"/>
<path d="M290.774 243.485H288.035V246.224H290.774V243.485Z" fill="#F0F0F0"/>
<path d="M290.774 248.084H288.035V250.824H290.774V248.084Z" fill="#F0F0F0"/>
<path d="M290.774 252.684H288.035V255.423H290.774V252.684Z" fill="#F0F0F0"/>
<path d="M290.774 257.283H288.035V260.023H290.774V257.283Z" fill="#F0F0F0"/>
<path d="M290.774 261.871H288.035V264.611H290.774V261.871Z" fill="#F0F0F0"/>
<path d="M290.774 266.471H288.035V269.211H290.774V266.471Z" fill="#F0F0F0"/>
<path d="M290.774 271.07H288.035V273.81H290.774V271.07Z" fill="#F0F0F0"/>
<path d="M290.774 275.67H288.035V278.41H290.774V275.67Z" fill="#F0F0F0"/>
<path d="M290.774 280.269H288.035V283.009H290.774V280.269Z" fill="#F0F0F0"/>
<path d="M316.679 68.9807H312.081V325.449H316.679V68.9807Z" fill="#E0E0E0"/>
<path d="M403.26 68.9807H398.662V325.449H403.26V68.9807Z" fill="#E0E0E0"/>
<path d="M489.83 68.9807H485.232V325.449H489.83V68.9807Z" fill="#E0E0E0"/>
<path d="M162.602 300.494H190.96C193.633 300.494 195.811 302.661 195.811 305.346V360.176H157.762V305.346C157.762 302.672 159.929 300.494 162.613 300.494H162.602Z" fill="#F0F0F0"/>
<path d="M195.811 308.559H157.762V312.839H195.811V308.559Z" fill="#E6E6E6"/>
<path d="M179.399 352.947H188.881C190.322 352.947 191.488 354.113 191.488 355.555V360.176H176.792V355.555C176.792 354.113 177.958 352.947 179.399 352.947Z" fill="#E0E0E0"/>
<path d="M191.532 360.176H180.983C180.048 360.176 179.289 359.417 179.289 358.482C179.289 357.546 180.048 356.787 180.983 356.787H191.532C192.467 356.787 193.226 357.546 193.226 358.482C193.226 359.417 192.467 360.176 191.532 360.176Z" fill="#E6E6E6"/>
<path d="M360.48 56.9366C374.404 53.6492 383.028 39.6927 379.741 25.7639C376.455 11.8352 362.503 3.20874 348.578 6.49622C334.654 9.7837 326.03 23.7402 329.317 37.6689C332.603 51.5977 346.555 60.2241 360.48 56.9366Z" fill="#E0E0E0"/>
<path d="M358.063 53.4419C370.074 51.4916 378.231 40.1704 376.281 28.1553C374.331 16.1403 363.014 7.98121 351.002 9.93153C338.991 11.8818 330.834 23.203 332.784 35.2181C334.734 47.2331 346.051 55.3922 358.063 53.4419Z" fill="#F0F0F0"/>
<path d="M355.563 16.5932V31.998L365.771 26.2212" fill="#F0F0F0"/>
<path d="M355.563 16.5932V31.998L365.771 26.2212" stroke="#E0E0E0" stroke-width="2" stroke-linecap="round" stroke-linejoin="round"/>
<path d="M106.623 284.649C104.643 281.392 101.387 284.219 101.387 284.219C101.849 277.969 96.1066 273.7 96.1066 273.7C96.1066 273.7 102.784 273.7 103.719 267.329C104.654 260.958 101.387 263.918 98.3286 263.874C95.2706 263.83 92.0696 272.765 96.1066 277.793C100.144 282.822 99.0546 291.405 89.7486 299.657C87.4716 301.671 85.9316 304.356 84.8866 307.25C85.5906 299.668 85.9866 288.984 83.7536 281.854C79.9696 269.739 87.1856 266.482 89.2756 260.419C91.3766 254.367 83.7536 249.239 83.7536 249.239C83.7536 249.239 90.9146 245.982 87.4166 242.252C83.9186 238.522 76.7026 239.028 76.7026 243.903C76.7026 248.777 81.5976 250.637 81.5976 250.637C81.5976 250.637 87.1856 256.458 87.1856 259.495C87.1856 262.532 81.5976 269.046 81.5976 269.046C81.5976 269.046 84.1606 263.467 79.0346 263.225C73.9086 262.983 72.2806 269.739 74.3816 272.776C76.4826 275.802 79.9696 273.238 79.9696 273.238C79.9696 273.238 80.3766 279.763 81.5756 283.724C82.1036 285.463 81.8506 292.296 81.4106 299.404C80.3766 296.84 78.9136 294.486 76.8786 292.67C67.5616 284.418 66.4836 275.835 70.5206 270.806C74.5576 265.778 71.3566 256.843 68.2986 256.887C65.2406 256.931 61.9736 253.96 62.9086 260.342C63.8436 266.724 70.5206 266.713 70.5206 266.713C70.5206 266.713 64.7676 270.993 65.2406 277.232C65.2406 277.232 61.9846 274.393 60.0046 277.661C56.4736 283.482 64.6576 287.091 66.0436 284.23C66.0436 284.23 83.4126 296.532 79.2216 314.237L80.2006 315.678C80.0796 317.109 79.9916 317.967 79.9916 317.967L81.3556 317.384L82.9066 319.662C82.8296 324.085 83.3026 327.353 83.3026 327.353L87.4606 321.224C83.2696 303.52 100.639 291.218 100.639 291.218C102.014 294.079 110.209 290.469 106.678 284.649H106.623Z" fill="#181818"/>
<path opacity="0.2" d="M106.623 284.649C104.643 281.392 101.387 284.219 101.387 284.219C101.849 277.969 96.1066 273.7 96.1066 273.7C96.1066 273.7 102.784 273.7 103.719 267.329C104.654 260.958 101.387 263.918 98.3286 263.874C95.2706 263.83 92.0696 272.765 96.1066 277.793C100.144 282.822 99.0546 291.405 89.7486 299.657C87.4716 301.671 85.9316 304.356 84.8866 307.25C85.5906 299.668 85.9866 288.984 83.7536 281.854C79.9696 269.739 87.1856 266.482 89.2756 260.419C91.3766 254.367 83.7536 249.239 83.7536 249.239C83.7536 249.239 90.9146 245.982 87.4166 242.252C83.9186 238.522 76.7026 239.028 76.7026 243.903C76.7026 248.777 81.5976 250.637 81.5976 250.637C81.5976 250.637 87.1856 256.458 87.1856 259.495C87.1856 262.532 81.5976 269.046 81.5976 269.046C81.5976 269.046 84.1606 263.467 79.0346 263.225C73.9086 262.983 72.2806 269.739 74.3816 272.776C76.4826 275.802 79.9696 273.238 79.9696 273.238C79.9696 273.238 80.3766 279.763 81.5756 283.724C82.1036 285.463 81.8506 292.296 81.4106 299.404C80.3766 296.84 78.9136 294.486 76.8786 292.67C67.5616 284.418 66.4836 275.835 70.5206 270.806C74.5576 265.778 71.3566 256.843 68.2986 256.887C65.2406 256.931 61.9736 253.96 62.9086 260.342C63.8436 266.724 70.5206 266.713 70.5206 266.713C70.5206 266.713 64.7676 270.993 65.2406 277.232C65.2406 277.232 61.9846 274.393 60.0046 277.661C56.4736 283.482 64.6576 287.091 66.0436 284.23C66.0436 284.23 83.4126 296.532 79.2216 314.237L80.2006 315.678C80.0796 317.109 79.9916 317.967 79.9916 317.967L81.3556 317.384L82.9066 319.662C82.8296 324.085 83.3026 327.353 83.3026 327.353L87.4606 321.224C83.2696 303.52 100.639 291.218 100.639 291.218C102.014 294.079 110.209 290.469 106.678 284.649H106.623Z" fill="#181818"/>
<path d="M103.224 360.176H63.4367L59.1357 316.592H107.514L103.224 360.176Z" fill="#E6E6E6"/>
<path d="M109.637 311.783H57.0127V321.4H109.637V311.783Z" fill="#F0F0F0"/>
<path d="M275 410C392.79 410 488.279 404.423 488.279 397.544C488.279 390.665 392.79 385.088 275 385.088C157.209 385.088 61.7207 390.665 61.7207 397.544C61.7207 404.423 157.209 410 275 410Z" fill="#F5F5F5"/>
<path d="M451.495 362.85C451.66 361.728 455.51 335.155 447.799 325.978C446.094 323.942 443.938 322.886 441.397 322.82C425.832 322.457 423.698 334.967 423.676 335.088L425.513 335.375C425.579 334.923 427.427 324.338 441.353 324.679C443.366 324.723 445.016 325.548 446.38 327.177C453.563 335.716 449.702 362.311 449.658 362.575L451.495 362.85Z" fill="#181818"/>
<path d="M452.43 361.64L454.289 361.585C454.289 361.343 453.673 337.102 465.608 332.096C477.312 327.188 482.57 337.278 482.79 337.707L484.451 336.871C484.385 336.75 478.214 324.789 464.893 330.379C451.781 335.881 452.397 360.595 452.43 361.64Z" fill="#181818"/>
<path d="M452.376 363.543C452.376 363.158 452.486 324.822 459.955 313.61C467.127 302.848 478.699 307.91 479.194 308.13L479.964 306.435C479.832 306.369 466.478 300.483 458.415 312.575C450.638 324.25 450.517 361.937 450.517 363.543H452.376Z" fill="#181818"/>
<path d="M439.164 323.755C439.164 323.755 445.962 326.264 443.938 332.184C441.914 338.103 420.42 347.842 420.42 347.842C420.42 347.842 411.422 339.589 419.683 326.165C427.955 312.741 438.977 319.53 439.153 323.755H439.164Z" fill="#181818"/>
<path d="M460.295 311.596C460.295 311.596 455.466 311.079 455.862 308.141C456.258 305.203 474.617 297.633 485.463 309.869C485.463 309.869 478.522 321.796 468.49 321.95C458.458 322.104 460.306 311.596 460.306 311.596H460.295Z" fill="#181818"/>
<path d="M465.256 331.237C465.256 331.237 461.923 328.552 465.52 327.232C469.117 325.923 486.75 326.297 486.937 343.77C486.937 343.77 466.4 347.181 463.859 340.524C461.318 333.867 465.267 331.237 465.267 331.237H465.256Z" fill="#181818"/>
<path opacity="0.2" d="M439.164 323.755C439.164 323.755 445.962 326.264 443.938 332.184C441.914 338.103 420.42 347.842 420.42 347.842C420.42 347.842 411.422 339.589 419.683 326.165C427.955 312.741 438.977 319.53 439.153 323.755H439.164Z" fill="black"/>
<path opacity="0.2" d="M460.295 311.596C460.295 311.596 455.466 311.079 455.862 308.141C456.258 305.203 474.617 297.633 485.463 309.869C485.463 309.869 478.522 321.796 468.49 321.95C458.458 322.104 460.306 311.596 460.306 311.596H460.295Z" fill="black"/>
<path opacity="0.2" d="M465.256 331.237C465.256 331.237 461.923 328.552 465.52 327.232C469.117 325.923 486.75 326.297 486.937 343.77C486.937 343.77 466.4 347.181 463.859 340.524C461.318 333.867 465.267 331.237 465.267 331.237H465.256Z" fill="black"/>
<path d="M435.512 398.457H467.39L470.822 363.543H432.08L435.512 398.457Z" fill="#181818"/>
<path opacity="0.5" d="M435.512 398.457H467.39L470.822 363.543H432.08L435.512 398.457Z" fill="white"/>
<path d="M430.375 367.406H472.527V359.703H430.375V367.406Z" fill="#181818"/>
<path opacity="0.2" d="M430.375 367.406H472.527V359.703H430.375V367.406Z" fill="white"/>
<path d="M399.432 373.436L367.741 370.322V325.769H355.179V370.311L323.356 373.436C320.199 373.744 317.79 376.406 317.79 379.575V384.34H404.998V379.575C404.998 376.395 402.589 373.744 399.432 373.436Z" fill="black"/>
<path opacity="0.2" d="M399.432 373.436L367.741 370.322V325.769H355.179V370.311L323.356 373.436C320.199 373.744 317.79 376.406 317.79 379.575V384.34H404.998V379.575C404.998 376.395 402.589 373.744 399.432 373.436Z" fill="white"/>
<path d="M321.145 398.457C325.683 398.457 329.362 394.777 329.362 390.238C329.362 385.698 325.683 382.018 321.145 382.018C316.607 382.018 312.928 385.698 312.928 390.238C312.928 394.777 316.607 398.457 321.145 398.457Z" fill="black"/>
<path d="M401.654 398.457C406.192 398.457 409.87 394.777 409.87 390.238C409.87 385.698 406.192 382.018 401.654 382.018C397.115 382.018 393.437 385.698 393.437 390.238C393.437 394.777 397.115 398.457 401.654 398.457Z" fill="black"/>
<path d="M353.022 295.652H369.907V330.786C369.907 333.295 367.872 335.331 365.364 335.331H357.565C355.057 335.331 353.022 333.295 353.022 330.786V295.652Z" fill="black"/>
<path opacity="0.3" d="M353.022 295.652H369.907V330.786C369.907 333.295 367.872 335.331 365.364 335.331H357.565C355.057 335.331 353.022 333.295 353.022 330.786V295.652Z" fill="white"/>
<path d="M391.49 226.011C391.49 226.011 393.888 285.43 377.344 295.652H396.22C396.22 295.652 410.85 275.406 406.714 226.011H391.479H391.49Z" fill="black"/>
<path opacity="0.3" d="M391.49 226.011C391.49 226.011 393.888 285.43 377.344 295.652H396.22C396.22 295.652 410.85 275.406 406.714 226.011H391.479H391.49Z" fill="white"/>
<path d="M402.654 300.208H318.042V292.846C318.042 289.809 320.506 287.345 323.542 287.345H397.154C400.19 287.345 402.654 289.809 402.654 292.846V300.208Z" fill="black"/>
<path d="M316.723 300.208H403.964C405.185 300.208 406.175 299.217 406.175 297.996V295.993C406.175 294.772 405.185 293.782 403.964 293.782H316.723C315.502 293.782 314.512 294.772 314.512 295.993V297.996C314.512 299.217 315.502 300.208 316.723 300.208Z" fill="black"/>
<path opacity="0.6" d="M316.723 300.208H403.964C405.185 300.208 406.175 299.217 406.175 297.996V295.993C406.175 294.772 405.185 293.782 403.964 293.782H316.723C315.502 293.782 314.512 294.772 314.512 295.993V297.996C314.512 299.217 315.502 300.208 316.723 300.208Z" fill="white"/>
<path d="M411.355 194.156H381.105C372.248 194.156 365.067 201.339 365.067 210.199V222.039C365.067 230.899 372.248 238.082 381.105 238.082H411.355C420.213 238.082 427.393 230.899 427.393 222.039V210.199C427.393 201.339 420.213 194.156 411.355 194.156Z" fill="black"/>
<path d="M289.355 145.609L283.316 129.687C283.316 129.687 285.901 127.288 284.13 124.856C282.359 122.425 271.216 115.58 269.181 116.791C267.146 117.99 262.647 122.524 265.078 125.043C267.52 127.563 278.311 131.755 278.311 131.755L283.646 152.651L289.344 145.609H289.355Z" fill="#E4897B"/>
<path d="M331.518 175.879C331.518 175.879 304.051 170.235 301.07 168.881C298.089 167.528 287.034 135.145 287.034 135.145L278.564 139.106C278.564 139.106 285.384 171.61 292.358 179.345C299.332 187.07 329.087 193.617 329.087 193.617L331.518 175.89V175.879Z" fill="#181818"/>
<path opacity="0.2" d="M329.087 193.595C329.087 193.595 328.911 193.562 328.581 193.474C327.074 193.133 322.388 192.032 316.811 190.393C307.758 187.763 296.34 183.736 292.358 179.323C285.395 171.588 278.564 139.084 278.564 139.084L287.034 135.123C287.034 135.123 298.089 167.517 301.081 168.859C304.062 170.202 331.518 175.846 331.518 175.846L329.087 193.573V193.595Z" fill="black"/>
<path d="M287.177 134.506L288.926 137.884L278.036 141.637L278.454 137.51L287.177 134.506Z" fill="#181818"/>
<path opacity="0.2" d="M329.296 193.155C327.767 192.935 323.004 192.197 317.317 190.998C320.562 185.397 330.066 182.514 330.066 182.514L329.296 193.155Z" fill="black"/>
<path d="M370.238 153.454C370.238 153.454 371.855 168.672 366.212 172.413C360.58 176.154 332.849 171.775 329.703 165.646C326.557 159.528 338.393 142.902 338.393 142.902L370.227 153.454H370.238Z" fill="black"/>
<path d="M258.049 353.695L265.287 355.445L268.95 345.454L272.272 336.365L264.033 332.855L260.865 343.88L258.049 353.695Z" fill="#E4897B"/>
<path opacity="0.2" d="M260.865 343.88L268.95 345.454L272.272 336.365L264.033 332.855L260.865 343.88Z" fill="black"/>
<path d="M261.591 338.61L271.623 342.34C271.623 342.34 298.386 275.406 303.886 275.175C309.386 274.944 365.387 300.692 379.423 286.409C393.459 272.138 373.164 237.73 373.164 237.73C373.164 237.73 339.405 232.91 336.864 240.536C336.369 242.01 335.83 244.904 335.434 247.38C335.049 249.713 334.785 251.671 334.785 251.671C334.785 251.671 334.774 251.671 334.763 251.671C333.718 251.407 299.827 242.659 286.473 251.671C272.91 260.848 261.591 338.61 261.591 338.61Z" fill="#181818"/>
<path opacity="0.6" d="M261.591 338.61L271.623 342.34C271.623 342.34 298.386 275.406 303.886 275.175C309.386 274.944 365.387 300.692 379.423 286.409C393.459 272.138 373.164 237.73 373.164 237.73C373.164 237.73 339.405 232.91 336.864 240.536C336.369 242.01 335.83 244.904 335.434 247.38C335.049 249.713 334.785 251.671 334.785 251.671C334.785 251.671 334.774 251.671 334.763 251.671C333.718 251.407 299.827 242.659 286.473 251.671C272.91 260.848 261.591 338.61 261.591 338.61Z" fill="white"/>
<path d="M319.297 382.249L326.502 380.401L325.116 370.057L323.829 360.573L314.919 361.376L317.229 372.423L319.297 382.249Z" fill="#E4897B"/>
<path opacity="0.2" d="M317.284 372.654L325.16 370.256L323.851 360.672L314.93 361.42L317.284 372.654Z" fill="black"/>
<path d="M275.77 338.621L261.151 333.658L260.535 339.644L271.612 343.561L275.77 338.621Z" fill="#181818"/>
<path d="M355.179 289.842C355.179 289.842 352.891 289.897 317.482 288.247C317.482 288.247 322.773 332.536 325.666 365.678L315.073 367.483C315.073 367.483 289.773 296.499 290.048 285.221C290.323 273.942 303.248 270.641 303.248 270.641C303.248 270.641 328.471 285.221 355.179 289.842Z" fill="#181818"/>
<path opacity="0.6" d="M355.179 289.842C355.179 289.842 352.891 289.897 317.482 288.247C317.482 288.247 322.773 332.536 325.666 365.678L315.073 367.483C315.073 367.483 289.773 296.499 290.048 285.221C290.323 273.942 303.248 270.641 303.248 270.641C303.248 270.641 328.471 285.221 355.179 289.842Z" fill="white"/>
<path opacity="0.1" d="M355.179 289.842C355.179 289.842 352.891 289.897 317.482 288.247C317.482 288.247 322.773 332.536 325.666 365.678L315.073 367.483C315.073 367.483 289.773 296.499 290.048 285.221C290.323 273.942 303.248 270.641 303.248 270.641C303.248 270.641 328.471 285.221 355.179 289.842Z" fill="black"/>
<path d="M327.206 362.465L312.653 364.116L315.469 369.826L327.25 368.319L327.206 362.465Z" fill="#181818"/>
<path opacity="0.1" d="M334.785 251.671L354.53 255.787C354.53 255.787 343.618 249.757 335.434 247.38C335.049 249.713 334.785 251.671 334.785 251.671Z" fill="black"/>
<path d="M372.351 232.47L373.164 237.73L336.864 240.525L335.896 234.319L372.351 232.47Z" fill="black"/>
<path opacity="0.2" d="M372.351 232.47L373.164 237.73L336.864 240.525L335.896 234.319L372.351 232.47Z" fill="black"/>
<path d="M360.903 241.277L362.697 241.092L361.758 231.953L359.963 232.137L360.903 241.277Z" fill="#181818"/>
<path d="M344.783 240.358L352.73 239.847L352.343 233.819L344.395 234.33L344.783 240.358Z" fill="white"/>
<path d="M338.629 242.226L340.424 242.042L339.484 232.902L337.69 233.087L338.629 242.226Z" fill="#181818"/>
<path opacity="0.6" d="M360.903 241.277L362.697 241.092L361.758 231.953L359.963 232.137L360.903 241.277Z" fill="white"/>
<path opacity="0.6" d="M338.629 242.226L340.424 242.042L339.484 232.902L337.69 233.087L338.629 242.226Z" fill="white"/>
<path d="M330.858 175.373C330.858 175.373 340.12 178.278 351.769 177.684C363.418 177.09 377.344 182.746 377.344 182.746L372.339 232.47L335.896 234.308C335.896 234.308 323.653 192.781 330.858 175.373Z" fill="#181818"/>
<path d="M336.721 147.292C336.721 147.292 338.767 123.14 358.952 131.921C384.285 142.935 364.144 172.347 351.769 166.306C339.394 160.266 336.721 147.292 336.721 147.292Z" fill="black"/>
<path opacity="0.2" d="M342.375 179.037L342.958 192.682L347.479 186.267C347.479 186.267 345.862 201.363 346.808 209.572C346.808 209.572 347.677 194.838 349.723 186.267L354.53 192.682L361.427 179.125C361.427 179.125 350.262 175.109 342.364 179.037H342.375Z" fill="black"/>
<path d="M348.623 181.568L359.062 178.619C352.627 174.196 355.872 164.293 355.872 164.293L345.532 167.924C346.082 169.64 346.434 171.093 346.643 172.347C347.721 178.795 344.806 179.312 344.806 179.312L348.623 181.568Z" fill="#E4897B"/>
<path opacity="0.2" d="M345.532 167.935C346.082 169.651 346.434 171.104 346.643 172.358C351.593 170.378 355.872 164.304 355.872 164.304L345.532 167.935Z" fill="black"/>
<path d="M352.286 136.993C343.134 134.969 339.097 139.216 336.336 148.503C332.893 160.111 333.652 169.068 345.653 169.079C361.955 169.101 367.488 140.349 352.286 136.982V136.993Z" fill="#E4897B"/>
<path d="M342.363 149.306C342.363 149.306 340.57 151.419 338.854 152.519C338.854 152.519 339.361 153.938 341.044 154.093L342.363 149.317V149.306Z" fill="#DE5753"/>
<path d="M348.139 149.79C347.952 150.538 348.205 151.243 348.711 151.364C349.206 151.485 349.767 150.979 349.943 150.23C350.13 149.482 349.877 148.778 349.371 148.657C348.876 148.536 348.315 149.042 348.139 149.79Z" fill="black"/>
<path d="M349.569 148.745L348.095 147.71C348.095 147.71 348.568 149.284 349.569 148.745Z" fill="black"/>
<path d="M338.877 147.347C338.69 148.096 338.943 148.8 339.449 148.921C339.944 149.042 340.505 148.536 340.681 147.788C340.868 147.039 340.615 146.335 340.109 146.214C339.614 146.093 339.053 146.599 338.877 147.347Z" fill="black"/>
<path d="M340.307 146.302L338.833 145.268C338.833 145.268 339.306 146.841 340.307 146.302Z" fill="black"/>
<path d="M349.624 143.485C349.624 143.485 352.275 143.716 353.287 145.752" stroke="black" stroke-width="0.72" stroke-linecap="round" stroke-linejoin="round"/>
<path d="M343.057 141.626C343.057 141.626 341.572 140.668 339.24 141.571" stroke="black" stroke-width="0.72" stroke-linecap="round" stroke-linejoin="round"/>
<path d="M358.875 154.643C358.875 154.643 356.257 146.17 358.193 140.503C358.193 140.503 341.693 129.071 336.721 147.292C336.721 147.292 338.569 130.545 354.387 133.659C370.183 136.773 365.046 159.792 355.399 164.854C355.399 164.854 360.481 159.924 358.875 154.632V154.643Z" fill="black"/>
<path d="M356.95 156.238C357.335 154.775 359.414 152.618 362.087 153.52C364.859 154.456 364.914 160.585 357.555 160.419C356.499 160.397 356.147 159.275 356.95 156.227V156.238Z" fill="#E4897B"/>
<path d="M339.405 157.559C339.724 158.769 339.878 160.959 339.878 160.959C340.076 160.981 340.285 161.003 340.483 161.014C343.211 161.245 344.564 160.452 345.224 159.495C345.587 158.978 345.73 158.395 345.796 157.922C345.873 157.371 345.796 156.964 345.796 156.964C344.278 157.713 341.704 157.691 340.34 157.614C339.768 157.592 339.405 157.548 339.405 157.548V157.559Z" fill="black"/>
<path d="M340.34 157.625L340.505 158.626C343.079 158.835 344.927 158.648 345.796 157.933C345.873 157.382 345.796 156.975 345.796 156.975C344.278 157.724 341.704 157.702 340.34 157.625Z" fill="white"/>
<path d="M340.483 161.014C343.211 161.245 344.564 160.452 345.224 159.495C344.289 159.451 343.156 159.495 342.133 159.836C341.352 160.089 340.835 160.54 340.483 161.003V161.014Z" fill="#DE5753"/>
<path d="M352.319 137.719C352.319 137.719 352.671 153.608 362.197 155.512C371.723 157.416 361.306 135.101 361.306 135.101C361.306 135.101 347.116 125.836 337.667 132.361C328.207 138.897 336.71 147.292 336.71 147.292C336.71 147.292 338.712 135.497 352.308 137.719H352.319Z" fill="black"/>
<path d="M352.649 136.674C352.649 136.674 349.25 146.72 355.96 151.991" stroke="black" stroke-width="0.5" stroke-linecap="round" stroke-linejoin="round"/>
<path d="M364.98 158.78C363.77 162.015 360.657 163.831 358.028 162.84C355.399 161.85 354.255 158.439 355.465 155.204C356.675 151.969 359.788 150.153 362.417 151.144C365.046 152.134 366.19 155.545 364.98 158.78Z" fill="#181818"/>
<path opacity="0.4" d="M364.98 158.78C363.77 162.015 360.657 163.831 358.028 162.84C355.399 161.85 354.255 158.439 355.465 155.204C356.675 151.969 359.788 150.153 362.417 151.144C365.046 152.134 366.19 155.545 364.98 158.78Z" fill="black"/>
<path d="M361.944 153.487C361.944 153.487 365.893 135.805 357.038 131.172C357.038 131.172 358.886 131.425 360.03 131.756C361.174 132.086 368.247 139.26 364.672 155.149L361.944 153.487Z" fill="#181818"/>
<path opacity="0.2" d="M361.944 153.487C361.944 153.487 365.893 135.805 357.038 131.172C357.038 131.172 358.886 131.425 360.03 131.756C361.174 132.086 368.247 139.26 364.672 155.149L361.944 153.487Z" fill="black"/>
<path d="M345.346 163.611C345.126 163.578 344.906 163.545 344.686 163.512L344.862 162.422C352.837 163.721 358.766 159.506 358.821 159.462L359.47 160.354C359.217 160.53 353.453 164.678 345.346 163.611Z" fill="#181818"/>
<g opacity="0.2">
<path d="M345.346 163.611C345.126 163.578 344.906 163.545 344.686 163.512L344.862 162.422C352.837 163.721 358.766 159.506 358.821 159.462L359.47 160.354C359.217 160.53 353.453 164.678 345.346 163.611Z" fill="black"/>
</g>
<path d="M364.606 158.34C363.803 160.475 361.746 161.674 360.008 161.025C358.27 160.376 357.511 158.109 358.314 155.974C359.117 153.84 361.174 152.64 362.912 153.289C364.65 153.939 365.409 156.205 364.606 158.34Z" fill="#181818"/>
<path d="M344.366 163.963L343.486 163.842C342.826 163.754 342.364 163.159 342.452 162.499C342.54 161.839 343.134 161.377 343.794 161.465L344.674 161.586C345.334 161.674 345.796 162.268 345.708 162.928C345.62 163.589 345.026 164.051 344.366 163.963Z" fill="#181818"/>
<path opacity="0.4" d="M344.366 163.963L343.486 163.842C342.826 163.754 342.364 163.159 342.452 162.499C342.54 161.839 343.134 161.377 343.794 161.465L344.674 161.586C345.334 161.674 345.796 162.268 345.708 162.928C345.62 163.589 345.026 164.051 344.366 163.963Z" fill="black"/>
<path d="M356.257 174.845L349.723 181.26L352.341 189.128L361.427 179.114L356.257 174.845Z" fill="#181818"/>
<path d="M346.808 176.188L347.864 181.128L344.487 188.115L342.375 179.037L346.808 176.188Z" fill="#181818"/>
<path d="M354.86 180.413L358.655 166.515C358.655 166.515 356.818 163.049 357.214 162.334C357.61 161.608 359.59 152.277 360.998 151.265C362.406 150.252 368.192 151.98 368.786 152.926C369.38 153.872 363.242 166.515 363.242 166.515L361.009 181.568L354.871 180.413H354.86Z" fill="#E4897B"/>
<path d="M377.344 182.746C387.783 193.441 366.85 217.671 354.86 216.636C342.87 215.602 355.157 171.676 355.157 171.676L362.835 172.941C362.835 172.941 360.14 191.955 360.987 193.441C361.834 194.937 373.824 179.147 377.333 182.746H377.344Z" fill="#181818"/>
<path opacity="0.2" d="M377.344 182.746C387.783 193.441 366.85 217.671 354.86 216.636C342.87 215.602 355.157 171.676 355.157 171.676L362.835 172.941C362.835 172.941 360.14 191.955 360.987 193.441C361.834 194.937 373.824 179.147 377.333 182.746H377.344Z" fill="black"/>
<path d="M354.53 170.268L353.397 173.899L364.1 174.845V171.676L354.53 170.268Z" fill="#181818"/>
<path opacity="0.6" d="M338.306 198.998H333.972C333.492 198.998 333.103 199.387 333.103 199.867V208.054C333.103 208.534 333.492 208.923 333.972 208.923H338.306C338.785 208.923 339.175 208.534 339.175 208.054V199.867C339.175 199.387 338.785 198.998 338.306 198.998Z" fill="white"/>
<path opacity="0.2" d="M338.394 199.647H333.466V206.392H338.394V199.647Z" fill="black"/>
<path d="M336.59 196.599H335.501V200.571H336.59V196.599Z" fill="black"/>
<path d="M246.081 367.758C247.181 367.252 248.369 366.955 249.568 366.867C249.568 366.867 253.748 364.402 257.884 354.851L262.537 354.829C264.154 354.851 265.573 355.874 266.112 357.393C266.189 357.602 266.233 357.822 266.244 358.042C266.2 359.164 266.079 360.286 265.881 361.398C265.463 364.886 263.164 372.357 263.164 372.357L262.372 372.159L263.802 365.205C264.275 362.839 261.8 365.128 260.645 367.505C259.49 369.881 257.73 372.28 252.582 371.103C246.587 369.705 244.178 368.836 246.048 367.758H246.081Z" fill="#181818"/>
<path d="M258.731 352.342C258.731 352.342 252.912 364.512 249.568 366.866C249.568 366.866 254.056 369.54 258.731 363.587C264.77 355.885 266.255 358.031 266.255 358.031C266.255 358.031 266.002 355.39 265.529 354.102C264.616 351.616 258.731 352.342 258.731 352.342Z" fill="#E4897B"/>
<path d="M310.123 396.752C311.069 396.004 312.147 395.431 313.302 395.057C313.302 395.057 316.778 391.679 318.538 381.413L323.059 380.28C324.632 379.917 326.26 380.566 327.14 381.919C327.261 382.106 327.36 382.304 327.426 382.513C327.646 383.614 327.8 384.736 327.877 385.858C328.295 389.347 327.833 397.148 327.833 397.148H327.019L326.766 390.051C326.667 387.641 324.797 390.447 324.247 393.033C323.697 395.619 322.542 398.369 317.273 398.446C311.124 398.501 308.572 398.237 310.134 396.752H310.123Z" fill="#181818"/>
<path d="M318.758 378.783C318.758 378.783 315.997 391.987 313.302 395.057C313.302 395.057 318.296 396.598 321.42 389.699C325.468 380.775 327.415 382.524 327.415 382.524C327.415 382.524 326.546 380.027 325.776 378.882C324.302 376.682 318.758 378.783 318.758 378.783Z" fill="#E4897B"/>
<path d="M421.036 112.444H382.635C379.555 112.444 377.058 114.942 377.058 118.023V134.451C377.058 137.532 379.555 140.03 382.635 140.03H421.036C424.116 140.03 426.613 137.532 426.613 134.451V118.023C426.613 114.942 424.116 112.444 421.036 112.444Z" fill="#181818"/>
<path d="M390.335 136.894L378.763 152.629L397.43 137.95L390.335 136.894Z" fill="#181818"/>
<path d="M390.764 126.243C390.764 127.134 390.038 127.871 389.136 127.871C388.234 127.871 387.508 127.145 387.508 126.243C387.508 125.34 388.234 124.614 389.136 124.614C390.038 124.614 390.764 125.34 390.764 126.243Z" fill="white"/>
<path d="M399.223 126.243C399.223 127.134 398.497 127.871 397.595 127.871C396.693 127.871 395.967 127.145 395.967 126.243C395.967 125.34 396.693 124.614 397.595 124.614C398.497 124.614 399.223 125.34 399.223 126.243Z" fill="white"/>
<path d="M407.682 126.243C407.682 127.134 406.956 127.871 406.054 127.871C405.152 127.871 404.426 127.145 404.426 126.243C404.426 125.34 405.152 124.614 406.054 124.614C406.956 124.614 407.682 125.34 407.682 126.243Z" fill="white"/>
<path d="M416.141 126.243C416.141 127.134 415.415 127.871 414.513 127.871C413.611 127.871 412.885 127.145 412.885 126.243C412.885 125.34 413.611 124.614 414.513 124.614C415.415 124.614 416.141 125.34 416.141 126.243Z" fill="white"/>
<path d="M276.841 99.4495L249.444 84.6869C248.706 84.2892 247.785 84.5653 247.388 85.3037L238.644 101.54C238.247 102.278 238.523 103.199 239.261 103.597L266.658 118.359C267.396 118.757 268.317 118.481 268.714 117.743L277.457 101.506C277.855 100.768 277.579 99.8472 276.841 99.4495Z" fill="#181818"/>
<path opacity="0.7" d="M276.841 99.4495L249.444 84.6869C248.706 84.2892 247.785 84.5653 247.388 85.3037L238.644 101.54C238.247 102.278 238.523 103.199 239.261 103.597L266.658 118.359C267.396 118.757 268.317 118.481 268.714 117.743L277.457 101.506C277.855 100.768 277.579 99.8472 276.841 99.4495Z" fill="white"/>
<path opacity="0.2" d="M246.676 86.6412L255.245 102.651C255.916 103.895 257.269 104.621 258.666 104.478L276.497 102.717L258.336 105.391C256.708 105.633 255.113 104.775 254.42 103.278L246.665 86.6412H246.676Z" fill="black"/>
<path d="M225.874 83.6593C226.16 77.5414 230.692 65.2065 236.203 61.4323C241.714 57.6581 238.084 62.8848 238.084 62.8848C238.084 62.8848 243.309 57.8012 246.059 57.9552C248.809 58.1093 246.059 61.2893 246.059 61.2893C246.059 61.2893 251.713 57.8012 254.331 57.9442C256.938 58.0873 254.331 61.1352 254.331 61.1352C254.331 61.1352 258.973 57.8012 260.854 59.3967C262.735 60.9922 236.775 78.1136 233.871 85.0788C230.967 92.044 225.566 89.8543 225.863 83.6593H225.874Z" fill="#181818"/>
<path opacity="0.4" d="M225.874 83.6593C226.16 77.5414 230.692 65.2065 236.203 61.4323C241.714 57.6581 238.084 62.8848 238.084 62.8848C238.084 62.8848 243.309 57.8012 246.059 57.9552C248.809 58.1093 246.059 61.2893 246.059 61.2893C246.059 61.2893 251.713 57.8012 254.331 57.9442C256.938 58.0873 254.331 61.1352 254.331 61.1352C254.331 61.1352 258.973 57.8012 260.854 59.3967C262.735 60.9922 236.775 78.1136 233.871 85.0788C230.967 92.044 225.566 89.8543 225.863 83.6593H225.874Z" fill="white"/>
<path d="M248.182 82.757L251.647 84.9797C251.9 85.1448 251.768 85.5299 251.471 85.5079L247.83 85.2218L248.138 88.0167C248.171 88.3248 247.797 88.4898 247.588 88.2587L245.487 85.882L248.171 82.757H248.182Z" fill="#181818"/>
<path opacity="0.3" d="M248.182 82.757L251.647 84.9797C251.9 85.1448 251.768 85.5299 251.471 85.5079L247.83 85.2218L248.138 88.0167C248.171 88.3248 247.797 88.4898 247.588 88.2587L245.487 85.882L248.171 82.757H248.182Z" fill="white"/>
<path d="M199.508 68.9807C199.508 68.9807 204.293 65.6466 211.553 67.8143C211.553 67.8143 213.643 77.3873 219.341 80.5783C222.476 82.3279 230.143 82.1848 236.215 80.2152C243.42 77.8825 246.951 77.8825 248.249 80.5783C249.481 83.1311 248.106 86.0911 242.595 87.4005C237.084 88.7099 232.728 98.2829 222.718 98.4259C212.708 98.569 207.439 88.5338 209.958 79.7091C209.958 79.7091 206.911 73.129 199.519 68.9697L199.508 68.9807Z" fill="#181818"/>
<path opacity="0.5" d="M199.508 68.9807C199.508 68.9807 204.293 65.6466 211.553 67.8143C211.553 67.8143 213.643 77.3873 219.341 80.5783C222.476 82.3279 230.143 82.1848 236.215 80.2152C243.42 77.8825 246.951 77.8825 248.249 80.5783C249.481 83.1311 248.106 86.0911 242.595 87.4005C237.084 88.7099 232.728 98.2829 222.718 98.4259C212.708 98.569 207.439 88.5338 209.958 79.7091C209.958 79.7091 206.911 73.129 199.519 68.9697L199.508 68.9807Z" fill="white"/>
<path d="M245.499 82.3939C245.499 82.669 245.279 82.8891 245.004 82.8891C244.729 82.8891 244.509 82.669 244.509 82.3939C244.509 82.1188 244.729 81.8987 245.004 81.8987C245.279 81.8987 245.499 82.1188 245.499 82.3939Z" fill="black"/>
<path d="M220.397 90.4595C214.49 92.077 201.356 91.5708 196.065 87.4885C190.774 83.4062 196.868 85.2438 196.868 85.2438C196.868 85.2438 190.422 81.8437 189.718 79.1809C189.003 76.5181 192.886 78.1466 192.886 78.1466C192.886 78.1466 187.826 73.8442 187.155 71.3134C186.495 68.7826 190.191 70.3231 190.191 70.3231C190.191 70.3231 185.582 66.9341 186.517 64.6453C187.452 62.3566 211.751 81.7777 219.264 82.3939C226.777 82.9991 226.37 88.8199 220.386 90.4595H220.397Z" fill="#181818"/>
<path opacity="0.4" d="M220.397 90.4595C214.49 92.077 201.356 91.5708 196.065 87.4885C190.774 83.4062 196.868 85.2438 196.868 85.2438C196.868 85.2438 190.422 81.8437 189.718 79.1809C189.003 76.5181 192.886 78.1466 192.886 78.1466C192.886 78.1466 187.826 73.8442 187.155 71.3134C186.495 68.7826 190.191 70.3231 190.191 70.3231C190.191 70.3231 185.582 66.9341 186.517 64.6453C187.452 62.3566 211.751 81.7777 219.264 82.3939C226.777 82.9991 226.37 88.8199 220.386 90.4595H220.397Z" fill="white"/>
<path d="M181.676 63.2809C180.642 62.9178 179.597 62.5657 178.541 62.2466" stroke="#181818" stroke-width="0.75" stroke-linecap="round" stroke-linejoin="round"/>
<path d="M172.118 60.6071C168.268 59.8038 164.341 59.2757 160.447 59.0006C149.755 58.2523 132.98 57.196 126.435 67.8584C120.462 77.5744 130.736 94.1456 134.377 103.168C138.843 114.216 144.156 127.871 138.876 139.568C128.03 163.599 81.6208 151.122 65.9678 128.983" stroke="#181818" stroke-width="0.75" stroke-linecap="round" stroke-linejoin="round"/>
<path d="M64.1964 126.199C63.6464 125.23 63.1514 124.24 62.7334 123.239" stroke="#181818" stroke-width="0.75" stroke-linecap="round" stroke-linejoin="round"/>
<path d="M197.791 213.566H156.035V222.127H197.791V213.566Z" fill="white"/>
<path opacity="0.1" d="M197.791 213.566H156.035V222.127H197.791V213.566Z" fill="black"/>
<path opacity="0.1" d="M173.624 213.566H156.035V222.127H173.624V213.566Z" fill="black"/>
<path opacity="0.1" d="M156.035 214.799H193.204L156.035 215.855V214.799Z" fill="black"/>
<path opacity="0.1" d="M197.791 216.284L165.572 217.087H197.791V216.284Z" fill="black"/>
<path opacity="0.1" d="M157.74 218.683L173.624 218.023L196.977 218.683L173.624 219.046L157.74 218.683Z" fill="black"/>
<path opacity="0.1" d="M156.035 220.498H183.557L156.035 221.147V220.498Z" fill="black"/>
<path opacity="0.1" d="M197.725 221.148L179.355 221.489H197.791L197.725 221.148Z" fill="black"/>
<path d="M191.984 204.995H150.228V213.555H191.984V204.995Z" fill="white"/>
<path opacity="0.1" d="M191.984 204.995H150.228V213.555H191.984V204.995Z" fill="black"/>
<path opacity="0.1" d="M167.817 204.995H150.228V213.555H167.817V204.995Z" fill="black"/>
<path opacity="0.1" d="M150.228 206.238H187.397L150.228 207.283V206.238Z" fill="black"/>
<path opacity="0.1" d="M191.984 207.723L159.765 208.516H191.984V207.723Z" fill="black"/>
<path opacity="0.1" d="M151.922 210.111L167.806 209.462L191.159 210.111L167.806 210.474L151.922 210.111Z" fill="black"/>
<path opacity="0.1" d="M150.228 211.927H177.75L150.228 212.576V211.927Z" fill="black"/>
<path opacity="0.1" d="M191.917 212.576L173.536 212.917H191.983L191.917 212.576Z" fill="black"/>
<path d="M196.746 196.434H154.99V204.995H196.746V196.434Z" fill="white"/>
<path opacity="0.1" d="M196.746 196.434H154.99V204.995H196.746V196.434Z" fill="black"/>
<path opacity="0.1" d="M172.579 196.434H154.99V204.995H172.579V196.434Z" fill="black"/>
<path opacity="0.1" d="M154.99 197.666H192.159L154.99 198.723V197.666Z" fill="black"/>
<path opacity="0.1" d="M196.746 199.152L164.527 199.955H196.746V199.152Z" fill="black"/>
<path opacity="0.1" d="M156.695 201.55L172.579 200.89L195.932 201.55L172.579 201.914L156.695 201.55Z" fill="black"/>
<path opacity="0.1" d="M154.99 203.366H182.512L154.99 204.015V203.366Z" fill="black"/>
<path opacity="0.1" d="M196.692 204.015L178.311 204.356H196.747L196.692 204.015Z" fill="black"/>
<path d="M224.565 221.951L225.643 217.847H270.248L290.796 219.904L291.577 221.951H224.565Z" fill="black"/>
<path opacity="0.4" d="M270.248 217.847V221.951H224.565L225.643 217.847H270.248Z" fill="black"/>
<path d="M261.295 198.205C261.493 200.373 259.909 202.134 257.753 202.134H189.421C187.254 202.134 185.34 200.373 185.142 198.205L181.083 154.445C181.039 153.993 181.072 153.564 181.171 153.168C181.556 151.628 182.909 150.516 184.625 150.516H252.957C255.124 150.516 257.038 152.277 257.236 154.445L261.295 198.205Z" fill="black"/>
<path opacity="0.4" d="M257.511 202.134H189.421C187.254 202.134 185.34 200.373 185.142 198.205L181.083 154.445C181.039 153.993 181.072 153.564 181.171 153.168H249.261C251.417 153.168 253.331 154.929 253.54 157.096L257.599 200.857C257.643 201.308 257.599 201.737 257.511 202.134Z" fill="black"/>
<path d="M210.563 175.285H224.698L220.936 215.778L243.288 219.134V221.951H196.208V219.134L205.855 215.778L210.563 175.285Z" fill="black"/>
<path opacity="0.1" d="M224.697 175.285L214.225 221.313L205.854 221.06L210.562 175.285H224.697Z" fill="white"/>
<path d="M224.631 398.457H217.899L205.788 229.829H214.731L224.631 398.457Z" fill="black"/>
<path opacity="0.4" d="M224.642 398.457H217.899L206.382 238.203L205.788 230.104H214.731L215.215 238.203L224.642 398.457Z" fill="white"/>
<path opacity="0.2" d="M215.215 237.807H206.382L205.788 230.104H214.731L215.215 237.807Z" fill="black"/>
<path d="M274.087 398.457H267.355L266.255 229.829H275.187L274.087 398.457Z" fill="black"/>
<path opacity="0.5" d="M275.198 230.104L275.022 257.305L274.098 398.457H267.355L266.431 257.305L266.255 230.104H275.198Z" fill="white"/>
<path opacity="0.2" d="M275.198 230.104L275.022 257.613H266.431L266.255 230.104H275.198Z" fill="black"/>
<path d="M345.631 398.457H338.899L326.788 229.829H335.731L345.631 398.457Z" fill="black"/>
<path opacity="0.5" d="M345.642 398.457H338.899L327.382 238.203L326.788 230.104H335.731L336.215 238.203L345.642 398.457Z" fill="white"/>
<path opacity="0.2" d="M336.215 237.807H327.382L326.788 230.104H335.731L336.215 237.807Z" fill="black"/>
<path d="M147.544 398.457H140.812L150.712 229.829H159.655L147.544 398.457Z" fill="black"/>
<path opacity="0.5" d="M159.655 230.104L159.061 238.203L147.544 398.457H140.812L150.228 238.203L150.712 230.104H159.655Z" fill="white"/>
<path opacity="0.2" d="M150.712 230.104H159.655L159.061 237.807H150.228L150.712 230.104Z" fill="black"/>
<path d="M143.627 225.604H342.815V231.667C342.815 232.976 341.748 234.044 340.439 234.044H146.003C144.694 234.044 143.627 232.976 143.627 231.667V225.604Z" fill="#181818"/>
<path opacity="0.6" d="M143.627 225.604H342.815V231.667C342.815 232.976 341.748 234.044 340.439 234.044H146.003C144.694 234.044 143.627 232.976 143.627 231.667V225.604Z" fill="white"/>
<path opacity="0.2" d="M342.815 225.604H143.627V229.829H342.815V225.604Z" fill="black"/>
<path d="M346.995 226.715H139.447C138.138 226.715 137.071 225.648 137.071 224.339C137.071 223.029 138.138 221.962 139.447 221.962H346.995C348.304 221.962 349.371 223.029 349.371 224.339C349.371 225.648 348.304 226.715 346.995 226.715Z" fill="#181818"/>
<path opacity="0.6" d="M346.995 226.715H139.447C138.138 226.715 137.071 225.648 137.071 224.339C137.071 223.029 138.138 221.962 139.447 221.962H346.995C348.304 221.962 349.371 223.029 349.371 224.339C349.371 225.648 348.304 226.715 346.995 226.715Z" fill="white"/>
<path d="M297.892 214.623L300.444 210.793C300.95 210.034 301.808 209.572 302.732 209.572H305.966C306.241 209.572 306.505 209.616 306.758 209.693L318.297 213.192C318.957 213.39 319.507 213.83 319.859 214.414L321.509 217.197L297.881 214.623H297.892Z" fill="#181818"/>
<path opacity="0.2" d="M321.52 217.197L304.723 215.371L297.892 214.623L300.444 210.793C300.95 210.034 301.808 209.572 302.732 209.572H305.966C306.241 209.572 306.505 209.616 306.769 209.693L307.022 209.77L318.297 213.192C318.957 213.39 319.518 213.819 319.87 214.414L321.52 217.197Z" fill="black"/>
<path opacity="0.2" d="M321.52 217.197L304.723 215.371L307.022 209.77L318.297 213.192C318.957 213.39 319.518 213.819 319.87 214.413L321.52 217.197Z" fill="black"/>
<path d="M329.506 221.588V221.951H293.844L295.164 216.79C295.681 214.854 297.441 213.5 299.443 213.5H315.261C315.789 213.5 316.306 213.588 316.801 213.775L318.781 214.513L326.635 217.439C328.362 218.089 329.506 219.739 329.506 221.588Z" fill="#181818"/>
<path opacity="0.2" d="M329.505 221.588V221.951H314.864L315.645 216.372C315.854 214.898 317.383 213.995 318.78 214.513L326.634 217.439C328.361 218.089 329.505 219.739 329.505 221.588Z" fill="black"/>
<path d="M317.142 218.155L321.795 204.169C321.993 203.564 322.686 203.289 323.258 203.575C323.687 203.795 323.907 204.29 323.786 204.763L319.859 219.695C319.859 219.695 317.252 220.752 317.142 218.155Z" fill="black"/>
<path opacity="0.2" d="M297.892 220.796H295.824L296.22 218.76H298.288L297.892 220.796Z" fill="black"/>
<path opacity="0.2" d="M300.971 220.707H298.903L299.299 218.683H301.367L300.971 220.707Z" fill="black"/>
</g>
<defs>
<clipPath id="clip0_91_1078">
<rect width="550" height="410" fill="white"/>
</clipPath>
</defs>
</svg>
