<svg width="22" height="23" viewBox="0 0 22 23" fill="none" xmlns="http://www.w3.org/2000/svg">
<path d="M20.3125 0.6875C21.1426 0.6875 21.875 1.41992 21.875 2.29883V21C21.875 21.8789 21.1426 22.5625 20.3125 22.5625H1.51367C0.683594 22.5625 0 21.8789 0 21V2.29883C0 1.41992 0.683594 0.6875 1.51367 0.6875H20.3125ZM6.5918 19.4375V9.03711H3.36914V19.4375H6.5918ZM4.98047 7.57227C6.00586 7.57227 6.83594 6.74219 6.83594 5.7168C6.83594 4.69141 6.00586 3.8125 4.98047 3.8125C3.90625 3.8125 3.07617 4.69141 3.07617 5.7168C3.07617 6.74219 3.90625 7.57227 4.98047 7.57227ZM18.75 19.4375V13.7246C18.75 10.9414 18.1152 8.74414 14.8438 8.74414C13.2812 8.74414 12.207 9.62305 11.7676 10.4531H11.7188V9.03711H8.64258V19.4375H11.8652V14.3105C11.8652 12.9434 12.1094 11.625 13.8184 11.625C15.4785 11.625 15.4785 13.1875 15.4785 14.3594V19.4375H18.75Z" fill="#050505"/>
</svg>
