<svg width="24" height="24" viewBox="0 0 24 24" fill="none" xmlns="http://www.w3.org/2000/svg">
<path fill-rule="evenodd" clip-rule="evenodd" d="M8.95192 6.90749C8.95192 5.16641 10.3633 3.75499 12.1044 3.75499C13.8455 3.75499 15.2569 5.16641 15.2569 6.90749V8.11999H8.95192V6.90749ZM7.49692 8.18808V6.90749C7.49692 4.36284 9.55977 2.29999 12.1044 2.29999C14.6491 2.29999 16.7119 4.36284 16.7119 6.90749V8.18808C18.507 8.5286 19.8644 10.1058 19.8644 12V17.82C19.8644 19.9629 18.1273 21.7 15.9844 21.7H8.22442C6.08156 21.7 4.34442 19.9629 4.34442 17.82V12C4.34442 10.1058 5.7018 8.5286 7.49692 8.18808ZM12.1044 13.2125C12.5062 13.2125 12.8319 13.5382 12.8319 13.94V15.88C12.8319 16.2818 12.5062 16.6075 12.1044 16.6075C11.7026 16.6075 11.3769 16.2818 11.3769 15.88V13.94C11.3769 13.5382 11.7026 13.2125 12.1044 13.2125Z" fill="#E41C34"/>
</svg>
