<svg width="223" height="53" viewBox="0 0 223 53" fill="none" xmlns="http://www.w3.org/2000/svg">
<path d="M35.3587 51.5598C36.0613 51.1277 36.6856 50.6007 37.2364 49.9883C36.961 50.209 36.6738 50.4156 36.3699 50.6007C29.0918 55.0659 16.3751 47.5741 7.96702 33.8699C0.373124 21.4904 -1.10815 8.27766 4.0407 2.54485C-2.27607 7.6296 -1.09865 21.6993 6.95576 34.829C15.3639 48.5355 28.0805 56.0249 35.3587 51.5598Z" fill="#E41C34"/>
<path d="M36.9017 48.0417C40.2179 46.0074 41.73 41.7178 41.5164 36.3672C41.2624 40.1084 39.9093 43.0614 37.4215 44.5902C31.2875 48.3527 20.5697 42.0407 13.4862 30.4896C6.40027 18.9385 5.62878 6.52577 11.7628 2.76325C14.7467 0.933022 18.8154 1.48613 23.0242 3.86945C17.543 0.0523305 12.0452 -1.15595 8.17827 1.21788C1.31077 5.43144 2.17485 19.3279 10.1058 32.2557C18.0368 45.186 30.0342 52.2529 36.9017 48.0394V48.0417Z" fill="#E41C34"/>
<path d="M36.0993 41.6609C33.6471 43.268 30.2336 42.919 26.6538 41.0532C29.2864 42.0834 31.7362 42.1119 33.5783 40.9036C38.1171 37.9316 37.2577 28.5929 31.6602 20.0471C26.0627 11.5013 17.8445 6.98393 13.3058 9.95597C11.0981 11.4016 10.1675 14.3547 10.4382 17.9914C9.59783 13.0277 10.5426 8.89012 13.4055 7.01479C18.4855 3.68667 27.6864 8.74531 33.951 18.3119C40.2179 27.8784 41.1793 38.3328 36.0969 41.6609H36.0993Z" fill="#181818"/>
<path d="M56.4321 31.7037C54.9321 30.8689 53.7414 29.6981 52.86 28.1981C51.9786 26.6981 51.5362 25.0118 51.5362 23.1393C51.5362 21.2667 51.9753 19.5838 52.86 18.0938C53.7414 16.6037 54.9321 15.4396 56.4321 14.6015C57.9321 13.7666 59.5818 13.3476 61.3812 13.3476C63.1805 13.3476 64.8302 13.7666 66.3302 14.6015C67.8302 15.4396 69.011 16.6004 69.8757 18.0938C70.7405 19.5838 71.1695 21.2667 71.1695 23.1393C71.1695 25.0118 70.7338 26.6981 69.8591 28.1981C68.9877 29.6981 67.8036 30.8656 66.3136 31.7037C64.8235 32.5418 63.1772 32.9576 61.3778 32.9576C59.5785 32.9576 57.9288 32.5385 56.4288 31.7037H56.4321ZM65.0497 27.177C65.9677 26.1593 66.4267 24.8123 66.4267 23.1393C66.4267 21.4663 65.9677 20.0993 65.0497 19.0882C64.1317 18.0805 62.9078 17.5749 61.3812 17.5749C59.8545 17.5749 58.604 18.0738 57.686 19.0749C56.768 20.076 56.309 21.4297 56.309 23.1393C56.309 24.8488 56.768 26.1792 57.686 27.1903C58.604 28.1981 59.8346 28.7037 61.3812 28.7037C62.9277 28.7037 64.1317 28.1948 65.0497 27.177Z" fill="#181818"/>
<path d="M97.6976 19.1015C98.8151 20.2457 99.3739 21.8388 99.3739 23.8743V32.7647H94.7375V24.4996C94.7375 23.5184 94.4781 22.7601 93.9592 22.2213C93.4403 21.6858 92.7286 21.4164 91.8173 21.4164C90.9059 21.4164 90.1942 21.6858 89.6753 22.2213C89.1565 22.7568 88.897 23.5151 88.897 24.4996V32.7647H84.2606V24.4996C84.2606 23.5184 84.0012 22.7601 83.4823 22.2213C82.9635 21.6825 82.2517 21.4164 81.3404 21.4164C80.4291 21.4164 79.7173 21.6858 79.1985 22.2213C78.6796 22.7568 78.4202 23.5151 78.4202 24.4996V32.7647H73.7571V17.545H78.4202V19.4541C78.8925 18.8188 79.5111 18.3133 80.2761 17.9408C81.0411 17.5683 81.9025 17.382 82.867 17.382C84.0112 17.382 85.0356 17.6281 85.9369 18.117C86.8383 18.606 87.54 19.3077 88.0522 20.2157C88.5777 19.3809 89.2962 18.6991 90.2075 18.1703C91.1155 17.6448 92.1066 17.3787 93.1809 17.3787C95.0734 17.3787 96.5767 17.9507 97.6943 19.0982L97.6976 19.1015Z" fill="#181818"/>
<path d="M116.912 26.2757H106.358C106.432 27.2203 106.734 27.9453 107.273 28.4442C107.809 28.9431 108.467 29.1926 109.252 29.1926C110.416 29.1926 111.224 28.7003 111.68 27.7192H116.642C116.386 28.7203 115.927 29.6183 115.265 30.4199C114.6 31.2214 113.769 31.8467 112.771 32.3024C111.77 32.758 110.652 32.9842 109.415 32.9842C107.925 32.9842 106.598 32.6649 105.434 32.0296C104.27 31.3944 103.362 30.4831 102.707 29.3023C102.051 28.1216 101.725 26.738 101.725 25.1582C101.725 23.5783 102.048 22.1947 102.693 21.014C103.338 19.8332 104.243 18.9219 105.407 18.2867C106.571 17.6514 107.908 17.3321 109.415 17.3321C110.922 17.3321 112.196 17.6414 113.343 18.26C114.487 18.8787 115.385 19.7601 116.03 20.9042C116.676 22.0483 116.998 23.3854 116.998 24.912C116.998 25.3477 116.972 25.8034 116.915 26.2757H116.912ZM112.222 23.6847C112.222 22.8832 111.949 22.2479 111.404 21.7756C110.859 21.3033 110.177 21.0672 109.359 21.0672C108.54 21.0672 107.918 21.2934 107.38 21.749C106.844 22.2047 106.511 22.8499 106.385 23.6847H112.222Z" fill="#181818"/>
<path d="M128.054 17.984C128.862 18.4197 129.487 18.9918 129.923 19.7035V17.5483H134.586V32.7381C134.586 34.1383 134.31 35.4055 133.755 36.543C133.199 37.6805 132.354 38.5852 131.217 39.257C130.079 39.9289 128.666 40.2648 126.976 40.2648C124.721 40.2648 122.895 39.7326 121.495 38.6683C120.095 37.604 119.293 36.1638 119.094 34.3445H123.704C123.85 34.9266 124.196 35.3856 124.741 35.7215C125.287 36.0574 125.959 36.227 126.76 36.227C127.725 36.227 128.493 35.951 129.065 35.3955C129.637 34.8401 129.923 33.9554 129.923 32.7348V30.5795C129.467 31.2879 128.842 31.8667 128.041 32.3124C127.239 32.758 126.304 32.9809 125.23 32.9809C123.976 32.9809 122.839 32.6583 121.821 32.013C120.803 31.3678 119.998 30.4498 119.406 29.2591C118.814 28.0684 118.522 26.6914 118.522 25.1282C118.522 23.565 118.818 22.1914 119.406 21.0106C119.998 19.8299 120.8 18.9186 121.821 18.2833C122.839 17.6481 123.976 17.3288 125.23 17.3288C126.304 17.3288 127.242 17.5483 128.054 17.984ZM128.955 22.4009C128.31 21.7291 127.525 21.3931 126.597 21.3931C125.669 21.3931 124.884 21.7257 124.239 22.3876C123.594 23.0528 123.271 23.9641 123.271 25.1282C123.271 26.2923 123.594 27.2136 124.239 27.8954C124.884 28.5773 125.673 28.9198 126.597 28.9198C127.522 28.9198 128.31 28.5839 128.955 27.9121C129.601 27.2402 129.923 26.3223 129.923 25.1582C129.923 23.9941 129.601 23.0761 128.955 22.4042V22.4009Z" fill="#181818"/>
<path d="M137.925 21.0106C138.517 19.8299 139.319 18.9186 140.34 18.2833C141.358 17.6481 142.495 17.3288 143.749 17.3288C144.82 17.3288 145.761 17.5483 146.573 17.984C147.385 18.4197 148.007 18.9918 148.442 19.7035V17.5483H153.105V32.768H148.442V30.6128C147.987 31.3212 147.355 31.8933 146.546 32.3323C145.738 32.768 144.797 32.9875 143.723 32.9875C142.485 32.9875 141.358 32.6649 140.34 32.0197C139.322 31.3744 138.517 30.4565 137.925 29.2658C137.333 28.075 137.041 26.6981 137.041 25.1349C137.041 23.5717 137.337 22.198 137.925 21.0173V21.0106ZM147.471 22.4009C146.826 21.7291 146.041 21.3931 145.113 21.3931C144.185 21.3931 143.4 21.7257 142.755 22.3876C142.11 23.0528 141.787 23.9641 141.787 25.1282C141.787 26.2923 142.11 27.2136 142.755 27.8954C143.4 28.5773 144.185 28.9198 145.113 28.9198C146.041 28.9198 146.826 28.5839 147.471 27.9121C148.116 27.2402 148.439 26.3223 148.439 25.1582C148.439 23.9941 148.116 23.0761 147.471 22.4042V22.4009Z" fill="#181818"/>
<path d="M159.554 32.2891C158.563 31.8434 157.785 31.2248 157.223 30.4332C156.657 29.6416 156.368 28.7269 156.351 27.6925H158.996C159.085 28.5839 159.455 29.3323 160.1 29.9409C160.745 30.5496 161.686 30.8556 162.924 30.8556C164.161 30.8556 165.039 30.5596 165.721 29.9709C166.403 29.3788 166.745 28.6205 166.745 27.6925C166.745 26.9642 166.546 26.3755 166.146 25.9198C165.747 25.4641 165.245 25.1216 164.646 24.8821C164.048 24.6459 163.236 24.3898 162.218 24.1171C160.965 23.7912 159.96 23.4619 159.205 23.136C158.45 22.81 157.805 22.2945 157.269 21.596C156.734 20.8976 156.465 19.9563 156.465 18.7723C156.465 17.7345 156.727 16.8166 157.256 16.0183C157.782 15.2201 158.523 14.6015 159.478 14.1624C160.432 13.7267 161.527 13.5072 162.764 13.5072C164.547 13.5072 166.003 13.9529 167.141 14.8443C168.278 15.7356 168.917 16.9163 169.063 18.3898H166.336C166.246 17.6614 165.864 17.0228 165.192 16.4673C164.52 15.9119 163.629 15.6358 162.518 15.6358C161.48 15.6358 160.635 15.9053 159.98 16.4407C159.325 16.9762 158.999 17.7279 158.999 18.6891C158.999 19.3809 159.195 19.943 159.584 20.3787C159.973 20.8144 160.456 21.147 161.031 21.3732C161.603 21.5993 162.408 21.8588 163.446 22.1515C164.7 22.4974 165.711 22.8399 166.472 23.1759C167.237 23.5118 167.889 24.0306 168.435 24.7291C168.98 25.4275 169.253 26.3788 169.253 27.5795C169.253 28.5074 169.007 29.3788 168.518 30.197C168.026 31.0152 167.301 31.6804 166.336 32.1893C165.372 32.6982 164.237 32.9543 162.927 32.9543C161.616 32.9543 160.549 32.7314 159.558 32.2857L159.554 32.2891Z" fill="#E41C34"/>
<path d="M183.378 18.27C184.286 18.7523 185.001 19.474 185.52 20.4386C186.039 21.4031 186.299 22.5739 186.299 23.9575V32.768H183.844V24.3133C183.844 22.8233 183.472 21.6825 182.726 20.8909C181.981 20.0993 180.964 19.7035 179.673 19.7035C178.383 19.7035 177.322 20.1126 176.55 20.9308C175.779 21.749 175.393 22.9397 175.393 24.5029V32.768H172.911V12.5859H175.393V19.9497C175.885 19.1847 176.56 18.596 177.425 18.1769C178.286 17.7578 179.257 17.5483 180.328 17.5483C181.456 17.5483 182.474 17.7911 183.382 18.27H183.378Z" fill="#E41C34"/>
<path d="M193.074 32.0563C191.936 31.421 191.045 30.5163 190.4 29.3422C189.754 28.1682 189.432 26.8112 189.432 25.2646C189.432 23.718 189.764 22.3876 190.426 21.2135C191.091 20.0395 191.993 19.1414 193.14 18.5128C194.284 17.8842 195.568 17.5716 196.985 17.5716C198.402 17.5716 199.686 17.8842 200.83 18.5128C201.974 19.1414 202.879 20.0361 203.544 21.2002C204.209 22.3643 204.538 23.718 204.538 25.2646C204.538 26.8112 204.196 28.1682 203.514 29.3422C202.832 30.5163 201.907 31.421 200.747 32.0563C199.583 32.6915 198.292 33.0108 196.875 33.0108C195.458 33.0108 194.208 32.6915 193.07 32.0563H193.074ZM199.386 30.2004C200.168 29.7813 200.8 29.156 201.282 28.3178C201.764 27.483 202.004 26.4619 202.004 25.2646C202.004 24.0672 201.768 23.0462 201.295 22.2113C200.823 21.3765 200.205 20.7512 199.44 20.3421C198.675 19.933 197.85 19.7301 196.958 19.7301C196.067 19.7301 195.219 19.933 194.464 20.3421C193.709 20.7512 193.104 21.3732 192.651 22.2113C192.196 23.0495 191.969 24.0672 191.969 25.2646C191.969 26.4619 192.192 27.5096 192.638 28.3478C193.084 29.1859 193.679 29.8079 194.424 30.217C195.169 30.6261 195.987 30.8323 196.879 30.8323C197.77 30.8323 198.605 30.6228 199.386 30.2037V30.2004Z" fill="#E41C34"/>
<path d="M212.494 18.433C213.465 17.8609 214.599 17.5749 215.89 17.5749C217.18 17.5749 218.421 17.8942 219.505 18.5295C220.586 19.1647 221.438 20.0627 222.056 21.2169C222.675 22.371 222.984 23.7113 222.984 25.238C222.984 26.7646 222.675 28.0917 222.056 29.2757C221.438 30.4565 220.586 31.3744 219.505 32.0296C218.424 32.6849 217.217 33.0108 215.89 33.0108C214.563 33.0108 213.495 32.7248 212.521 32.1527C211.546 31.5806 210.808 30.8655 210.299 30.0108V39.8557H207.818V17.8177H210.299V20.5716C210.791 19.7168 211.523 19.0051 212.494 18.4297V18.433ZM219.761 22.2912C219.306 21.4563 218.694 20.8177 217.922 20.382C217.15 19.9463 216.299 19.7268 215.371 19.7268C214.443 19.7268 213.622 19.9497 212.847 20.3953C212.075 20.841 211.456 21.4863 210.991 22.3311C210.528 23.1759 210.296 24.1537 210.296 25.2646C210.296 26.3755 210.528 27.3766 210.991 28.2247C211.453 29.0695 212.072 29.7148 212.847 30.1604C213.618 30.6061 214.46 30.829 215.371 30.829C216.282 30.829 217.147 30.6061 217.922 30.1604C218.694 29.7148 219.309 29.0695 219.761 28.2247C220.214 27.3799 220.443 26.3821 220.443 25.238C220.443 24.0938 220.217 23.1293 219.761 22.2912Z" fill="#E41C34"/>
</svg>
