<svg width="45" height="44" viewBox="0 0 45 44" fill="none" xmlns="http://www.w3.org/2000/svg">
<path fill-rule="evenodd" clip-rule="evenodd" d="M11.6673 5.5C7.61723 5.5 4.33398 8.78325 4.33398 12.8333V31.1667C4.33398 35.2168 7.61723 38.5 11.6673 38.5H33.6673C37.7174 38.5 41.0007 35.2168 41.0007 31.1667V12.8333C41.0007 8.78325 37.7174 5.5 33.6673 5.5H11.6673ZM12.43 13.5225C11.7982 13.1013 10.9445 13.272 10.5233 13.9039C10.102 14.5357 10.2728 15.3894 10.9046 15.8107L17.8368 20.4321C20.7619 22.3822 24.5727 22.3822 27.4978 20.4321L34.43 15.8107C35.0619 15.3894 35.2326 14.5357 34.8114 13.9039C34.3902 13.272 33.5365 13.1013 32.9046 13.5225L25.9724 18.144C23.971 19.4783 21.3636 19.4783 19.3622 18.144L12.43 13.5225Z" fill="#E41C34"/>
</svg>
