<svg width="44" height="44" viewBox="0 0 44 44" fill="none" xmlns="http://www.w3.org/2000/svg">
<path d="M12.1846 5.5C13.6837 5.50015 15.0321 6.41278 15.5889 7.80469L17.0801 11.5342C17.7883 13.3048 17.0211 15.3229 15.3154 16.1758L14.667 16.5C14.6709 16.5195 15.5912 21.0912 19.25 24.75C22.9088 28.4088 27.4804 29.3291 27.5 29.333L27.8242 28.6846C28.6771 26.9789 30.6952 26.2117 32.4658 26.9199L36.1953 28.4111C37.5872 28.9679 38.4999 30.3163 38.5 31.8154V34.833C38.5 36.8581 36.8581 38.5 34.833 38.5C18.6329 38.4998 5.50018 25.3671 5.5 9.16699C5.5 7.14195 7.14195 5.5 9.16699 5.5H12.1846ZM23.833 11.458C24.9766 11.458 26.1095 11.6835 27.166 12.1211C28.2225 12.5587 29.1826 13.2002 29.9912 14.0088C30.7998 14.8174 31.4413 15.7775 31.8789 16.834C32.3165 17.8905 32.542 19.0234 32.542 20.167C32.5418 20.9261 31.9261 21.5418 31.167 21.542C30.4077 21.542 29.7922 20.9262 29.792 20.167C29.792 19.3846 29.6373 18.6096 29.3379 17.8867C29.0385 17.1638 28.6002 16.5064 28.0469 15.9531C27.4936 15.3998 26.8362 14.9615 26.1133 14.6621C25.3904 14.3627 24.6154 14.208 23.833 14.208C23.0738 14.2078 22.458 13.5923 22.458 12.833C22.4582 12.0739 23.0739 11.4582 23.833 11.458ZM23.833 4.125C25.9396 4.125 28.0264 4.53953 29.9727 5.3457C31.9188 6.15187 33.6872 7.3337 35.1768 8.82324C36.6663 10.3128 37.8481 12.0812 38.6543 14.0273C39.4605 15.9736 39.875 18.0604 39.875 20.167C39.8748 20.9262 39.2593 21.542 38.5 21.542C37.7407 21.542 37.1252 20.9262 37.125 20.167C37.125 18.4215 36.7812 16.6927 36.1133 15.0801C35.4453 13.4675 34.4667 12.0018 33.2324 10.7676C31.9982 9.53335 30.5325 8.55469 28.9199 7.88672C27.3073 7.21875 25.5785 6.875 23.833 6.875C23.0738 6.87482 22.458 6.25928 22.458 5.5C22.458 4.74072 23.0738 4.12518 23.833 4.125Z" fill="#E41C34"/>
</svg>
