<svg width="1440" height="611" viewBox="0 0 1440 611" fill="none" xmlns="http://www.w3.org/2000/svg">
<g opacity="0.1" clip-path="url(#clip0_12_270)">
<path d="M757.901 104.945C852.855 128.991 934.569 167.452 989.923 210.177C1017.6 231.54 1038.67 253.954 1051.51 276.145C1064.36 298.333 1068.96 320.27 1063.79 340.715C1058.61 361.161 1044.12 378.26 1022.26 391.662C1000.4 405.065 971.205 414.75 936.696 420.365C867.679 431.596 777.509 426.53 682.554 402.484C587.6 378.438 505.887 339.977 450.533 297.253C422.856 275.89 401.788 253.476 388.943 231.285C376.1 209.096 371.493 187.161 376.671 166.715C381.848 146.269 396.34 129.169 418.196 115.768C440.055 102.365 469.251 92.6792 503.76 87.064C572.777 75.834 662.947 80.8997 757.901 104.945Z" stroke="#E41C34"/>
<path d="M775.02 37.3434C913.005 72.2858 1031.76 128.179 1112.21 190.279C1152.44 221.329 1183.08 253.915 1201.76 286.191C1220.44 318.464 1227.15 350.396 1219.61 380.176C1212.07 409.956 1190.97 434.842 1159.18 454.335C1127.39 473.829 1084.94 487.908 1034.78 496.07C934.464 512.392 803.42 505.028 665.435 470.086C527.45 435.144 408.696 379.25 328.241 317.151C288.013 286.101 257.38 253.514 238.698 221.238C220.017 188.965 213.302 157.034 220.843 127.254C228.385 97.4742 249.488 72.5872 281.277 53.0947C313.069 33.6006 355.52 19.5215 405.678 11.36C505.992 -4.96271 637.035 2.4011 775.02 37.3434Z" stroke="#E41C34"/>
<path d="M795.851 -44.9152C986.196 3.28649 1150.02 80.391 1261.02 166.066C1316.52 208.903 1358.79 253.869 1384.58 298.416C1410.36 342.96 1419.64 387.055 1409.22 428.192C1398.81 469.329 1369.66 503.692 1325.78 530.596C1281.9 557.502 1223.32 576.928 1154.12 588.188C1015.73 610.708 834.95 600.547 644.605 552.345C454.26 504.144 290.434 427.039 179.435 341.364C123.935 298.526 81.6624 253.561 55.8777 209.014C30.0947 164.47 20.8133 120.375 31.2306 79.2377C41.648 38.1004 70.7976 3.73727 114.674 -23.1667C158.553 -50.0724 217.132 -69.4987 286.331 -80.7586C424.728 -103.278 605.506 -93.117 795.851 -44.9152Z" stroke="#E41C34"/>
</g>
<defs>
<clipPath id="clip0_12_270">
<rect width="1440" height="611" fill="white"/>
</clipPath>
</defs>
</svg>
