<svg width="24" height="24" viewBox="0 0 24 24" fill="none" xmlns="http://www.w3.org/2000/svg">
<path fill-rule="evenodd" clip-rule="evenodd" d="M5.6363 4.9302L10.5229 2.65437C11.5341 2.18341 12.6884 2.18341 13.6997 2.65437L18.5668 4.92117C19.9901 5.58405 20.9244 7.07389 20.8247 8.70268C20.4421 14.9503 18.7376 17.7746 14.1299 21.0511C12.9139 21.9158 11.3099 21.9137 10.093 21.0504C5.49947 17.7916 3.73168 15.0067 3.38005 8.68077C3.29011 7.06268 4.22286 5.58848 5.6363 4.9302ZM15.5601 10.5392C15.8246 10.2369 15.794 9.77733 15.4916 9.51278C15.1893 9.24823 14.7297 9.27887 14.4652 9.58121L11.6817 12.7623C11.5963 12.86 11.4491 12.873 11.3478 12.792L9.64774 11.432C9.33403 11.181 8.87628 11.2319 8.62532 11.5456C8.37435 11.8593 8.42521 12.317 8.73892 12.568L10.4389 13.928C11.1482 14.4954 12.1785 14.4039 12.7766 13.7203L15.5601 10.5392Z" fill="#E41C34"/>
</svg>
