<svg width="151" height="22" viewBox="0 0 151 22" fill="none" xmlns="http://www.w3.org/2000/svg">
<path d="M11.5 1L14.59 7.26L21.5 8.27L16.5 13.14L17.68 20.02L11.5 16.77L5.32 20.02L6.5 13.14L1.5 8.27L8.41 7.26L11.5 1Z" fill="#FFAD33" stroke="#FFAD33" stroke-width="2" stroke-linecap="round" stroke-linejoin="round"/>
<path d="M43.5 1L46.59 7.26L53.5 8.27L48.5 13.14L49.68 20.02L43.5 16.77L37.32 20.02L38.5 13.14L33.5 8.27L40.41 7.26L43.5 1Z" fill="#FFAD33" stroke="#FFAD33" stroke-width="2" stroke-linecap="round" stroke-linejoin="round"/>
<path d="M75.5 1L78.59 7.26L85.5 8.27L80.5 13.14L81.68 20.02L75.5 16.77L69.32 20.02L70.5 13.14L65.5 8.27L72.41 7.26L75.5 1Z" fill="#FFAD33" stroke="#FFAD33" stroke-width="2" stroke-linecap="round" stroke-linejoin="round"/>
<path d="M107.5 1L110.59 7.26L117.5 8.27L112.5 13.14L113.68 20.02L107.5 16.77L101.32 20.02L102.5 13.14L97.5 8.27L104.41 7.26L107.5 1Z" fill="#FFAD33" stroke="#FFAD33" stroke-width="2" stroke-linecap="round" stroke-linejoin="round"/>
<path d="M139.5 1L142.59 7.26L149.5 8.27L144.5 13.14L145.68 20.02L139.5 16.77L133.32 20.02L134.5 13.14L129.5 8.27L136.41 7.26L139.5 1Z" fill="#FFAD33" stroke="#FFAD33" stroke-width="2" stroke-linecap="round" stroke-linejoin="round"/>
<path d="M141.5 7.05086L149.5 8.32086L144.5 13.1909L145.68 20.0709L143.59 18.8109L141.5 17.5509V16.5509V13.1909V10.0509V7.05086Z" fill="white"/>
</svg>
