<svg width="21" height="21" viewBox="0 0 21 21" fill="none" xmlns="http://www.w3.org/2000/svg">
<path d="M8 18C8.82843 18 9.5 18.6716 9.5 19.5C9.5 20.3284 8.82843 21 8 21C7.17157 21 6.5 20.3284 6.5 19.5C6.5 18.6716 7.17157 18 8 18ZM17 18C17.8284 18 18.5 18.6716 18.5 19.5C18.5 20.3284 17.8284 21 17 21C16.1716 21 15.5 20.3284 15.5 19.5C15.5 18.6716 16.1716 18 17 18ZM3.25 0.25C4.76878 0.25 6 1.48122 6 3H16.5C18.7091 3 20.5 4.79086 20.5 7V12C20.5 14.2091 18.7091 16 16.5 16H8.5C6.29086 16 4.5 14.2091 4.5 12V3C4.5 2.30964 3.94036 1.75 3.25 1.75H1.25C0.835786 1.75 0.5 1.41421 0.5 1C0.5 0.585786 0.835786 0.25 1.25 0.25H3.25ZM9.5 10.75C9.08579 10.75 8.75 11.0858 8.75 11.5C8.75 11.9142 9.08579 12.25 9.5 12.25H15.5C15.9142 12.25 16.25 11.9142 16.25 11.5C16.25 11.0858 15.9142 10.75 15.5 10.75H9.5ZM9.5 6.75C9.08579 6.75 8.75 7.08579 8.75 7.5C8.75 7.91421 9.08579 8.25 9.5 8.25H15.5C15.9142 8.25 16.25 7.91421 16.25 7.5C16.25 7.08579 15.9142 6.75 15.5 6.75H9.5Z" fill="white"/>
</svg>
