<svg width="28" height="19" viewBox="0 0 28 19" fill="none" xmlns="http://www.w3.org/2000/svg">
<path d="M26.8066 3.22852C27.3926 5.2793 27.3926 9.67383 27.3926 9.67383C27.3926 9.67383 27.3926 14.0195 26.8066 16.1191C26.5137 17.291 25.5859 18.1699 24.4629 18.4629C22.3633 19 14.0625 19 14.0625 19C14.0625 19 5.71289 19 3.61328 18.4629C2.49023 18.1699 1.5625 17.291 1.26953 16.1191C0.683594 14.0195 0.683594 9.67383 0.683594 9.67383C0.683594 9.67383 0.683594 5.2793 1.26953 3.22852C1.5625 2.05664 2.49023 1.12891 3.61328 0.835938C5.71289 0.25 14.0625 0.25 14.0625 0.25C14.0625 0.25 22.3633 0.25 24.4629 0.835938C25.5859 1.12891 26.5137 2.05664 26.8066 3.22852ZM11.3281 13.6289L18.2617 9.67383L11.3281 5.71875V13.6289Z" fill="#050505"/>
</svg>
