<svg width="100" height="100" viewBox="0 0 100 100" fill="none" xmlns="http://www.w3.org/2000/svg">
<g clip-path="url(#clip0_11_742)">
<path d="M92.1909 60.3333C86.3471 83.7711 62.6059 98.0348 39.1627 92.1902C15.7294 86.3471 1.46404 62.6069 7.3104 39.1711C13.1516 15.7308 36.8929 1.46602 60.3288 7.30915C83.7702 13.1523 98.0347 36.895 92.1903 60.3338L92.1907 60.3333H92.1909Z" fill="#F7931A"/>
<path d="M69.044 43.5168C69.9148 37.6946 65.4817 34.565 59.4198 32.4772L61.3863 24.5906L56.585 23.3943L54.6706 31.0733C53.4083 30.7585 52.1121 30.4619 50.8237 30.1679L52.752 22.4382L47.9536 21.2419L45.986 29.126C44.9414 28.8882 43.9155 28.6532 42.9202 28.4056L42.9257 28.3808L36.3045 26.7275L35.0273 31.8551C35.0273 31.8551 38.5895 32.6716 38.5144 32.7218C40.4587 33.2071 40.8103 34.494 40.7519 35.514L38.5119 44.4988C38.6458 44.5328 38.8194 44.582 39.011 44.6589C38.8509 44.6192 38.6804 44.5757 38.5035 44.5334L35.3637 57.1197C35.1261 57.7104 34.523 58.5968 33.1636 58.2602C33.2117 58.3299 29.6739 57.3894 29.6739 57.3894L27.2901 62.8848L33.5383 64.4423C34.7007 64.7337 35.8398 65.0387 36.9615 65.3254L34.9747 73.3025L39.7705 74.4988L41.7381 66.6064C43.0483 66.962 44.3197 67.29 45.5645 67.5993L43.6035 75.4545L48.4051 76.6507L50.3917 68.6886C58.5791 70.2379 64.7353 69.6133 67.3266 62.2086C69.4146 56.247 67.2226 52.8084 62.9153 50.566C66.0526 49.8426 68.4156 47.7794 69.0457 43.5174L69.0442 43.5164L69.044 43.5168ZM58.0739 58.8979C56.5901 64.8595 46.5515 61.6368 43.2968 60.8287L45.9334 50.2604C49.1878 51.0728 59.6247 52.6805 58.0741 58.8979H58.0739ZM59.5588 43.4304C58.2052 48.8531 49.85 46.0981 47.1396 45.4226L49.53 35.8378C52.2404 36.5133 60.9689 37.7742 59.5592 43.4304H59.5588Z" fill="white"/>
</g>
<defs>
<clipPath id="clip0_11_742">
<rect width="87.5" height="87.5" fill="white" transform="translate(6 6)"/>
</clipPath>
</defs>
</svg>
