<svg width="100" height="100" viewBox="0 0 100 100" fill="none" xmlns="http://www.w3.org/2000/svg">
<path fill-rule="evenodd" clip-rule="evenodd" d="M23.6026 14.1188L8.40151 46.0422C8.34072 46.1579 8.31979 46.2903 8.34195 46.4191C8.3641 46.5479 8.42812 46.6658 8.52407 46.7544L49.5582 86.0945C49.6763 86.2009 49.8296 86.2598 49.9886 86.2598C50.1475 86.2598 50.3008 86.2009 50.4189 86.0945L91.4776 46.7544C91.5725 46.6651 91.6359 46.5473 91.658 46.4188C91.6801 46.2903 91.6598 46.1581 91.6001 46.0422L76.3991 14.1188C76.3587 14.0078 76.2843 13.9124 76.1865 13.8461C76.0887 13.7798 75.9724 13.7461 75.8543 13.7498H24.1419C24.0253 13.753 23.9121 13.7894 23.8156 13.8548C23.7191 13.9202 23.6433 14.0118 23.5971 14.1188H23.6026Z" fill="#50AF95"/>
<path fill-rule="evenodd" clip-rule="evenodd" d="M55.282 49.3081C54.9879 49.3326 53.4653 49.4307 50.0756 49.4307C47.3751 49.4307 45.4589 49.3571 44.7712 49.3081C34.3353 48.8423 26.5509 47.0242 26.5509 44.863C26.5509 42.7017 34.3353 40.8605 44.7712 40.3947V47.4914C45.4521 47.5404 47.3996 47.663 50.1002 47.663C53.3414 47.663 54.962 47.5159 55.2575 47.4914V40.3947C65.6689 40.8605 73.4533 42.6786 73.4533 44.8385C73.4533 46.9984 65.6907 48.8423 55.282 49.3081ZM55.282 39.6825V33.3212H69.8199V23.6221H30.2347V33.3212H44.7712V39.6825C32.9598 40.2272 24.071 42.5546 24.071 45.3791C24.071 48.2036 32.9598 50.512 44.7712 51.0758V71.4342H55.282V51.0758C67.0689 50.531 75.9346 48.2023 75.9346 45.4036C75.9346 42.605 67.0689 40.2218 55.282 39.6838V39.6825Z" fill="white"/>
</svg>
