<svg width="100" height="100" viewBox="0 0 100 100" fill="none" xmlns="http://www.w3.org/2000/svg">
<path fill-rule="evenodd" clip-rule="evenodd" d="M50 93.75C74.1626 93.75 93.75 74.1626 93.75 50C93.75 25.8376 74.1626 6.25 50 6.25C25.8376 6.25 6.25 25.8376 6.25 50C6.25 74.1626 25.8376 93.75 50 93.75Z" fill="#8247E5"/>
<g clip-path="url(#clip0_11_731)">
<path d="M63.1019 42.2249C62.2066 41.7506 61.0547 41.7506 60.0311 42.2249L52.867 46.1425L48.0057 48.6343L40.9689 52.5545C40.0736 53.0289 38.9217 53.0289 37.8981 52.5545L32.3991 49.4685C31.9315 49.2129 31.5438 48.8485 31.2744 48.4113C31.0051 47.9741 30.8633 47.4793 30.8632 46.9758V41.0381C30.8632 40.0885 31.3755 39.1389 32.3991 38.5454L37.8981 35.5784C38.7934 35.1031 39.9453 35.1031 40.9689 35.5784L46.4679 38.6645C46.9357 38.9199 47.3234 39.2843 47.5928 39.7215C47.8622 40.1587 48.0038 40.6536 48.0037 41.1572V45.0738L52.8651 42.4621V38.4273C52.8651 37.4777 52.3537 36.528 51.3302 35.9346L41.0962 30.3577C40.2009 29.8824 39.05 29.8824 38.0264 30.3577L27.5349 36.0528C26.5113 36.528 26 37.4777 26 38.4273V49.5839C26 50.5335 26.5113 51.4805 27.5349 52.0766L37.8981 57.6562C38.7934 58.1315 39.9453 58.1315 40.9689 57.6562L48.0057 53.8577L52.867 51.2469L59.9038 47.4484C60.7991 46.974 61.951 46.974 62.9745 47.4484L68.4735 50.4163C68.942 50.672 69.3303 51.0369 69.5999 51.4748C69.8694 51.9126 70.0109 52.4083 70.0104 52.9125V58.8466C70.0104 59.7963 69.4991 60.7459 68.4755 61.3393L63.1019 64.3072C62.2066 64.7816 61.0547 64.7816 60.0311 64.3072L54.5321 61.3393C54.0646 61.0837 53.6771 60.7192 53.4079 60.2821C53.1387 59.8449 52.9971 59.3501 52.9972 58.8466V55.0445L48.133 57.6562V61.5729C48.133 62.5225 48.6453 63.4722 49.6689 64.0656L60.0311 69.6443C60.9274 70.1196 62.0783 70.1196 63.1019 69.6443L73.4651 64.0647C73.9326 63.809 74.3202 63.4446 74.5894 63.0075C74.8586 62.5703 75.0001 62.0755 75 61.572V50.2946C75 49.3449 74.4887 48.3953 73.4651 47.8019L63.1019 42.2249Z" fill="white"/>
</g>
<defs>
<clipPath id="clip0_11_731">
<rect width="49" height="40" fill="white" transform="translate(26 30)"/>
</clipPath>
</defs>
</svg>
