<svg width="100" height="100" viewBox="0 0 100 100" fill="none" xmlns="http://www.w3.org/2000/svg">
<path fill-rule="evenodd" clip-rule="evenodd" d="M50 93.75C74.1626 93.75 93.75 74.1626 93.75 50C93.75 25.8376 74.1626 6.25 50 6.25C25.8376 6.25 6.25 25.8376 6.25 50C6.25 74.1626 25.8376 93.75 50 93.75Z" fill="#EAEAEA"/>
<path d="M50 64.6345V79.6295L68.5185 53.7036L50 64.6345Z" fill="#3C3C3B"/>
<path d="M50.0704 20.3704L68.5185 50.3754L50.0704 61.1111L31.4814 50.3754" fill="#343434"/>
<path d="M50 20.3704V42.2464L31.4814 50.5538M31.4814 54.0152L50 64.8148V79.6296" fill="#8C8C8C"/>
<path d="M50 42.5925V61.111L68.5185 50.6441" fill="#141414"/>
<path d="M31.4814 50.6441L50 42.5925V61.111" fill="#393939"/>
</svg>
