<svg width="99" height="100" viewBox="0 0 99 100" fill="none" xmlns="http://www.w3.org/2000/svg">
<path d="M69.4047 13.7026C67.1506 15.9539 65.0854 18.394 63.2497 20.9958L62.6693 20.8071C59.3218 19.7151 55.8528 19.041 52.3568 18.8119C51.3039 18.731 47.376 18.731 46.0937 18.8119C42.2198 19.068 39.2502 19.6477 35.8757 20.8205C35.7407 20.8745 35.6193 20.9149 35.4978 20.9553C33.5946 18.367 31.4754 15.9404 29.1402 13.7161C40.3436 7.98664 53.4501 7.29911 65.1799 11.8152C66.4352 12.2871 67.6635 12.8398 68.8648 13.433L69.4047 13.7026Z" fill="#F00500"/>
<path d="M90.2993 64.8361C88.5986 69.6758 86.0475 74.1649 82.7404 78.0744C80.9452 80.1775 78.961 82.1052 76.8283 83.8578C71.8341 87.8751 66.0029 90.7465 59.7803 92.2564C52.8964 93.9146 45.7154 93.9146 38.8314 92.2564C32.5954 90.7465 26.7777 87.8751 21.7835 83.8578C19.6508 82.1052 17.6666 80.1775 15.8713 78.0744C6.35526 66.8448 3.46668 51.4225 8.31247 37.5236C9.23033 34.9488 10.3777 32.4683 11.7545 30.1091C12.3889 29.0306 13.1718 27.8173 13.5497 27.3185C14.8455 32.8862 16.4383 37.7798 17.0322 39.5458C16.9917 39.6401 16.9377 39.748 16.8837 39.8424C13.7387 46.2054 12.0379 52.3392 11.633 58.864C11.633 58.9449 11.6195 59.0393 11.6195 59.1202C11.5115 61.0749 11.5655 62.0051 11.8894 63.2319C12.9018 67.0739 16.0198 71.307 20.9061 75.4591C28.9104 82.2535 39.7628 87.1606 47.9831 87.7268C56.5543 88.3065 69.2019 83.305 77.6247 75.9984C78.9475 74.8255 80.1893 73.5853 81.3501 72.2641C82.187 71.2935 83.4288 69.6218 83.3344 69.6218C83.3074 69.6218 83.3344 69.5949 83.3884 69.5679C83.4289 69.541 83.4693 69.5005 83.4423 69.4736C83.4288 69.4601 83.4558 69.4196 83.4963 69.4062C83.5368 69.3927 83.5638 69.3657 83.5503 69.3387C83.5368 69.3118 83.5503 69.2848 83.6043 69.2713C83.6448 69.2579 83.6583 69.2174 83.6448 69.1905C83.6313 69.1635 83.6448 69.1365 83.6718 69.1365C83.6988 69.1365 83.7258 69.0961 83.7258 69.0691C83.7258 69.0422 83.7528 69.0017 83.7798 69.0017C83.8068 69.0017 83.8338 68.9748 83.8338 68.9478C83.8743 68.84 83.9418 68.7321 84.0093 68.6377C84.2117 68.3277 85.0216 66.8852 85.1296 66.6425C85.899 64.9035 86.3849 63.3532 86.6144 61.8029C86.7223 61.0614 86.7898 59.6998 86.7358 59.3763C86.7224 59.3224 86.7224 59.228 86.7089 59.0797C86.6819 58.8101 86.6684 58.4057 86.6414 58.0012C86.6144 57.3946 86.5604 56.5453 86.5199 56.1274C85.9395 50.007 84.3737 45.0056 81.4041 39.7075C81.2827 39.5053 81.1747 39.3031 81.1072 39.1413C81.0802 39.1009 81.0667 39.0605 81.0532 39.0335C81.4716 37.7798 83.1859 32.5357 84.5492 26.5366L84.5762 26.5636L84.7786 26.8332C85.1296 27.305 86.0609 28.7071 86.4794 29.3811C88.3826 32.4817 89.8674 35.8115 90.9202 39.2896C93.3634 47.6613 93.1609 56.5857 90.2993 64.8361Z" fill="#F00500"/>
<path d="M72.7789 48.7261C72.7384 48.9418 72.104 49.5889 71.4696 50.0607C69.6068 51.4223 66.2728 52.6895 62.8848 53.2961C60.9546 53.6466 59.0244 53.7006 58.444 53.4175C58.0661 53.2287 58.0121 53.0804 58.147 52.5951C58.4305 51.584 59.3484 50.4786 60.7792 49.4406C61.5081 48.9148 64.4641 47.1218 65.8409 46.3669C68.1086 45.1267 69.9443 44.3852 71.1861 44.2099C71.5776 44.156 72.05 44.1425 72.1985 44.2099C72.4414 44.3043 72.7114 45.0188 72.8194 45.8816C72.8734 46.3399 72.8464 48.3621 72.7789 48.7261Z" fill="black"/>
<path d="M40.978 53.1884C40.897 53.3502 40.4921 53.5254 40.0331 53.5928C39.5742 53.6603 38.1704 53.6198 37.374 53.5254C34.5125 53.148 31.4754 52.2717 29.2617 51.1932C28.0199 50.5866 27.129 49.9799 26.4676 49.3194L26.0897 48.9284L26.0492 48.4161C25.9817 47.5264 25.9952 46.1244 26.1032 45.6256C26.1707 45.2077 26.3192 44.8032 26.5216 44.4393C26.6296 44.3044 26.6296 44.3044 27.1155 44.3044C27.7095 44.3044 28.2089 44.3988 29.0188 44.655C30.679 45.1672 33.1492 46.4075 36.1592 48.2139C38.6428 49.6968 39.5742 50.4248 40.2896 51.4224C40.7755 52.0425 41.0995 52.9188 40.978 53.1884Z" fill="black"/>
<path d="M60.0905 71.9538C60.0905 71.9943 59.9285 72.6413 59.726 73.4098C59.5236 74.1782 59.3616 74.7983 59.3616 74.8253C59.2131 74.8387 59.0781 74.8522 58.9297 74.8387H58.4977L57.9038 76.2408C57.5799 77.0092 57.2829 77.7237 57.2424 77.8315L57.1614 78.0203L56.878 77.5619L56.5945 77.1035V73.3693L56.4865 73.3963C56.2571 73.4502 54.6238 73.6659 53.9084 73.7333C50.9523 74.0299 47.9828 73.9625 45.0402 73.5446C44.5678 73.4772 44.1628 73.4232 44.1493 73.4367C44.1358 73.4502 44.1494 74.313 44.1764 75.378L44.2168 77.2923L43.9874 77.6428C43.8659 77.8315 43.7444 77.9933 43.7444 78.0068C43.7039 78.0472 43.5689 77.8315 43.2585 77.2114C42.921 76.5643 42.6781 75.8768 42.5026 75.1623L42.4081 74.7713L41.9897 74.7983L41.5712 74.8387L41.4632 74.3399C41.4092 74.0703 41.3418 73.6524 41.3148 73.4232L41.2743 72.9918L40.9233 72.6818C40.7209 72.5065 40.5184 72.3313 40.4779 72.3043C40.4104 72.2504 40.3834 72.156 40.3834 72.0751V71.9134L42.0707 71.9268L43.7579 71.9403L43.8119 72.1156L43.8659 72.2908L44.4463 72.3178C44.7703 72.3313 45.7961 72.3582 46.714 72.3852L48.4012 72.4256L48.8332 71.7516L49.2786 71.0775H49.8455L49.832 69.6755L49.8185 68.2735L49.0761 67.95C46.687 66.8984 45.2832 65.6986 44.7568 64.2427C44.6488 63.9461 44.6488 63.8383 44.6218 62.4902C44.6083 61.1555 44.6083 61.0342 44.7028 60.7376C44.8917 60.0636 45.4182 59.5378 46.0931 59.3626C46.3225 59.2952 46.9299 59.2952 50.1155 59.2952L53.8679 59.3087L54.2863 59.5109C54.7858 59.7535 55.0152 59.9288 55.2987 60.3062C55.6226 60.7376 55.7171 61.0747 55.7171 61.897C55.7171 63.0698 55.6362 64.0809 55.5147 64.4853C55.3392 65.0381 55.0692 65.5638 54.7318 66.0357C54.0569 66.8984 52.8286 67.7612 51.7082 68.1522L51.3843 68.2735L51.3978 69.689L51.4113 71.1045L51.7082 71.1315L52.0052 71.1584L52.4101 71.7651L52.8016 72.3717H54.6103C55.6091 72.3717 56.4865 72.3852 56.5675 72.3987C56.7025 72.4256 56.7295 72.4122 56.8645 72.183L57.0264 71.9403H58.5787C59.7395 71.8864 60.0905 71.9134 60.0905 71.9538Z" fill="black"/>
<path d="M52.9636 75.8229C52.7071 75.9712 52.5317 76.0386 52.4912 76.0116C52.4507 75.9981 52.2617 75.8364 52.0592 75.6881L51.6948 75.3915L51.3168 75.7959C50.4934 76.6857 50.4665 76.7261 50.2235 76.7396C49.8455 76.78 49.7646 76.7126 49.3056 76.0251C49.0627 75.6746 48.8737 75.378 48.8737 75.378C48.8737 75.378 48.6982 75.351 48.4958 75.3376L48.1178 75.2971L47.9423 75.6611L47.7669 76.0251L47.4564 75.9307C47.2134 75.8498 46.9705 75.7555 46.741 75.6476L46.3361 75.4454V74.677L49.9265 74.6905L53.517 74.704L53.5305 75.0679C53.544 75.4993 53.5575 75.4859 52.9636 75.8229Z" fill="black"/>
<path d="M86.7092 59.3766C86.6957 59.3227 86.6957 59.2283 86.6822 59.08C83.4427 58.7295 74.1965 58.5138 65.6118 65.5913C65.6118 65.5913 62.8447 52.9192 49.8866 52.9192C36.9286 52.9192 32.1233 65.5913 32.1233 65.5913C24.8614 57.7858 15.1428 58.352 11.6333 58.8643C11.6333 58.9452 11.6198 59.0396 11.6198 59.1204C11.5118 61.0752 11.5658 62.0054 11.8898 63.2321C12.9021 67.0742 16.0202 71.3073 20.9064 75.4594C28.9108 82.2538 39.7631 87.1609 47.9834 87.7271C56.5547 88.3068 69.2023 83.3053 77.625 75.9986C78.9478 74.8258 80.1897 73.5855 81.3505 72.2644C82.1874 71.2938 83.4292 69.6221 83.3347 69.6221C83.3077 69.6221 83.3347 69.5952 83.3887 69.5682C83.4292 69.5412 83.4697 69.5008 83.4427 69.4738C83.4292 69.4604 83.4562 69.4199 83.4967 69.4064C83.5372 69.393 83.5642 69.366 83.5507 69.339C83.5372 69.3121 83.5507 69.2851 83.6047 69.2716C83.6451 69.2581 83.6586 69.2177 83.6451 69.1907C83.6316 69.1638 83.6451 69.1368 83.6721 69.1368C83.6991 69.1368 83.7261 69.0964 83.7261 69.0694C83.7261 69.0424 83.7531 69.002 83.7801 69.002C83.8071 69.002 83.8341 68.975 83.8341 68.9481C83.8746 68.8402 83.9421 68.7324 84.0096 68.638C84.2121 68.328 85.0219 66.8855 85.1299 66.6428C85.8993 64.9038 86.3852 63.3535 86.6147 61.8032C86.6957 61.0617 86.7632 59.7001 86.7092 59.3766ZM52.9642 75.8234C52.7077 75.9717 52.5323 76.0391 52.4918 76.0121C52.4513 75.9986 52.2623 75.8369 52.0598 75.6886L51.6954 75.392L51.3174 75.7964C50.494 76.6862 50.4671 76.7266 50.2241 76.7401C49.8461 76.7805 49.7652 76.7131 49.3062 76.0256C49.0633 75.6751 48.8743 75.3785 48.8743 75.3785C48.8743 75.3785 48.6988 75.3515 48.4964 75.3381L48.1184 75.2976L47.9429 75.6616L47.7675 76.0256L47.457 75.9312C47.214 75.8503 46.9711 75.756 46.7416 75.6481L46.3367 75.4459V74.6775L49.9271 74.691L53.5176 74.7045L53.5311 75.0684C53.5446 75.4998 53.5581 75.4864 52.9642 75.8234ZM59.7132 73.3968C59.5107 74.1652 59.3487 74.7853 59.3487 74.8123C59.2003 74.8258 59.0653 74.8393 58.9168 74.8258H58.4849L57.9045 76.2413C57.5805 77.0097 57.2835 77.7242 57.2431 77.832L57.1621 78.0208L56.8786 77.5624L56.5952 77.1041V73.3698L56.4872 73.3968C56.2577 73.4507 54.6244 73.6664 53.9091 73.7338C50.953 74.0304 47.9834 73.963 45.0409 73.5451C44.5684 73.4777 44.1635 73.4238 44.15 73.4372C44.1365 73.4507 44.15 74.3135 44.177 75.3785L44.2175 77.2928L43.988 77.6433C43.8665 77.8321 43.7451 77.9938 43.7451 78.0073C43.7046 78.0477 43.5696 77.832 43.2591 77.2119C42.9217 76.5648 42.6787 75.8773 42.5032 75.1628L42.4087 74.7719L41.9903 74.7988L41.5719 74.8393L41.4639 74.3405C41.4099 74.0709 41.3424 73.6529 41.3154 73.4238L41.2749 72.9924L40.924 72.6823C40.7215 72.5071 40.519 72.3318 40.4785 72.3048C40.4111 72.2509 40.3841 72.1565 40.3841 72.0757V71.9139L42.0713 71.9274L43.7585 71.9409L43.8125 72.1161L43.8665 72.2914L44.447 72.3183C44.7709 72.3318 45.7967 72.3588 46.7146 72.3857L48.4019 72.4262L48.8338 71.7521L49.2792 71.0781H49.8462L49.8326 69.6761L49.8192 68.274L49.0768 67.9505C46.6876 66.899 45.2838 65.6992 44.7574 64.2432C44.6494 63.9466 44.6494 63.8388 44.6224 62.4907C44.6089 61.1561 44.6089 61.0347 44.7034 60.7382C44.8924 60.0641 45.4188 59.5384 46.0937 59.3631C46.3232 59.2957 46.9306 59.2957 50.1161 59.2957L53.8686 59.3092L54.287 59.5114C54.7864 59.7541 55.0159 59.9293 55.2993 60.3068C55.6233 60.7382 55.7178 61.0752 55.7178 61.8975C55.7178 63.0704 55.6368 64.0814 55.5153 64.4859C55.3398 65.0386 55.0699 65.5644 54.7324 66.0362C54.0575 66.899 52.8292 67.7618 51.7089 68.1527L51.3849 68.274L51.3984 69.6895L51.4119 71.105L51.7089 71.132L52.0058 71.159L52.4108 71.7656L52.8022 72.3722H54.6109C55.6098 72.3722 56.4872 72.3857 56.5682 72.3992C56.7031 72.4262 56.7301 72.4127 56.8651 72.1835L57.0271 71.9409H58.5794C59.7807 71.9409 60.1316 71.9543 60.1316 71.9948C60.0911 71.9813 59.9157 72.6419 59.7132 73.3968Z" fill="white"/>
<path d="M86.6009 58.0012C86.5739 57.3946 86.5199 56.5453 86.4794 56.1273C85.899 50.007 84.3332 45.0055 81.3637 39.7075C81.2422 39.5053 81.1342 39.3031 81.0667 39.1413C81.0397 39.1009 81.0262 39.0604 81.0127 39.0335C81.4312 37.7797 83.1454 32.5356 84.5087 26.5366C86.3579 18.3941 87.5323 8.8765 83.9418 6.01853C83.9418 6.01853 77.7327 5.56017 69.418 13.7027C67.1638 15.954 65.0986 18.3941 63.2629 20.9959L62.6825 20.8072C59.335 19.7152 55.866 19.0412 52.37 18.812C51.3171 18.7311 47.3892 18.7311 46.1069 18.812C42.233 19.0681 39.2634 19.6478 35.8889 20.8206C35.7539 20.8746 35.6325 20.915 35.511 20.9555C33.6078 18.3671 31.4886 15.9405 29.1534 13.7162C20.5012 5.53321 14.0627 6.00504 14.0627 6.00504C10.2562 8.95738 11.552 18.9063 13.5227 27.3185C14.8185 32.8861 16.4113 37.7797 17.0052 39.5457C16.9647 39.6401 16.9107 39.748 16.8567 39.8423C13.7117 46.2053 12.011 52.3392 11.606 58.864C15.129 58.3517 24.8341 57.772 32.1095 65.591C32.1095 65.591 36.9148 52.9189 49.8728 52.9189C62.8309 52.9189 65.598 65.591 65.598 65.591C74.1827 58.5135 83.4289 58.7427 86.6684 59.0797C86.6549 58.8101 86.6279 58.4056 86.6009 58.0012ZM19.5563 34.4634C19.5563 34.4634 14.5081 21.8587 15.8039 14.6598C16.0199 13.4465 16.4248 12.3815 17.0592 11.5727C17.0592 11.5727 22.7824 12.1389 32.015 22.3844C32.015 22.3844 30.2603 23.2337 27.9116 25.0402C27.9116 25.0402 27.8981 25.0537 27.8846 25.0537C25.3335 27.0084 22.067 30.109 19.5563 34.4634ZM40.9777 53.1885C40.8967 53.3503 40.4917 53.5255 40.0328 53.5929C39.5739 53.6603 38.1701 53.6199 37.3737 53.5255C34.5121 53.148 31.4751 52.2718 29.2614 51.1933C28.0196 50.5867 27.1287 49.98 26.4673 49.3194L26.0894 48.9285L26.0489 48.4162C25.9814 47.5265 25.9949 46.1245 26.1029 45.6257C26.1704 45.2078 26.3188 44.8033 26.5213 44.4393C26.6293 44.3045 26.6293 44.3045 27.1152 44.3045C27.7091 44.3045 28.2086 44.3989 29.0184 44.655C30.6787 45.1673 33.1488 46.4076 36.1589 48.214C38.6425 49.6969 39.5739 50.4249 40.2893 51.4225C40.7752 52.0426 41.0991 52.9189 40.9777 53.1885ZM72.7789 48.7263C72.7385 48.942 72.1041 49.5891 71.4696 50.0609C69.6069 51.4225 66.2729 52.6897 62.8849 53.2963C60.9547 53.6468 59.0245 53.7008 58.4441 53.4177C58.0661 53.2289 58.0121 53.0806 58.1471 52.5953C58.4306 51.5843 59.3485 50.4788 60.7792 49.4408C61.5081 48.915 64.4642 47.1221 65.841 46.3671C68.1087 45.1269 69.9444 44.3854 71.1862 44.2102C71.5776 44.1562 72.0501 44.1428 72.1985 44.2102C72.4415 44.3045 72.7115 45.019 72.8194 45.8818C72.8734 46.3401 72.8464 48.3623 72.7789 48.7263ZM70.5383 25.0402L70.5113 25.0267C68.2436 23.2203 66.5429 22.371 66.5429 22.371C75.4651 12.1254 80.9857 11.5592 80.9857 11.5592C81.5932 12.3816 81.9846 13.4331 82.2006 14.6464C83.4559 21.8452 78.5831 34.4634 78.5831 34.4634C76.5449 30.837 73.8048 27.6285 70.5383 25.0402Z" fill="#FFA409"/>
<path d="M82.2131 14.6472C81.1602 14.5124 76.1795 14.4854 70.5373 25.041L70.5103 25.0276C68.2426 23.2211 66.5419 22.3718 66.5419 22.3718C75.4641 12.1263 80.9847 11.5601 80.9847 11.5601C81.6057 12.3824 81.9971 13.4339 82.2131 14.6472Z" fill="#FF9300"/>
<path d="M78.5958 34.4639C76.5441 30.8241 73.8175 27.6291 70.5374 25.0407C76.1796 14.4851 81.1469 14.5121 82.2132 14.6469C83.4685 21.8592 78.5958 34.4639 78.5958 34.4639Z" fill="#FF8300"/>
<path d="M82.4163 14.6872C82.3488 14.6737 82.2813 14.6602 82.2138 14.6467L82.4163 14.6872Z" fill="#FF8300"/>
<path d="M32.0155 22.3716C32.0155 22.3716 30.2608 23.2209 27.9121 25.0273C27.9121 25.0273 27.8986 25.0408 27.8851 25.0408C22.0405 14.4717 16.8977 14.5121 15.7909 14.647C16.0069 13.4337 16.4118 12.3687 17.0462 11.5598C17.0597 11.5598 22.7829 12.126 32.0155 22.3716Z" fill="#FF9300"/>
<path d="M27.8987 25.0407C25.3341 27.009 22.0676 30.0961 19.557 34.4639C19.557 34.4639 14.5087 21.8592 15.8045 14.6469C16.8979 14.5121 22.0541 14.4851 27.8987 25.0407Z" fill="#FF8300"/>
<path d="M15.8044 14.6467C15.7369 14.6602 15.6559 14.6737 15.5884 14.6872L15.8044 14.6467Z" fill="#FF8300"/>
<path d="M64.9367 41.4598C64.9367 41.4598 60.6173 41.7295 61.1572 38.3592C61.6972 34.989 65.0717 34.5845 66.0165 34.7194C66.9614 34.8542 70.7408 36.2023 70.0659 39.0333C69.391 41.8643 68.4462 41.325 67.9062 41.4598C67.3663 41.5947 64.9367 41.4598 64.9367 41.4598Z" fill="white"/>
<path d="M33.0817 41.4598C33.0817 41.4598 28.7623 41.7295 29.3023 38.3592C29.8422 34.989 33.2167 34.5845 34.1615 34.7194C35.1064 34.8542 38.8859 36.2023 38.211 39.0333C37.5361 41.8643 36.5912 41.325 36.0513 41.4598C35.5113 41.5947 33.0817 41.4598 33.0817 41.4598Z" fill="white"/>
</svg>
