<svg width="100" height="100" viewBox="0 0 100 100" fill="none" xmlns="http://www.w3.org/2000/svg">
<path d="M49.75 93.5C73.9125 93.5 93.5 73.9125 93.5 49.75C93.5 25.5875 73.9125 6 49.75 6C25.5875 6 6 25.5875 6 49.75C6 73.9125 25.5875 93.5 49.75 93.5Z" fill="#0052FF"/>
<path d="M50.1174 36.9181C55.2683 36.9181 59.3545 40.0951 60.9062 44.8196H71.2832C69.4033 34.7186 61.0695 27.875 50.2003 27.875C37.8572 27.875 28.2168 37.2445 28.2168 49.7919C28.2168 62.3392 37.6162 71.625 50.2003 71.625C60.8259 71.625 69.3256 64.7814 71.2072 54.5967H60.9054C59.434 59.322 55.3512 62.5819 50.1969 62.5819C43.085 62.5819 38.1007 57.1226 38.1007 49.7919C38.1041 42.3774 43.0081 36.9181 50.1174 36.9181Z" fill="white"/>
</svg>
