<svg width="100" height="100" viewBox="0 0 100 100" fill="none" xmlns="http://www.w3.org/2000/svg">
<path d="M49.75 6C73.9137 6 93.5 25.5863 93.5 49.75C93.5 73.9137 73.9137 93.5 49.75 93.5C25.5863 93.5 6 73.9137 6 49.75C6 25.5863 25.5863 6 49.75 6ZM58.9156 21.2031C58.2484 20.875 57.5813 21.2031 57.4172 21.8676C57.2504 22.0344 57.2504 22.2012 57.2504 22.532V24.8562L57.2777 25.1406C57.4205 25.7032 57.7662 26.193 58.2484 26.516C71.2477 31.1645 77.9141 45.602 73.0797 58.3797C70.5805 65.3523 65.0816 70.6598 58.2484 73.1508C57.5812 73.4816 57.2504 73.9793 57.2504 74.8105V77.1348L57.2641 77.3754C57.2901 77.638 57.3998 77.8852 57.577 78.0807C57.7543 78.2761 57.9897 78.4095 58.2484 78.4609C58.4152 78.4609 58.7488 78.4609 58.9156 78.2969C62.666 77.1257 66.1477 75.2242 69.1602 72.7019C72.1727 70.1796 74.6565 67.0863 76.4686 63.6001C78.2806 60.1139 79.3852 56.3037 79.7187 52.3889C80.0522 48.474 79.608 44.5319 78.4117 40.7895C75.4148 31.3285 68.0812 24.1891 58.9156 21.2031ZM41.2516 21.0391C41.0848 21.0391 40.7512 21.0391 40.5844 21.2031C36.834 22.3743 33.3523 24.2758 30.3398 26.7981C27.3273 29.3204 24.8435 32.4137 23.0315 35.8999C21.2194 39.3861 20.1148 43.1963 19.7813 47.1111C19.4478 51.026 19.892 54.9681 21.0883 58.7105C24.0852 68.0074 31.252 75.1441 40.5844 78.1301C41.2516 78.4609 41.9188 78.1301 42.0828 77.4656C42.2496 77.3016 42.2496 77.132 42.2496 76.8012V74.477L42.2223 74.2582C42.1074 73.7961 41.6781 73.2684 41.2516 72.984C28.2523 68.3355 21.5859 53.898 26.4203 41.1203C28.9195 34.1477 34.4184 28.8402 41.2516 26.3492C41.9188 26.0184 42.2496 25.5207 42.2496 24.6895V22.3652L42.2359 22.1246C42.2099 21.862 42.1002 21.6148 41.923 21.4193C41.7457 21.2239 41.5103 21.0905 41.2516 21.0391ZM50.9176 29.6688H48.4156L48.175 29.6906C47.6281 29.8 47.2289 30.2703 47.0812 30.9977V34.8148L46.5152 34.9023C41.8449 35.7336 38.9191 38.9574 38.9191 42.9469C38.9191 48.4211 42.2496 50.5785 49.2496 51.4098C53.9172 52.2383 55.4156 53.2363 55.4156 55.8914C55.4156 58.5438 53.0832 60.3703 49.9168 60.3703C45.5828 60.3703 44.0844 58.5465 43.584 56.0555C43.4199 55.3937 42.9168 55.0602 42.4164 55.0602H39.5836L39.3676 55.0793C39.0979 55.1229 38.8532 55.2627 38.6788 55.4728C38.5043 55.683 38.4119 55.9492 38.4188 56.2223V56.3863L38.509 56.8785C39.302 60.7723 41.9707 63.5586 47.2508 64.3543V68.3383L47.2727 68.5789C47.382 69.1203 47.8551 69.5195 48.5852 69.6645H51.0844L51.325 69.6426C51.8719 69.5332 52.2711 69.0629 52.4188 68.3383V64.3516L52.9848 64.2422C57.6688 63.2523 60.7504 59.8645 60.7504 55.5551C60.7504 49.7473 57.2504 47.7566 50.2504 46.9254C45.2492 46.2609 44.2512 44.9348 44.2512 42.6105C44.2512 40.2863 45.9191 38.7934 49.2496 38.7934C52.2492 38.7934 53.9172 39.7887 54.7484 42.2797C54.8351 42.5206 54.9934 42.7291 55.2022 42.8772C55.4109 43.0254 55.66 43.106 55.916 43.1082H58.582L58.798 43.0918C59.0687 43.0488 59.3144 42.9088 59.4895 42.698C59.6645 42.4873 59.757 42.22 59.7496 41.9461V41.782L59.6484 41.309C59.2379 39.6093 58.3018 38.0824 56.9734 36.9455C55.645 35.8085 53.9919 35.1194 52.2492 34.9762V30.9977L52.2273 30.757C52.118 30.2129 51.6477 29.8137 50.9176 29.6688Z" fill="#3C6FBE"/>
</svg>
